<?xml version="1.0" encoding="UTF-8" standalone="no"?>
<!-- Created with Inkscape (http://www.inkscape.org/) -->

<svg
    xmlns:dc="http://purl.org/dc/elements/1.1/"
    xmlns:cc="http://creativecommons.org/ns#"
    xmlns:rdf="http://www.w3.org/1999/02/22-rdf-syntax-ns#"
    xmlns="http://www.w3.org/2000/svg"
    xmlns:sodipodi="http://sodipodi.sourceforge.net/DTD/sodipodi-0.dtd"
    xmlns:inkscape="http://www.inkscape.org/namespaces/inkscape"
    width="923"
    height="831"
    viewBox="0 0 923 831.00001"
    id="svg8657"
    version="1.1"
    inkscape:version="0.91 r13725"
    sodipodi:docname="egg-big.svg">
  <defs
     id="defs8659" />
  <sodipodi:namedview
     id="base"
     pagecolor="#ffffff"
     bordercolor="#666666"
     borderopacity="1.0"
     inkscape:pageopacity="0.0"
     inkscape:pageshadow="2"
     inkscape:zoom="0.35"
     inkscape:cx="-192.14286"
     inkscape:cy="520"
     inkscape:document-units="px"
     inkscape:current-layer="layer1"
     showgrid="false"
     units="px"
     inkscape:window-width="1920"
     inkscape:window-height="1001"
     inkscape:window-x="-9"
     inkscape:window-y="-9"
     inkscape:window-maximized="1" />
  <metadata
     id="metadata8662">
    <rdf:RDF>
      <cc:Work
         rdf:about="">
        <dc:format>image/svg+xml</dc:format>
        <dc:type
           rdf:resource="http://purl.org/dc/dcmitype/StillImage" />
        <dc:title></dc:title>
      </cc:Work>
    </rdf:RDF>
  </metadata>
  <g
     inkscape:label="Livello 1"
     inkscape:groupmode="layer"
     id="layer1"
     transform="translate(0,-221.36216)">
    <g
       id="g4632"
       transform="matrix(15.383333,0,0,15.390281,0,175.14694)"
       style="display:inline;opacity:0.128;fill:#f9ede7;fill-opacity:1">
      <g
         id="g4588"
         style="fill:#f9ede7;fill-opacity:1">
        <path
           id="path4590"
           d="m 37.5,20.997 c -0.952,0 -1.893,0.141 -2.794,0.418 -0.528,0.163 -0.824,0.723 -0.662,1.25 0.133,0.43 0.528,0.706 0.956,0.706 0.097,0 0.196,-0.014 0.294,-0.044 0.711,-0.219 1.453,-0.33 2.206,-0.33 0.553,0 1,-0.447 1,-1 0,-0.553 -0.447,-1 -1,-1 z"
           inkscape:connector-curvature="0"
           style="fill:#f9ede7;fill-opacity:1" />
        <path
           id="path4592"
           d="M 31.379,23.232 C 29.231,25.043 28,27.69 28,30.497 c 0,0.553 0.447,1 1,1 0.553,0 1,-0.447 1,-1 0,-2.216 0.973,-4.306 2.668,-5.735 0.422,-0.356 0.476,-0.987 0.12,-1.409 -0.356,-0.422 -0.986,-0.477 -1.409,-0.121 z"
           inkscape:connector-curvature="0"
           style="fill:#f9ede7;fill-opacity:1" />
        <path
           id="path4594"
           d="M 58.109,31.172 C 59.347,29.398 60,27.348 60,25.244 60,20.622 56.843,16.336 51.957,14.326 50.154,13.584 48.765,12.15 48.241,10.491 46.907,6.261 43.873,3.856 38.965,3.138 34.945,2.55 31.011,3.914 28.96,6.59 28.149,7.646 26.237,8.099 24.381,7.645 22.903,7.285 21.365,7.094 19.809,7.081 L 19.644,7.08 C 12.748,7.08 7.034,10.791 6.055,15.902 5.713,17.686 5.923,19.468 6.681,21.2 7.577,23.25 6.763,25.461 4.5,27.113 1.599,29.231 0,32.036 0,35.01 c 0,3.946 5.721,6.755 10.52,8.416 2.957,1.022 4.901,2.995 5.333,5.395 l 0.025,0.139 c 0.921,4.732 5.828,8.038 11.935,8.038 0.203,0 0.407,-0.004 0.613,-0.012 4.588,-0.168 8.983,-2.109 11.76,-5.192 0.834,-0.926 2.235,-1.469 3.438,-1.302 2.071,0.296 4.236,0.132 6.33,-0.481 4.896,-1.433 8.63,-5.349 9.293,-9.745 0.341,-2.252 -0.086,-4.458 -1.234,-6.379 -0.512,-0.857 -0.475,-1.897 0.096,-2.715 z M 19.458,11.002 c 1.551,-0.149 2.636,-0.001 2.682,0.005 0.547,0.077 0.928,0.583 0.851,1.13 -0.07,0.5 -0.499,0.86 -0.989,0.86 -0.046,0 -0.092,-0.003 -0.139,-0.01 -0.021,-0.002 -0.922,-0.118 -2.211,0.005 -0.557,0.052 -1.039,-0.349 -1.092,-0.898 -0.054,-0.55 0.348,-1.039 0.898,-1.092 z m -7.621,6.542 c -0.191,0.294 -0.512,0.453 -0.838,0.453 -0.188,0 -0.377,-0.053 -0.546,-0.163 -0.462,-0.302 -0.593,-0.921 -0.29,-1.384 1.279,-1.96 2.998,-3.429 5.107,-4.368 0.506,-0.223 1.096,0.004 1.32,0.508 0.224,0.504 -0.003,1.096 -0.508,1.32 -1.751,0.779 -3.18,2.002 -4.245,3.634 z m 6.269,26.975 c -0.722,-1.179 -1.619,-1.749 -1.628,-1.755 -0.472,-0.288 -0.62,-0.903 -0.331,-1.374 0.288,-0.471 0.905,-0.623 1.374,-0.331 0.054,0.032 1.309,0.812 2.29,2.415 0.289,0.472 0.141,1.087 -0.33,1.375 -0.163,0.1 -0.344,0.147 -0.521,0.147 -0.337,10e-4 -0.665,-0.169 -0.854,-0.477 z m 8.018,7.385 -0.163,0.019 c -0.242,0.027 -0.483,0.04 -0.722,0.04 -3.095,0 -5.8,-2.218 -6.334,-5.312 -0.094,-0.544 0.271,-1.062 0.815,-1.155 0.543,-0.09 1.062,0.271 1.155,0.815 0.396,2.291 2.521,3.88 4.851,3.625 l 0.149,-0.017 c 0.554,-0.068 1.048,0.32 1.116,0.868 0.068,0.548 -0.319,1.049 -0.867,1.117 z M 37.5,43.997 c -7.444,0 -13.5,-6.056 -13.5,-13.5 0,-7.444 6.056,-13.5 13.5,-13.5 7.444,0 13.5,6.056 13.5,13.5 0,7.444 -6.056,13.5 -13.5,13.5 z"
           inkscape:connector-curvature="0"
           style="fill:#f9ede7;fill-opacity:1" />
      </g>
      <g
         id="g4596"
         style="fill:#f9ede7;fill-opacity:1" />
      <g
         id="g4598"
         style="fill:#f9ede7;fill-opacity:1" />
      <g
         id="g4600"
         style="fill:#f9ede7;fill-opacity:1" />
      <g
         id="g4602"
         style="fill:#f9ede7;fill-opacity:1" />
      <g
         id="g4604"
         style="fill:#f9ede7;fill-opacity:1" />
      <g
         id="g4606"
         style="fill:#f9ede7;fill-opacity:1" />
      <g
         id="g4608"
         style="fill:#f9ede7;fill-opacity:1" />
      <g
         id="g4610"
         style="fill:#f9ede7;fill-opacity:1" />
      <g
         id="g4612"
         style="fill:#f9ede7;fill-opacity:1" />
      <g
         id="g4614"
         style="fill:#f9ede7;fill-opacity:1" />
      <g
         id="g4616"
         style="fill:#f9ede7;fill-opacity:1" />
      <g
         id="g4618"
         style="fill:#f9ede7;fill-opacity:1" />
      <g
         id="g4620"
         style="fill:#f9ede7;fill-opacity:1" />
      <g
         id="g4622"
         style="fill:#f9ede7;fill-opacity:1" />
      <g
         id="g4624"
         style="fill:#f9ede7;fill-opacity:1" />
    </g>
  </g>
</svg>
