<?xml version="1.0" encoding="utf-8"?>
<!-- Generator: Adobe Illustrator 21.0.1, SVG Export Plug-In . SVG Version: 6.00 Build 0)  -->
<svg version="1.1"
	 id="svg6171" inkscape:version="0.91 r13725" sodipodi:docname="flag-close.svg" xmlns:inkscape="http://www.inkscape.org/namespaces/inkscape" xmlns:sodipodi="http://sodipodi.sourceforge.net/DTD/sodipodi-0.dtd"
	 xmlns="http://www.w3.org/2000/svg" xmlns:xlink="http://www.w3.org/1999/xlink" x="0px" y="0px" viewBox="0 0 30 53"
	 style="enable-background:new 0 0 30 53;" xml:space="preserve">
<style type="text/css">
	.st0{fill:#0A3C6B;}
	.st1{fill:#F9EDE7;}
</style>
<sodipodi:namedview  bordercolor="#666666" borderopacity="1.0" id="base" inkscape:current-layer="layer1" inkscape:cx="34.29188" inkscape:cy="7.3401636" inkscape:document-units="px" inkscape:pageopacity="0.0" inkscape:pageshadow="2" inkscape:window-height="1001" inkscape:window-maximized="1" inkscape:window-width="1920" inkscape:window-x="1271" inkscape:window-y="368" inkscape:zoom="7.9195959" pagecolor="#ffffff" showgrid="false" units="px">
	</sodipodi:namedview>
<path id="path5956" inkscape:connector-curvature="0" sodipodi:nodetypes="cccccc" class="st0" d="M30.1,3h-30v50l15-12.2l15,12.2V3
	z"/>
<g>
	<path class="st1" d="M23.1,19.3h-1.7c-0.9,0-1.3-1-0.7-1.7l1.2-1.2c0.2-0.2,0.2-0.6,0-0.8l-1.5-1.5c-0.2-0.2-0.6-0.2-0.8,0
		l-1.2,1.1c-0.6,0.6-1.7,0.1-1.7-0.7v-1.6c0-0.3-0.3-0.6-0.6-0.6H14c-0.3,0-0.6,0.3-0.6,0.6v1.7c0,0.9-1,1.3-1.7,0.7l-1.2-1.2
		c-0.2-0.2-0.6-0.2-0.8,0l-1.5,1.5c-0.2,0.2-0.2,0.6,0,0.8l1.2,1.2c0.6,0.6,0.1,1.7-0.7,1.7H7.1c-0.3,0-0.6,0.3-0.6,0.6V22
		c0,0.3,0.3,0.6,0.6,0.6h1.7c0.9,0,1.3,1,0.7,1.7l-1.2,1.2c-0.2,0.1-0.2,0.5,0,0.7l1.5,1.5c0.2,0.2,0.6,0.2,0.8,0l1.2-1.2
		c0.6-0.6,1.7-0.1,1.7,0.7V29c0,0.3,0.3,0.6,0.6,0.6h2.1c0.3,0,0.6-0.3,0.6-0.6v-1.7c0-0.9,1-1.3,1.7-0.7l1.2,1.2
		c0.2,0.2,0.6,0.2,0.8,0l1.5-1.5c0.2-0.2,0.2-0.6,0-0.8l-1.2-1.2c-0.6-0.6-0.1-1.7,0.7-1.7h1.7c0.3,0,0.6-0.3,0.6-0.6v-2.1
		C23.7,19.5,23.4,19.3,23.1,19.3z M15.1,23.5c-1.5,0-2.6-1.2-2.6-2.6c0-1.5,1.2-2.6,2.6-2.6s2.6,1.2,2.6,2.6
		C17.8,22.4,16.6,23.5,15.1,23.5z"/>
</g>
<rect x="0.1" y="0" class="st0" width="30" height="3.6"/>
</svg>
