<?xml version="1.0" encoding="utf-8"?>
<!-- Generator: Adobe Illustrator 21.0.1, SVG Export Plug-In . SVG Version: 6.00 Build 0)  -->
<svg version="1.1"
	 id="svg6171" inkscape:version="0.91 r13725" sodipodi:docname="flag-close.svg" xmlns:inkscape="http://www.inkscape.org/namespaces/inkscape" xmlns:sodipodi="http://sodipodi.sourceforge.net/DTD/sodipodi-0.dtd"
	 xmlns="http://www.w3.org/2000/svg" xmlns:xlink="http://www.w3.org/1999/xlink" x="0px" y="0px" viewBox="0 0 55 55"
	 style="enable-background:new 0 0 55 55;" xml:space="preserve">
<style type="text/css">
	.st0{fill:url(#path5956_1_);}
	.st1{fill:#F9EDE7;}
</style>
<sodipodi:namedview  bordercolor="#666666" borderopacity="1.0" id="base" inkscape:current-layer="layer1" inkscape:cx="34.29188" inkscape:cy="7.3401636" inkscape:document-units="px" inkscape:pageopacity="0.0" inkscape:pageshadow="2" inkscape:window-height="1001" inkscape:window-maximized="1" inkscape:window-width="1920" inkscape:window-x="1271" inkscape:window-y="368" inkscape:zoom="7.9195959" pagecolor="#ffffff" showgrid="false" units="px">
	</sodipodi:namedview>
<g id="g6741" transform="matrix(0.55468364,0,0,0.55,-98.422748,887.63442)">
	
		<linearGradient id="path5956_1_" gradientUnits="userSpaceOnUse" x1="1029.3386" y1="-12051.7168" x2="1030.3386" y2="-12051.7168" gradientTransform="matrix(2.242107e-17 0.3693 -0.7594 4.689510e-17 -8924.8867 311823)">
		<stop  offset="0" style="stop-color:#145C9E"/>
		<stop  offset="1" style="stop-color:#000000"/>
	</linearGradient>
	<path id="path5956" inkscape:connector-curvature="0" sodipodi:nodetypes="cccccc" class="st0" d="M276.6-1613.9h-99.2v100
		l49.6-24.4l49.6,24.4V-1613.9z"/>
</g>
<g id="g2730" transform="matrix(0.04837262,0,0,0.04837262,8.5862967,1012.5874)">
	<g id="g2672">
		<g id="g2670">
			<path id="path2666" inkscape:connector-curvature="0" class="st1" d="M183.9-20569.9c6.5,4.6,26,18.1,58.5,40.7
				c32.5,22.6,57.5,39.9,74.8,52.1c1.9,1.3,5.9,4.2,12.1,8.7c6.2,4.5,11.3,8.1,15.4,10.9c4.1,2.8,9,5.9,14.8,9.3
				c5.8,3.4,11.3,6,16.4,7.7c5.1,1.7,9.9,2.6,14.3,2.6h0.3h0.3c4.4,0,9.1-0.9,14.3-2.6c5.1-1.7,10.6-4.3,16.4-7.7
				c5.8-3.4,10.8-6.5,14.8-9.3s9.2-6.4,15.4-10.9c6.2-4.5,10.2-7.4,12.1-8.7c17.5-12.2,62.1-43.1,133.6-92.8
				c13.9-9.7,25.5-21.4,34.8-35.1c9.3-13.7,14-28.1,14-43.1c0-12.6-4.5-23.3-13.6-32.3c-9-8.9-19.7-13.4-32.1-13.4H180.5
				c-14.7,0-25.9,4.9-33.8,14.8c-7.9,9.9-11.8,22.3-11.8,37.1c0,12,5.2,25,15.7,39C161-20588.9,172.1-20577.9,183.9-20569.9z"/>
			<path id="path2668" inkscape:connector-curvature="0" class="st1" d="M617.9-20539.4c-62.4,42.2-109.8,75.1-142.2,98.5
				c-10.8,8-19.6,14.2-26.4,18.7c-6.8,4.5-15.7,9-27,13.7c-11.2,4.7-21.7,7-31.4,7h-0.3h-0.3c-9.7,0-20.2-2.3-31.4-7
				c-11.2-4.7-20.2-9.2-27-13.7c-6.8-4.5-15.6-10.7-26.4-18.7c-25.7-18.8-73-51.7-141.9-98.5c-10.9-7.2-20.5-15.5-28.8-24.8v226.7
				c0,12.6,4.5,23.3,13.4,32.3c8.9,8.9,19.7,13.4,32.3,13.4h420.3c12.6,0,23.3-4.5,32.3-13.4c8.9-8.9,13.4-19.7,13.4-32.3v-226.7
				C638.3-20555.1,628.8-20546.8,617.9-20539.4z"/>
		</g>
	</g>
	<g id="g2674">
	</g>
	<g id="g2676">
	</g>
	<g id="g2678">
	</g>
	<g id="g2680">
	</g>
	<g id="g2682">
	</g>
	<g id="g2684">
	</g>
	<g id="g2686">
	</g>
	<g id="g2688">
	</g>
	<g id="g2690">
	</g>
	<g id="g2692">
	</g>
	<g id="g2694">
	</g>
	<g id="g2696">
	</g>
	<g id="g2698">
	</g>
	<g id="g2700">
	</g>
	<g id="g2702">
	</g>
</g>
</svg>
