<?xml version="1.0" encoding="utf-8"?>
<!-- Generator: Adobe Illustrator 21.0.1, SVG Export Plug-In . SVG Version: 6.00 Build 0)  -->
<svg version="1.1"
	 id="svg6171" inkscape:version="0.91 r13725" sodipodi:docname="flag-close.svg" xmlns:inkscape="http://www.inkscape.org/namespaces/inkscape" xmlns:sodipodi="http://sodipodi.sourceforge.net/DTD/sodipodi-0.dtd"
	 xmlns="http://www.w3.org/2000/svg" xmlns:xlink="http://www.w3.org/1999/xlink" x="0px" y="0px" viewBox="0 0 30 73"
	 style="enable-background:new 0 0 30 73;" xml:space="preserve">
<style type="text/css">
	.st0{fill:#0A3C6B;}
	.st1{fill:#F9EDE7;}
</style>
<sodipodi:namedview  bordercolor="#666666" borderopacity="1.0" id="base" inkscape:current-layer="layer1" inkscape:cx="34.29188" inkscape:cy="7.3401636" inkscape:document-units="px" inkscape:pageopacity="0.0" inkscape:pageshadow="2" inkscape:window-height="1001" inkscape:window-maximized="1" inkscape:window-width="1920" inkscape:window-x="1271" inkscape:window-y="368" inkscape:zoom="7.9195959" pagecolor="#ffffff" showgrid="false" units="px">
	</sodipodi:namedview>
<path id="path5956" inkscape:connector-curvature="0" sodipodi:nodetypes="cccccc" class="st0" d="M30,23H0v50l15-12.2L30,73V23z"/>
<rect y="0" class="st0" width="30" height="25.8"/>
<g id="g2781" transform="matrix(0.09803922,0,0,0.09803922,1242.2817,20.021709)">
	<g id="g2724">
		<g id="notifications">
			<path id="path2721" inkscape:connector-curvature="0" class="st1" d="M-12517.3,97.6c9.7,0,17.6-7.9,17.6-17.6h-35.3
				C-12534.9,89.6-12527,97.6-12517.3,97.6z M-12460,44.7V-3.8c0-27.3-18.5-49.4-44.1-55.5v-6.2c0-7.1-6.2-13.2-13.2-13.2
				s-13.2,6.2-13.2,13.2v6.2c-25.6,6.2-44.1,28.2-44.1,55.5v48.5l-17.6,17.6v8.8h149.9v-8.8L-12460,44.7z"/>
		</g>
	</g>
	<g id="g2726">
	</g>
	<g id="g2728">
	</g>
	<g id="g2730">
	</g>
	<g id="g2732">
	</g>
	<g id="g2734">
	</g>
	<g id="g2736">
	</g>
	<g id="g2738">
	</g>
	<g id="g2740">
	</g>
	<g id="g2742">
	</g>
	<g id="g2744">
	</g>
	<g id="g2746">
	</g>
	<g id="g2748">
	</g>
	<g id="g2750">
	</g>
	<g id="g2752">
	</g>
	<g id="g2754">
	</g>
</g>
</svg>
