<?xml version="1.0" encoding="utf-8"?>
<!-- Generator: Adobe Illustrator 21.0.1, SVG Export Plug-In . SVG Version: 6.00 Build 0)  -->
<svg version="1.1"
	 id="svg6171" inkscape:version="0.91 r13725" sodipodi:docname="flag-close.svg" xmlns:inkscape="http://www.inkscape.org/namespaces/inkscape" xmlns:sodipodi="http://sodipodi.sourceforge.net/DTD/sodipodi-0.dtd"
	 xmlns="http://www.w3.org/2000/svg"  x="0px" y="0px" viewBox="0 0 55 55"
	 style="enable-background:new 0 0 55 55;" xml:space="preserve">
<style type="text/css">
	.st0{fill:url(#path5956_1_);}
	.st1{fill:#F9EDE7;}
</style>
<sodipodi:namedview  bordercolor="#666666" borderopacity="1.0" id="base" inkscape:current-layer="layer1" inkscape:cx="34.29188" inkscape:cy="7.3401636" inkscape:document-units="px" inkscape:pageopacity="0.0" inkscape:pageshadow="2" inkscape:window-height="1001" inkscape:window-maximized="1" inkscape:window-width="1920" inkscape:window-x="1271" inkscape:window-y="368" inkscape:zoom="7.9195959" pagecolor="#ffffff" showgrid="false" units="px">
	</sodipodi:namedview>
<linearGradient id="path5956_1_" gradientUnits="userSpaceOnUse" x1="234.7883" y1="-2504.5432" x2="235.7883" y2="-2504.5432" gradientTransform="matrix(0.6601 0 0 1.3925 172444.3594 3515.0764)">
	<stop  offset="0" style="stop-color:#145C9E"/>
	<stop  offset="1" style="stop-color:#000000"/>
</linearGradient>
<path id="path5956" inkscape:connector-curvature="0" sodipodi:nodetypes="cccccc" class="st0" d="M0,0v55h55L41.6,27.5L55,0H0z"/>
<g>
	<path class="st1" d="M31.4,24.9h-2.3c-1.2,0-1.8-1.4-0.9-2.3l1.6-1.6c0.3-0.3,0.3-0.8,0-1.1l-2-2c-0.3-0.3-0.8-0.3-1.1,0L25,19.4
		c-0.8,0.8-2.3,0.2-2.3-0.9v-2.3c0-0.4-0.4-0.8-0.8-0.8h-2.9c-0.4,0-0.8,0.4-0.8,0.8v2.3c0,1.2-1.4,1.8-2.3,0.9l-1.6-1.6
		c-0.3-0.3-0.8-0.3-1.1,0l-2,2c-0.3,0.3-0.3,0.8,0,1.1l1.6,1.6c0.8,0.8,0.2,2.3-0.9,2.3H9.6c-0.4,0-0.8,0.4-0.8,0.8v2.9
		c0,0.4,0.4,0.8,0.8,0.8h2.3c1.2,0,1.8,1.4,0.9,2.3l-1.6,1.6c-0.3,0.3-0.3,0.8,0,1.1l2,2c0.3,0.3,0.8,0.3,1.1,0l1.6-1.6
		c0.8-0.8,2.3-0.2,2.3,0.9V38c0,0.4,0.4,0.8,0.8,0.8h2.9c0.4,0,0.8-0.4,0.8-0.8v-2.3c0-1.2,1.4-1.8,2.3-0.9l1.6,1.6
		c0.3,0.3,0.8,0.3,1.1,0l2-2c0.3-0.3,0.3-0.8,0-1.1l-1.6-1.6c-0.8-0.8-0.2-2.3,0.9-2.3h2.3c0.4,0,0.8-0.4,0.8-0.8v-2.9
		C32.2,25.2,31.8,24.9,31.4,24.9z M20.5,30.7c-2,0-3.6-1.6-3.6-3.6s1.6-3.6,3.6-3.6s3.6,1.6,3.6,3.6S22.5,30.7,20.5,30.7z"/>
</g>
</svg>
