<?xml version="1.0" encoding="utf-8"?>
<!-- Generator: Adobe Illustrator 21.0.1, SVG Export Plug-In . SVG Version: 6.00 Build 0)  -->
<svg version="1.1"
	 id="svg6171" inkscape:version="0.91 r13725" sodipodi:docname="flag-close.svg"   xmlns:inkscape="http://www.inkscape.org/namespaces/inkscape"   xmlns:sodipodi="http://sodipodi.sourceforge.net/DTD/sodipodi-0.dtd"
	 xmlns="http://www.w3.org/2000/svg"  x="0px" y="0px" viewBox="0 0 55 55"
	 style="enable-background:new 0 0 55 55;" xml:space="preserve">
<style type="text/css">
	.st0{fill:url(#path5956_1_);}
	.st1{fill:#F9EDE7;}
</style>
<sodipodi:namedview  bordercolor="#666666" borderopacity="1.0" id="base" inkscape:current-layer="layer1" inkscape:cx="34.29188" inkscape:cy="7.3401636" inkscape:document-units="px" inkscape:pageopacity="0.0" inkscape:pageshadow="2" inkscape:window-height="1001" inkscape:window-maximized="1" inkscape:window-width="1920" inkscape:window-x="1271" inkscape:window-y="368" inkscape:zoom="7.9195959" pagecolor="#ffffff" showgrid="false" units="px">
	</sodipodi:namedview>
<linearGradient id="path5956_1_" gradientUnits="userSpaceOnUse" x1="117.3861" y1="2952.3545" x2="118.3861" y2="2952.3545" gradientTransform="matrix(0.6601 0 0 -1.3925 172521.8594 4138.5464)">
	<stop  offset="0" style="stop-color:#145C9E"/>
	<stop  offset="1" style="stop-color:#000000"/>
</linearGradient>
<path id="path5956" inkscape:connector-curvature="0" sodipodi:nodetypes="cccccc" class="st0" d="M0,0v55h55L41.6,27.5L55,0H0z"/>
<g>
	<g>
		<g>
			<g>
				<circle class="st1" cx="20.6" cy="17.5" r="2.1"/>
				<path class="st1" d="M21.4,20C21.4,20,21.4,20,21.4,20l-1.6,0c-1.6,0-2.8,1.3-2.8,2.9c0,0,0,0,0,0v0.4c0,0.2,0.1,0.5,0.3,0.5
					h6.5c0.2,0,0.3-0.2,0.3-0.5v-0.4C24.2,21.4,23,20.1,21.4,20z"/>
				<path class="st1" d="M11.7,29c0.2,0,0.4-0.2,0.4-0.4c0-2.6,1.2-5,3.2-6.6c0.2-0.1,0.2-0.4,0.1-0.5c0,0,0,0,0,0
					c-0.1-0.2-0.4-0.2-0.6-0.1c-2.2,1.8-3.5,4.4-3.5,7.2C11.3,28.8,11.5,29,11.7,29z"/>
				<path class="st1" d="M23.3,36.7L23.3,36.7c-1.7,0.6-3.6,0.6-5.4,0c-0.2-0.1-0.4,0-0.5,0.3c0,0,0,0,0,0c-0.1,0.2,0.1,0.4,0.3,0.5
					c0.9,0.3,1.9,0.5,2.9,0.5c1,0,2-0.2,3-0.5c0.2-0.1,0.3-0.4,0.2-0.6C23.7,36.7,23.5,36.6,23.3,36.7z"/>
				<path class="st1" d="M25.5,21.7C25.5,21.7,25.5,21.7,25.5,21.7c2.2,1.6,3.6,4.2,3.6,6.9c0,0.2,0.2,0.4,0.4,0.4
					c0.2,0,0.4-0.2,0.4-0.4c0-3-1.5-5.9-3.9-7.6c-0.2-0.1-0.4-0.1-0.6,0.1C25.3,21.3,25.3,21.6,25.5,21.7z"/>
				<circle class="st1" cx="12.4" cy="32.5" r="2.1"/>
				<path class="st1" d="M13.2,35C13.2,35,13.2,35,13.2,35l-1.6,0c-1.6,0-2.8,1.3-2.8,2.9c0,0,0,0,0,0v0.4c0,0.2,0.1,0.5,0.3,0.5
					h6.5c0.2,0,0.3-0.2,0.3-0.5V38C16,36.4,14.8,35.1,13.2,35z"/>
				<circle class="st1" cx="28.8" cy="32.5" r="2.1"/>
				<path class="st1" d="M29.6,35C29.6,35,29.6,35,29.6,35L28,35c-1.6,0-2.8,1.3-2.8,2.9c0,0,0,0,0,0v0.4c0,0.2,0.1,0.5,0.3,0.5H32
					c0.2,0,0.3-0.2,0.3-0.5V38C32.4,36.4,31.2,35.1,29.6,35z"/>
			</g>
		</g>
	</g>
</g>
</svg>
