<?xml version="1.0" encoding="UTF-8" standalone="no"?>
<!-- Created with Inkscape (http://www.inkscape.org/) -->

<svg
   xmlns:osb="http://www.openswatchbook.org/uri/2009/osb"
   xmlns:dc="http://purl.org/dc/elements/1.1/"
   xmlns:cc="http://creativecommons.org/ns#"
   xmlns:rdf="http://www.w3.org/1999/02/22-rdf-syntax-ns#"
   xmlns:svg="http://www.w3.org/2000/svg"
   xmlns="http://www.w3.org/2000/svg"
   xmlns:sodipodi="http://sodipodi.sourceforge.net/DTD/sodipodi-0.dtd"
   xmlns:inkscape="http://www.inkscape.org/namespaces/inkscape"
   width="55"
   height="55"
   viewBox="0 0 54.999998 54.999998"
   id="svg6171"
   version="1.1"
   inkscape:version="0.92.3 (2405546, 2018-03-11)"
   sodipodi:docname="flag-message.svg">
  <defs
     id="defs6173">
    <linearGradient
       id="linearGradient6311"
       osb:paint="solid"
       gradientTransform="matrix(-0.13775199,-0.09354237,0.08427856,-0.04542901,-1877.9424,-1825.6599)">
      <stop
         style="stop-color:#f9ede7;stop-opacity:1;"
         offset="0"
         id="stop6313" />
    </linearGradient>
    <linearGradient
       id="linearGradient6317"
       osb:paint="solid"
       gradientTransform="matrix(0.01200238,0,0,0.02531752,3138.1701,72.20158)">
      <stop
         style="stop-color:#145c9e;stop-opacity:1;"
         offset="0"
         id="stop6319" />
    </linearGradient>
  </defs>
  <sodipodi:namedview
     id="base"
     pagecolor="#ffffff"
     bordercolor="#666666"
     borderopacity="1.0"
     inkscape:pageopacity="0.0"
     inkscape:pageshadow="2"
     inkscape:zoom="7.9195959"
     inkscape:cx="38.793781"
     inkscape:cy="20.827448"
     inkscape:document-units="px"
     inkscape:current-layer="layer1"
     showgrid="false"
     units="px"
     inkscape:window-width="1920"
     inkscape:window-height="1001"
     inkscape:window-x="-9"
     inkscape:window-y="-9"
     inkscape:window-maximized="1"
     showguides="true"
     inkscape:guide-bbox="true"
     inkscape:snap-bbox="true"
     inkscape:bbox-nodes="true"
     inkscape:snap-nodes="false">
    <sodipodi:guide
       position="8.5862964,-91.418802"
       orientation="1,0"
       id="guide2732"
       inkscape:locked="false" />
    <sodipodi:guide
       position="33.335033,-92.681493"
       orientation="1,0"
       id="guide2734"
       inkscape:locked="false" />
    <sodipodi:guide
       position="-43.941634,39.648486"
       orientation="0,1"
       id="guide2736"
       inkscape:locked="false" />
    <sodipodi:guide
       position="-48.866128,15.152288"
       orientation="0,1"
       id="guide2738"
       inkscape:locked="false" />
  </sodipodi:namedview>
  <metadata
     id="metadata6176">
    <rdf:RDF>
      <cc:Work
         rdf:about="">
        <dc:format>image/svg+xml</dc:format>
        <dc:type
           rdf:resource="http://purl.org/dc/dcmitype/StillImage" />
        <dc:title></dc:title>
      </cc:Work>
    </rdf:RDF>
  </metadata>
  <g
     inkscape:label="Livello 1"
     inkscape:groupmode="layer"
     id="layer1"
     transform="translate(0,-997.36222)">
    <g
       id="g6741"
       transform="matrix(0.55468364,0,0,0.55,-98.42275,887.63442)">
      <path
         style="display:inline;fill:url(#linearGradient6317);fill-rule:evenodd;stroke:none;stroke-width:1px;stroke-linecap:butt;stroke-linejoin:miter;stroke-opacity:1"
         d="m 177.43943,199.50506 v 100 h 99.15562 l -24.1485,-50 24.1485,-50 z"
         id="path5956"
         inkscape:connector-curvature="0"
         sodipodi:nodetypes="cccccc" />
      <g
         style="display:inline"
         id="g5958"
         transform="rotate(-45,3733.9196,3370.6334)" />
    </g>
    <g
       id="g2730"
       transform="matrix(0.04837262,0,0,0.04837262,8.5862967,1012.5874)"
       style="stroke-width:20.68796539;fill:#f9ede7;fill-opacity:1">
      <g
         id="g2672"
         style="stroke-width:20.68796539;fill:#f9ede7;fill-opacity:1">
	<g
   id="g2670"
   style="stroke-width:20.68796539;fill:#f9ede7;fill-opacity:1">
		<path
   id="path2666"
   d="m 49.106,178.729 c 6.472,4.567 25.981,18.131 58.528,40.685 32.548,22.554 57.482,39.92 74.803,52.099 1.903,1.335 5.946,4.237 12.131,8.71 6.186,4.476 11.326,8.093 15.416,10.852 4.093,2.758 9.041,5.852 14.849,9.277 5.806,3.422 11.279,5.996 16.418,7.7 5.14,1.718 9.898,2.569 14.275,2.569 h 0.287 0.288 c 4.377,0 9.137,-0.852 14.277,-2.569 5.137,-1.704 10.615,-4.281 16.416,-7.7 5.804,-3.429 10.752,-6.52 14.845,-9.277 4.093,-2.759 9.229,-6.376 15.417,-10.852 6.184,-4.477 10.232,-7.375 12.135,-8.71 17.508,-12.179 62.051,-43.11 133.615,-92.79 13.894,-9.703 25.502,-21.411 34.827,-35.116 9.332,-13.699 13.993,-28.07 13.993,-43.105 0,-12.564 -4.523,-23.319 -13.565,-32.264 C 489.02,59.291 478.312,54.82 465.944,54.82 H 45.679 C 31.024,54.82 19.746,59.768 11.847,69.664 3.949,79.562 0,91.934 0,106.779 c 0,11.991 5.236,24.985 15.703,38.974 10.466,13.99 21.604,24.983 33.403,32.976 z"
   inkscape:connector-curvature="0"
   style="fill:#f9ede7;stroke-width:20.68796539;fill-opacity:1" />

		<path
   id="path2668"
   d="m 483.072,209.275 c -62.424,42.251 -109.824,75.087 -142.177,98.501 -10.849,7.991 -19.65,14.229 -26.409,18.699 -6.759,4.473 -15.748,9.041 -26.98,13.702 -11.228,4.668 -21.692,6.995 -31.401,6.995 h -0.291 -0.287 c -9.707,0 -20.177,-2.327 -31.405,-6.995 -11.228,-4.661 -20.223,-9.229 -26.98,-13.702 -6.755,-4.47 -15.559,-10.708 -26.407,-18.699 C 145.038,288.934 97.74,256.096 28.839,209.275 17.987,202.047 8.375,193.762 0,184.437 v 226.685 c 0,12.57 4.471,23.319 13.418,32.265 8.945,8.949 19.701,13.422 32.264,13.422 h 420.266 c 12.56,0 23.315,-4.473 32.261,-13.422 8.949,-8.949 13.418,-19.694 13.418,-32.265 V 184.437 c -8.186,9.132 -17.7,17.417 -28.555,24.838 z"
   inkscape:connector-curvature="0"
   style="fill:#f9ede7;stroke-width:20.68796539;fill-opacity:1" />

	</g>

</g>
      <g
         id="g2674"
         style="stroke-width:20.68796539;fill:#f9ede7;fill-opacity:1">
</g>
      <g
         id="g2676"
         style="stroke-width:20.68796539;fill:#f9ede7;fill-opacity:1">
</g>
      <g
         id="g2678"
         style="stroke-width:20.68796539;fill:#f9ede7;fill-opacity:1">
</g>
      <g
         id="g2680"
         style="stroke-width:20.68796539;fill:#f9ede7;fill-opacity:1">
</g>
      <g
         id="g2682"
         style="stroke-width:20.68796539;fill:#f9ede7;fill-opacity:1">
</g>
      <g
         id="g2684"
         style="stroke-width:20.68796539;fill:#f9ede7;fill-opacity:1">
</g>
      <g
         id="g2686"
         style="stroke-width:20.68796539;fill:#f9ede7;fill-opacity:1">
</g>
      <g
         id="g2688"
         style="stroke-width:20.68796539;fill:#f9ede7;fill-opacity:1">
</g>
      <g
         id="g2690"
         style="stroke-width:20.68796539;fill:#f9ede7;fill-opacity:1">
</g>
      <g
         id="g2692"
         style="stroke-width:20.68796539;fill:#f9ede7;fill-opacity:1">
</g>
      <g
         id="g2694"
         style="stroke-width:20.68796539;fill:#f9ede7;fill-opacity:1">
</g>
      <g
         id="g2696"
         style="stroke-width:20.68796539;fill:#f9ede7;fill-opacity:1">
</g>
      <g
         id="g2698"
         style="stroke-width:20.68796539;fill:#f9ede7;fill-opacity:1">
</g>
      <g
         id="g2700"
         style="stroke-width:20.68796539;fill:#f9ede7;fill-opacity:1">
</g>
      <g
         id="g2702"
         style="stroke-width:20.68796539;fill:#f9ede7;fill-opacity:1">
</g>
    </g>
  </g>
</svg>
