<?xml version="1.0" encoding="utf-8"?>
<!-- Generator: Adobe Illustrator 21.0.1, SVG Export Plug-In . SVG Version: 6.00 Build 0)  -->
<svg version="1.1"
	 id="svg6171" inkscape:version="0.91 r13725" sodipodi:docname="flag-close.svg" xmlns:inkscape="http://www.inkscape.org/namespaces/inkscape" xmlns:sodipodi="http://sodipodi.sourceforge.net/DTD/sodipodi-0.dtd"
	 xmlns="http://www.w3.org/2000/svg"  x="0px" y="0px" viewBox="0 0 30 53"
	 style="enable-background:new 0 0 30 53;" xml:space="preserve">
<style type="text/css">
	.st0{fill:url(#path5956_1_);}
	.st1{display:none;fill:url(#path3907_1_);}
	.st2{fill:#F9EDE7;}
	.st3{fill:url(#SVGID_1_);}
</style>
<sodipodi:namedview  bordercolor="#666666" borderopacity="1.0" id="base" inkscape:current-layer="layer1" inkscape:cx="34.29188" inkscape:cy="7.3401636" inkscape:document-units="px" inkscape:pageopacity="0.0" inkscape:pageshadow="2" inkscape:window-height="1001" inkscape:window-maximized="1" inkscape:window-width="1920" inkscape:window-x="1271" inkscape:window-y="368" inkscape:zoom="7.9195959" pagecolor="#ffffff" showgrid="false" units="px">
	</sodipodi:namedview>
<linearGradient id="path5956_1_" gradientUnits="userSpaceOnUse" x1="-23205.8223" y1="3305.5989" x2="-23204.9141" y2="3305.5989" gradientTransform="matrix(4.041947e-17 0.6601 1.3925 -8.526604e-17 -4588.0464 172082.875)">
	<stop  offset="0" style="stop-color:#145C9E"/>
	<stop  offset="1" style="stop-color:#000000"/>
</linearGradient>
<path id="path5956" inkscape:connector-curvature="0" sodipodi:nodetypes="cccccc" class="st0" d="M30,3H0v50l15-12.2L30,53V3z"/>
<linearGradient id="path3907_1_" gradientUnits="userSpaceOnUse" x1="-728.298" y1="-5925.2485" x2="-727.298" y2="-5925.2485" gradientTransform="matrix(0 21.9364 5.9581 0 35329.125 374097.5938)">
	<stop  offset="0" style="stop-color:#0A3C6B"/>
	<stop  offset="1" style="stop-color:#000000"/>
</linearGradient>
<path id="path3907" inkscape:connector-curvature="0" sodipodi:nodetypes="cccccc" class="st1" d="M75.9-56.2h-100
	c0,40.2,0,82.1,0,122.3l50-24.1l50,24.1C75.9,25.9,75.9-16,75.9-56.2z"/>
<g id="g3949" transform="matrix(0.09765606,0,0,0.09765606,1498.1081,20.02171)">
	<g id="g3917">
		<g id="g3915">
			<g id="g3913">
				<path id="path3909" inkscape:connector-curvature="0" class="st2" d="M-15099.1-0.6c-0.4-0.9-0.9-1.7-1.6-2.4l-22.1-22.1
					c-2.9-2.9-7.6-2.9-10.4,0c-2.9,2.9-2.9,7.6,0,10.4l9.5,9.5h-41.2c-4.1,0-7.4,3.3-7.4,7.4s3.3,7.4,7.4,7.4h41.2l-9.5,9.5
					c-2.9,2.9-2.9,7.6,0,10.4c1.4,1.4,3.3,2.2,5.2,2.2s3.8-0.7,5.2-2.2l22.1-22.1c0.7-0.7,1.2-1.5,1.6-2.4
					C-15098.3,3.2-15098.3,1.2-15099.1-0.6z"/>
				<path id="path3911" inkscape:connector-curvature="0" class="st2" d="M-15150.2,24.3c-4.1,0-7.4,3.3-7.4,7.4v36.9h-29.5V-49.5
					c0-3.3-2.1-6.1-5.3-7.1l-25.6-7.7h60.4v36.9c0,4.1,3.3,7.4,7.4,7.4s7.4-3.3,7.4-7.4v-44.3c0-4.1-3.3-7.4-7.4-7.4h-118.1
					c-0.3,0-0.5,0.1-0.8,0.1s-0.7,0.1-1,0.2c-0.8,0.2-1.5,0.5-2.1,0.9c-0.2,0.1-0.4,0.1-0.5,0.2c-0.1,0-0.1,0.1-0.1,0.2
					c-0.8,0.6-1.5,1.4-2,2.3c-0.1,0.2-0.1,0.4-0.2,0.6c-0.2,0.6-0.5,1.1-0.6,1.7c0,0.2,0,0.4,0,0.6c0,0.1-0.1,0.3-0.1,0.4V76
					c0,3.5,2.5,6.5,5.9,7.2l73.8,14.8c0.5,0.1,1,0.1,1.4,0.1c1.7,0,3.4-0.6,4.7-1.7c1.7-1.4,2.7-3.5,2.7-5.7v-7.4h36.9
					c4.1,0,7.4-3.3,7.4-7.4V31.7C-15142.8,27.7-15146.1,24.3-15150.2,24.3z"/>
			</g>
		</g>
	</g>
	<g id="g3919">
	</g>
	<g id="g3921">
	</g>
	<g id="g3923">
	</g>
	<g id="g3925">
	</g>
	<g id="g3927">
	</g>
	<g id="g3929">
	</g>
	<g id="g3931">
	</g>
	<g id="g3933">
	</g>
	<g id="g3935">
	</g>
	<g id="g3937">
	</g>
	<g id="g3939">
	</g>
	<g id="g3941">
	</g>
	<g id="g3943">
	</g>
	<g id="g3945">
	</g>
	<g id="g3947">
	</g>
</g>
<linearGradient id="SVGID_1_" gradientUnits="userSpaceOnUse" x1="15" y1="10845.5752" x2="15" y2="10845.6152" gradientTransform="matrix(1 0 0 1 0 -457)">
	<stop  offset="0" style="stop-color:#145C9E"/>
	<stop  offset="1" style="stop-color:#000000"/>
</linearGradient>
<rect x="0" y="0" class="st3" width="30" height="3.3"/>
</svg>
