<?xml version="1.0" encoding="utf-8"?>
<!-- Generator: Adobe Illustrator 21.0.1, SVG Export Plug-In . SVG Version: 6.00 Build 0)  -->
<svg version="1.1"
	 id="svg6171" inkscape:version="0.91 r13725" sodipodi:docname="flag-close.svg" xmlns:inkscape="http://www.inkscape.org/namespaces/inkscape" xmlns:sodipodi="http://sodipodi.sourceforge.net/DTD/sodipodi-0.dtd"
	 xmlns="http://www.w3.org/2000/svg"  x="0px" y="0px" viewBox="0 0 55 55"
	 style="enable-background:new 0 0 55 55;" xml:space="preserve">
<style type="text/css">
	.st0{fill:url(#path5956_1_);}
	.st1{fill:#F9EDE7;}
</style>
<sodipodi:namedview  bordercolor="#666666" borderopacity="1.0" id="base" inkscape:current-layer="layer1" inkscape:cx="34.29188" inkscape:cy="7.3401636" inkscape:document-units="px" inkscape:pageopacity="0.0" inkscape:pageshadow="2" inkscape:window-height="1001" inkscape:window-maximized="1" inkscape:window-width="1920" inkscape:window-x="1271" inkscape:window-y="368" inkscape:zoom="7.9195959" pagecolor="#ffffff" showgrid="false" units="px">
	</sodipodi:namedview>
<linearGradient id="path5956_1_" gradientUnits="userSpaceOnUse" x1="234.7883" y1="-2504.5432" x2="235.7883" y2="-2504.5432" gradientTransform="matrix(4.041947e-17 0.6601 -1.3925 8.526604e-17 -3460.0764 172444.3594)">
	<stop  offset="0" style="stop-color:#145C9E"/>
	<stop  offset="1" style="stop-color:#000000"/>
</linearGradient>
<path id="path5956" inkscape:connector-curvature="0" sodipodi:nodetypes="cccccc" class="st0" d="M55,0H0v55l27.5-13.4L55,55V0z"/>
<g>
	<g>
		<g>
			<g>
				<circle class="st1" cx="27.6" cy="9.8" r="2.1"/>
				<path class="st1" d="M28.4,12.3L28.4,12.3h-1.6c-1.6,0-2.8,1.3-2.8,2.9l0,0v0.4c0,0.2,0.1,0.5,0.3,0.5h6.5
					c0.2,0,0.3-0.2,0.3-0.5v-0.4C31.2,13.7,30,12.4,28.4,12.3z"/>
				<path class="st1" d="M18.7,21.3c0.2,0,0.4-0.2,0.4-0.4c0-2.6,1.2-5,3.2-6.6c0.2-0.1,0.2-0.4,0.1-0.5l0,0
					c-0.1-0.2-0.4-0.2-0.6-0.1c-2.2,1.8-3.5,4.4-3.5,7.2C18.3,21.1,18.5,21.3,18.7,21.3z"/>
				<path class="st1" d="M30.3,29L30.3,29c-1.7,0.6-3.6,0.6-5.4,0c-0.2-0.1-0.4,0-0.5,0.3l0,0c-0.1,0.2,0.1,0.4,0.3,0.5
					c0.9,0.3,1.9,0.5,2.9,0.5s2-0.2,3-0.5c0.2-0.1,0.3-0.4,0.2-0.6C30.7,29,30.5,28.9,30.3,29z"/>
				<path class="st1" d="M32.5,14L32.5,14c2.2,1.6,3.6,4.2,3.6,6.9c0,0.2,0.2,0.4,0.4,0.4s0.4-0.2,0.4-0.4c0-3-1.5-5.9-3.9-7.6
					c-0.2-0.1-0.4-0.1-0.6,0.1C32.3,13.6,32.3,13.9,32.5,14z"/>
				<circle class="st1" cx="19.4" cy="24.8" r="2.1"/>
				<path class="st1" d="M20.2,27.3L20.2,27.3h-1.6c-1.6,0-2.8,1.3-2.8,2.9l0,0v0.4c0,0.2,0.1,0.5,0.3,0.5h6.5
					c0.2,0,0.3-0.2,0.3-0.5v-0.3C23,28.7,21.8,27.4,20.2,27.3z"/>
				<circle class="st1" cx="35.8" cy="24.8" r="2.1"/>
				<path class="st1" d="M36.6,27.3L36.6,27.3H35c-1.6,0-2.8,1.3-2.8,2.9l0,0v0.4c0,0.2,0.1,0.5,0.3,0.5H39c0.2,0,0.3-0.2,0.3-0.5
					v-0.3C39.4,28.7,38.2,27.4,36.6,27.3z"/>
			</g>
		</g>
	</g>
</g>
</svg>
