<?xml version="1.0" encoding="utf-8"?>
<!-- Generator: Adobe Illustrator 21.0.1, SVG Export Plug-In . SVG Version: 6.00 Build 0)  -->
<svg version="1.1"
     id="svg871" inkscape:version="0.92.3 (2405546, 2018-03-11)" sodipodi:docname="camera.svg"
     xmlns:inkscape="http://www.inkscape.org/namespaces/inkscape"
     xmlns:sodipodi="http://sodipodi.sourceforge.net/DTD/sodipodi-0.dtd"
     xmlns="http://www.w3.org/2000/svg" x="0px" y="0px" viewBox="0 0 102 16.9"
     style="enable-background:new 0 0 102 16.9;" xml:space="preserve">
<style type="text/css">
	.st0{fill:#242424;}
	.st1{fill:#001541;}
	.st2{fill:url(#circle5147_1_);}
	.st3{fill:none;stroke:#000000;stroke-width:0.2;stroke-linecap:round;stroke-linejoin:round;}
	.st4{fill:#111111;stroke:#000000;stroke-width:0.3;stroke-linecap:round;stroke-linejoin:round;}
</style>
<sodipodi:namedview  bordercolor="#666666" borderopacity="1.0" id="base" inkscape:current-layer="layer1" inkscape:cx="-20.98471" inkscape:cy="85.60087" inkscape:document-units="mm" inkscape:pageopacity="0.0" inkscape:pageshadow="2" inkscape:window-height="1001" inkscape:window-maximized="1" inkscape:window-width="1920" inkscape:window-x="-9" inkscape:window-y="-9" inkscape:zoom="2.8" pagecolor="#ffffff" showgrid="false">
	</sodipodi:namedview>
<g id="layer1" transform="translate(-43.133989,-115.7234)" inkscape:groupmode="layer" inkscape:label="Livello 1">
	<g id="g844" transform="translate(-78.033618,29.181907)">
		<g id="g5190" transform="translate(-2.3841859e-7,1.8820132)">
			<circle id="path5145" class="st0" cx="129.8" cy="93.1" r="8.4"/>
			<circle id="path5164" class="st1" cx="129.7" cy="92.9" r="5.8"/>
			
				<linearGradient id="circle5147_1_" gradientUnits="userSpaceOnUse" x1="164.1924" y1="154.3848" x2="175.9523" y2="143.8276" gradientTransform="matrix(0 1.8628 1.8628 0 -142.9764 -229.3117)">
				<stop  offset="0" style="stop-color:#525252"/>
				<stop  offset="1" style="stop-color:#939393;stop-opacity:0"/>
			</linearGradient>
			<path id="circle5147" inkscape:connector-curvature="0" class="st2" d="M129.8,100.6c-4.2,0-7.6-3.4-7.6-7.6
				c0-4.2,3.4-7.6,7.6-7.6c4.2,0,7.6,3.4,7.6,7.6c0,0,0,0,0,0C137.4,97.2,134,100.6,129.8,100.6
				C129.8,100.6,129.8,100.6,129.8,100.6z"/>
			<circle id="circle5160" class="st3" cx="129.8" cy="93.1" r="7.7"/>
		</g>
		<path id="rect5174" class="st4" d="M223,95.2L223,95.2c0,2.8-2.2,5-5,5h-63.5c-2.8,0-5-2.2-5-5l0,0c0-2.8,2.2-5,5-5h63.5
			C220.7,90.2,223,92.4,223,95.2z"/>
	</g>
</g>
</svg>
