<?xml version="1.0" encoding="UTF-8" standalone="no"?>
<!-- Created with Inkscape (http://www.inkscape.org/) -->

<svg
    xmlns:osb="http://www.openswatchbook.org/uri/2009/osb"
    xmlns:dc="http://purl.org/dc/elements/1.1/"
    xmlns:cc="http://creativecommons.org/ns#"
    xmlns:rdf="http://www.w3.org/1999/02/22-rdf-syntax-ns#"
    xmlns="http://www.w3.org/2000/svg"
    xmlns:sodipodi="http://sodipodi.sourceforge.net/DTD/sodipodi-0.dtd"
    xmlns:inkscape="http://www.inkscape.org/namespaces/inkscape"
    width="21.695833mm"
    height="21.695833mm"
    viewBox="0 0 21.695832 21.695834"
    version="1.1"
    id="svg9926"
    inkscape:version="0.92.3 (2405546, 2018-03-11)"
    sodipodi:docname="ic_admin_permission_off.svg">
  <defs
     id="defs9920">
    <linearGradient
       id="linearGradient6323"
       osb:paint="solid"
       gradientTransform="matrix(0.04744828,0,0,0.02031036,522.36826,225.31042)">
      <stop
         style="stop-color:#0a3c6b;stop-opacity:1;"
         offset="0"
         id="stop6325" />
    </linearGradient>
    <linearGradient
       id="linearGradient11444"
       osb:paint="solid"
       gradientTransform="translate(2986.8155,905.15899)">
      <stop
         style="stop-color:#ffffff;stop-opacity:1;"
         offset="0"
         id="stop11446" />
    </linearGradient>
  </defs>
  <sodipodi:namedview
     id="base"
     pagecolor="#ffffff"
     bordercolor="#666666"
     borderopacity="1.0"
     inkscape:pageopacity="0.0"
     inkscape:pageshadow="2"
     inkscape:zoom="2.8"
     inkscape:cx="-24.220938"
     inkscape:cy="54.512344"
     inkscape:document-units="mm"
     inkscape:current-layer="layer1"
     showgrid="false"
     inkscape:window-width="1920"
     inkscape:window-height="1001"
     inkscape:window-x="-9"
     inkscape:window-y="-9"
     inkscape:window-maximized="1" />
  <metadata
     id="metadata9923">
    <rdf:RDF>
      <cc:Work
         rdf:about="">
        <dc:format>image/svg+xml</dc:format>
        <dc:type
           rdf:resource="http://purl.org/dc/dcmitype/StillImage" />
        <dc:title></dc:title>
      </cc:Work>
    </rdf:RDF>
  </metadata>
  <g
     inkscape:label="Livello 1"
     inkscape:groupmode="layer"
     id="layer1"
     transform="translate(-66.448053,-103.80691)">
    <path
       sodipodi:nodetypes="cscccsscccccccssssccsscccccccccccsssscccccc"
       inkscape:connector-curvature="0"
       id="path1312"
       d="m 77.296506,106.5129 c -0.45974,0 -0.832776,0.3729 -0.832776,0.83277 0,0.36825 0.239236,0.67985 0.570732,0.78963 -0.577876,0.9675 -1.861899,0.73892 -2.693749,0.45828 0.04088,-0.0984 0.06369,-0.20614 0.06371,-0.31935 0,-0.4599 -0.373036,-0.8328 -0.832776,-0.8328 -0.459846,0 -0.832379,0.3729 -0.832379,0.8328 0,0.45987 0.372533,0.83238 0.832379,0.83235 0.05297,0 0.104828,-0.006 0.155151,-0.0151 l 0.677625,0.85913 v 0.90376 h 5.784162 v -0.86955 l 0.683604,-0.89247 c 0.04829,0.009 0.09821,0.014 0.149198,0.014 0.459926,0 0.832379,-0.37248 0.832379,-0.83238 0,-0.45988 -0.373036,-0.83278 -0.832802,-0.83278 -0.459766,0 -0.832379,0.37288 -0.832379,0.83278 0,0.1421 0.03582,0.2758 0.09834,0.39288 -1.63904,0.74236 -2.390563,0.0914 -2.727933,-0.53182 0.331258,-0.11006 0.569886,-0.42172 0.569886,-0.78959 0,-0.45987 -0.832379,-1.29254 -0.832379,-0.8328 z m -2.892081,4.73149 -0.0889,0.98348 c -0.08996,0.19942 -0.118348,0.63185 -0.119274,1.06942 0,1.7127 1.388427,3.10113 3.101128,3.10113 1.712727,0 3.101155,-1.38843 3.101155,-3.10113 -0.0026,-0.43767 -0.02691,-0.87011 -0.117131,-1.06947 l -0.09192,-0.98343 z m 1.734396,5.89833 c -2.374556,0.0446 -4.26331,2.00572 -4.218675,4.38025 v 0.044 0.66138 c 0,0.33081 0.124196,0.70281 0.496358,0.70281 h 9.757887 c 0.372136,0 0.496331,-0.372 0.496331,-0.70281 v -0.66138 c 0.0689,-2.3736 -1.798981,-4.35404 -4.172479,-4.42341 v 0 c -0.01455,0 -0.02884,0 -0.04318,0 z"
       style="display:inline;fill:url(#linearGradient6323);stroke:none;stroke-width:0.07895052;stroke-miterlimit:4;stroke-dasharray:none;stroke-opacity:1" />
  </g>
</svg>
