<svg height="512pt" viewBox="-3 0 512 512.00023" width="512pt" xmlns="http://www.w3.org/2000/svg"><path d="m258.902344 0-65.605469 87.472656 43.738281 87.476563h43.734375l43.738281-87.476563zm0 0" fill="#a8d6da"/><path d="m258.902344 185.882812c-6.039063 0-10.933594-4.894531-10.933594-10.933593v-65.605469c0-6.039062 4.894531-10.933594 10.933594-10.933594 6.039062 0 10.933594 4.894532 10.933594 10.933594v65.605469c0 6.039062-4.894532 10.933593-10.933594 10.933593zm0 0" fill="#6fbbc6"/><path d="m280.769531 98.410156c0 12.078125-9.789062 21.867188-21.867187 21.867188s-21.867188-9.789063-21.867188-21.867188 9.789063-21.871094 21.867188-21.871094 21.867187 9.792969 21.867187 21.871094zm0 0" fill="#6fbbc6"/><path d="m215.164062 240.554688 10.933594 10.933593h65.605469l10.9375-10.933593-21.871094-65.605469h-43.734375zm0 0" fill="#da922a"/><path d="m53.925781 234.945312 19.09375 5.609376 54.671875-32.804688-.710937-20.9375-42.328125-24.492188-18.050782-27.390624-36.523437 24.066406 18.054687 27.390625zm0 0" fill="#b9b9b9"/><path d="m30.078125 158.996094 36.523437-24.066406-24.054687-36.519532-42.546875 14.933594zm0 0" fill="#ffb1b5"/><path d="m282.929688 503.074219c-20.167969 13.292969-47.292969 7.710937-60.585938-12.457031l-168.441406-255.660157 73.046875-48.125 168.441406 255.65625c13.289063 20.171875 7.710937 47.296875-12.460937 60.585938zm0 0" fill="#a8a8a8"/><path d="m215.164062 240.554688h87.476563v218.6875c0 24.152343-19.582031 43.734374-43.738281 43.734374s-43.738282-19.582031-43.738282-43.734374zm0 0" fill="#fbb540"/><path d="m336.777344 254.367188 31.457031-52.175782 74.910156 45.164063-31.453125 52.175781zm0 0" fill="#744630"/><path d="m501.644531 65.605469-84.742187 39.933593c-14.488282 6.824219-26.632813 17.785157-34.902344 31.5-6.503906 10.785157-10.410156 22.9375-11.402344 35.492188l-2.351562 29.675781 74.910156 45.171875 25.148438-15.921875c10.640624-6.738281 19.566406-15.859375 26.066406-26.648437 8.277344-13.710938 12.304687-29.570313 11.570312-45.574219zm0 0" fill="#d9d9d9"/><path d="m503.722656 110.566406-40.65625 9.085938c-24.644531 6.019531-43.726562 25.527344-49.203125 50.300781-1.316406 5.890625 2.386719 11.734375 8.277344 13.054687.785156.179688 1.589844.273438 2.394531.273438 5.117188-.003906 9.546875-3.558594 10.660156-8.550781 3.648438-16.585938 16.378907-29.671875 32.859376-33.777344l36.640624-8.199219zm0 0" fill="#b9b9b9"/><path d="m340.007812 249.03125 74.914063 45.164062-118.5625 196.644532c-12.472656 20.6875-39.351563 27.34375-60.039063 14.871094-20.6875-12.472657-27.34375-39.351563-14.871093-60.039063 0 0 118.558593-196.640625 118.558593-196.640625zm0 0" fill="#8f563b"/></svg>