<svg height="496pt" viewBox="0 0 496 496" width="496pt" xmlns="http://www.w3.org/2000/svg"><path d="m496 358.207031v-60.421875l-29.832031-7.640625c-2.335938-7.558593-5.359375-14.863281-9.007813-21.792969l15.6875-26.480468-42.726562-42.726563-26.480469 15.6875c-6.921875-3.648437-14.226563-6.671875-21.792969-9.007812l-7.640625-29.824219h-60.421875l-7.640625 29.832031c-7.558593 2.335938-14.863281 5.359375-21.800781 9.007813l-18.390625-10.894532-3.472656-.761718-7.320313 92.816406h6.9375c12.804688-32.761719 44.605469-56 81.910156-56 48.601563 0 88 39.398438 88 88s-39.398437 88-88 88c-37.296874 0-69.097656-23.238281-81.910156-56h-11.984375l-6.519531 82.550781 14.292969 14.296875 26.480469-15.6875c6.921874 3.648438 14.226562 6.671875 21.792968 9.007813l7.632813 29.832031h60.421875l7.640625-29.832031c7.558593-2.335938 14.863281-5.359375 21.792969-9.007813l26.480468 15.6875 42.726563-42.726562-15.6875-26.480469c3.648437-6.921875 6.671875-14.226563 9.007812-21.792969zm0 0" fill="#f0bc5e"/><path d="m176 360-56-32 56-32h49.910156c-12.804687-32.761719-44.605468-56-81.910156-56-48.601562 0-88 39.398438-88 88s39.398438 88 88 88c37.296875 0 69.097656-23.238281 81.910156-56zm0 0" fill="#f0bc5e"/><path d="m368 368c22.054688 0 40-17.945312 40-40s-17.945312-40-40-40h-104.183594l7.582032-96h16.601562v-24c0-22.054688-17.945312-40-40-40h-75.976562l22.214843-80h109.761719v-48h-146.238281l-35.5625 128h-82.199219c-22.054688 0-40 17.945312-40 40v24h16.609375l21.085937 267.144531c1.632813 20.671875 19.144532 36.855469 39.871094 36.855469h132.859375c20.726563 0 38.238281-16.183594 39.871094-36.847656l7.199219-91.152344zm-40-64h16v48h-16zm-16 16h-128v-16h128zm-144 26.214844-31.871094-18.214844 31.871094-18.214844zm16-10.214844h128v16h-128zm208-8c0 13.230469-10.769531 24-24 24h-8v-48h8c13.230469 0 24 10.769531 24 24zm-222.089844-312h118.089844v16h-105.910156l-26.683594 96h-16.597656zm-153.910156 152c0-13.230469 10.769531-24 24-24h208c13.230469 0 24 10.769531 24 24v8h-256zm218.351562 289.886719c-.976562 12.402343-11.488281 22.113281-23.917968 22.113281h-132.867188c-12.4375 0-22.941406-9.710938-23.917968-22.121094l-20.992188-265.878906h222.679688l-7.574219 96h-73.890625l-70 40 70 40h67.570312zm0 0"/><path d="m72 328c0-39.703125 32.296875-72 72-72 20.089844 0 38.726562 8.0625 52.496094 22.710938l11.65625-10.949219c-16.578125-17.640625-39.960938-27.761719-64.152344-27.761719-48.519531 0-88 39.480469-88 88s39.480469 88 88 88c23.640625 0 45.824219-9.238281 62.464844-26.015625l-11.359375-11.265625c-13.617188 13.730469-31.769531 21.28125-51.105469 21.28125-39.703125 0-72-32.296875-72-72zm0 0"/><path d="m344 232c-24.878906 0-48.480469 9.488281-66.441406 26.703125l11.082031 11.542969c14.960937-14.351563 34.625-22.246094 55.359375-22.246094 44.113281 0 80 35.886719 80 80s-35.886719 80-80 80c-19.992188 0-39.121094-7.40625-53.863281-20.855469l-10.785157 11.832031c17.703126 16.136719 40.65625 25.023438 64.648438 25.023438 52.9375 0 96-43.0625 96-96s-43.0625-96-96-96zm0 0"/></svg>