<?xml version="1.0" encoding="UTF-8" standalone="no"?>
<!-- Created with Inkscape (http://www.inkscape.org/) -->

<svg
    xmlns:osb="http://www.openswatchbook.org/uri/2009/osb"
    xmlns:dc="http://purl.org/dc/elements/1.1/"
    xmlns:cc="http://creativecommons.org/ns#"
    xmlns:rdf="http://www.w3.org/1999/02/22-rdf-syntax-ns#"
    xmlns="http://www.w3.org/2000/svg"
    xmlns:sodipodi="http://sodipodi.sourceforge.net/DTD/sodipodi-0.dtd"
    xmlns:inkscape="http://www.inkscape.org/namespaces/inkscape"
    width="21.695833mm"
    height="21.695833mm"
    viewBox="0 0 21.695832 21.695834"
    version="1.1"
    id="svg9926"
    inkscape:version="0.92.3 (2405546, 2018-03-11)"
    sodipodi:docname="ic_ham_permission_on.svg">
  <defs
     id="defs9920">
    <linearGradient
       id="linearGradient6323"
       osb:paint="solid"
       gradientTransform="matrix(0.17933208,0,0,0.07676357,1702.484,449.50634)">
      <stop
         style="stop-color:#0a3c6b;stop-opacity:1;"
         offset="0"
         id="stop6325" />
    </linearGradient>
    <linearGradient
       id="linearGradient11444"
       osb:paint="solid"
       gradientTransform="translate(2986.8155,905.15899)">
      <stop
         style="stop-color:#ffffff;stop-opacity:1;"
         offset="0"
         id="stop11446" />
    </linearGradient>
  </defs>
  <sodipodi:namedview
     id="base"
     pagecolor="#ffffff"
     bordercolor="#666666"
     borderopacity="1.0"
     inkscape:pageopacity="0.0"
     inkscape:pageshadow="2"
     inkscape:zoom="2.8"
     inkscape:cx="-34.935223"
     inkscape:cy="50.940916"
     inkscape:document-units="mm"
     inkscape:current-layer="layer1"
     showgrid="false"
     inkscape:window-width="1920"
     inkscape:window-height="1001"
     inkscape:window-x="-9"
     inkscape:window-y="-9"
     inkscape:window-maximized="1" />
  <metadata
     id="metadata9923">
    <rdf:RDF>
      <cc:Work
         rdf:about="">
        <dc:format>image/svg+xml</dc:format>
        <dc:type
           rdf:resource="http://purl.org/dc/dcmitype/StillImage" />
        <dc:title></dc:title>
      </cc:Work>
    </rdf:RDF>
  </metadata>
  <g
     inkscape:label="Livello 1"
     inkscape:groupmode="layer"
     id="layer1"
     transform="translate(-66.448053,-103.80691)">
    <g
       style="display:inline"
       id="g2766"
       transform="matrix(0.26458333,0,0,0.26458333,-305.34669,-96.231652)">
      <circle
         r="41"
         cy="797.05127"
         cx="1446.2085"
         id="circle2656"
         style="opacity:1;fill:url(#linearGradient6323);fill-opacity:1;fill-rule:evenodd;stroke:none;stroke-width:4.5156498;stroke-linecap:round;stroke-linejoin:miter;stroke-miterlimit:4;stroke-dasharray:none;stroke-dashoffset:0;stroke-opacity:1" />
      <g
         style="display:inline;opacity:0.97000002;fill:url(#linearGradient11444);fill-opacity:1;stroke:none;stroke-opacity:1"
         transform="matrix(0.53069335,-0.53069335,0.53069335,0.53069335,1415.4264,794.63519)"
         id="g2716">
        <g
           style="fill:url(#linearGradient11444);fill-opacity:1;stroke:none;stroke-opacity:1"
           id="g2684">
          <path
             style="fill:url(#linearGradient11444);fill-opacity:1;stroke:none;stroke-opacity:1"
             inkscape:connector-curvature="0"
             d="m 39.338,7.422 -0.105,0.03 c 0.85,1.506 2.392,3.767 4.973,6.347 2.581,2.581 4.84,4.123 6.282,4.963 l 0.044,0.018 c 0.013,0 0.044,-0.019 0.061,-0.048 C 49.743,17.225 48.2,14.965 45.62,12.385 43.04,9.805 40.78,8.262 39.338,7.422 Z"
             id="path2678" />
          <path
             style="fill:url(#linearGradient11444);fill-opacity:1;stroke:none;stroke-opacity:1"
             inkscape:connector-curvature="0"
             d="M 49.862,8.142 C 44.919,3.2 39.402,0.006 35.805,0.006 c -1.226,0 -2.207,0.358 -2.914,1.065 -1.449,1.449 -1.41,4.089 0.11,7.435 1.384,3.044 3.856,6.431 6.96,9.535 4.942,4.943 10.46,8.137 14.057,8.137 1.226,0 2.207,-0.358 2.914,-1.065 3.216,-3.216 -1.243,-11.143 -7.07,-16.971 z m 2.465,11.586 c -0.373,0.649 -1.061,1.052 -1.795,1.052 -0.362,0 -0.726,-0.1 -1.051,-0.289 C 47.938,19.592 45.524,17.946 42.792,15.214 40.06,12.482 38.415,10.068 37.515,8.525 37.136,7.874 37.129,7.1 37.499,6.457 38.056,5.488 39.36,5.122 40.345,5.695 c 1.544,0.899 3.958,2.546 6.689,5.277 2.731,2.731 4.377,5.146 5.276,6.688 0.38,0.652 0.387,1.425 0.017,2.068 z"
             id="path2680" />
          <path
             sodipodi:nodetypes="ccccccccccccccccsccc"
             style="fill:url(#linearGradient11444);fill-opacity:1;stroke:none;stroke-opacity:1"
             inkscape:connector-curvature="0"
             d="M 31.182,9.334 C 30.314,7.425 29.939,5.841 29.86,4.526 c -3.292,4.188 -6.376,9.559 -8.342,14.669 -2.309,6.003 -2.872,10.947 -1.692,14.357 l -6.407,6.407 C 11.28,42.097 8.37,43.195 5.311,43.015 4.83,42.988 4.329,43.026 3.838,43.139 c -1.83,0.418 -3.283,1.868 -3.703,3.694 -0.35,1.523 -0.003,3.086 0.953,4.285 0.743,0.934 1.771,1.558 2.913,1.788 -0.026,1.036 0.334,2.275 1.761,3.681 0.93,0.915 2.09,1.418 3.268,1.418 l 0.125,-0.001 c 2.718,-0.083 4.846,-2.278 4.846,-5.055 -0.037,-3.243 1.05,-6.136 3.059,-8.145 l 6.843,-6.842 c 1.264,0.539 2.762,0.819 4.496,0.819 7.531,0 18.023,-5.069 25.073,-10.63 C 49.346,27.878 43.699,24.604 38.551,19.455 35.279,16.186 32.663,12.591 31.182,9.334 Z"
             id="path2682" />
        </g>
        <g
           style="fill:url(#linearGradient11444);fill-opacity:1;stroke:none;stroke-opacity:1"
           id="g2686" />
        <g
           style="fill:url(#linearGradient11444);fill-opacity:1;stroke:none;stroke-opacity:1"
           id="g2688" />
        <g
           style="fill:url(#linearGradient11444);fill-opacity:1;stroke:none;stroke-opacity:1"
           id="g2690" />
        <g
           style="fill:url(#linearGradient11444);fill-opacity:1;stroke:none;stroke-opacity:1"
           id="g2692" />
        <g
           style="fill:url(#linearGradient11444);fill-opacity:1;stroke:none;stroke-opacity:1"
           id="g2694" />
        <g
           style="fill:url(#linearGradient11444);fill-opacity:1;stroke:none;stroke-opacity:1"
           id="g2696" />
        <g
           style="fill:url(#linearGradient11444);fill-opacity:1;stroke:none;stroke-opacity:1"
           id="g2698" />
        <g
           style="fill:url(#linearGradient11444);fill-opacity:1;stroke:none;stroke-opacity:1"
           id="g2700" />
        <g
           style="fill:url(#linearGradient11444);fill-opacity:1;stroke:none;stroke-opacity:1"
           id="g2702" />
        <g
           style="fill:url(#linearGradient11444);fill-opacity:1;stroke:none;stroke-opacity:1"
           id="g2704" />
        <g
           style="fill:url(#linearGradient11444);fill-opacity:1;stroke:none;stroke-opacity:1"
           id="g2706" />
        <g
           style="fill:url(#linearGradient11444);fill-opacity:1;stroke:none;stroke-opacity:1"
           id="g2708" />
        <g
           style="fill:url(#linearGradient11444);fill-opacity:1;stroke:none;stroke-opacity:1"
           id="g2710" />
        <g
           style="fill:url(#linearGradient11444);fill-opacity:1;stroke:none;stroke-opacity:1"
           id="g2712" />
        <g
           style="fill:url(#linearGradient11444);fill-opacity:1;stroke:none;stroke-opacity:1"
           id="g2714" />
      </g>
    </g>
  </g>
</svg>
