<?xml version="1.0" encoding="utf-8"?>
<!-- Generator: Adobe Illustrator 21.0.1, SVG Export Plug-In . SVG Version: 6.00 Build 0)  -->
<svg version="1.1"
     id="svg9926" inkscape:version="0.92.3 (2405546, 2018-03-11)" sodipodi:docname="ic_user_permission_on.svg"
     xmlns:inkscape="http://www.inkscape.org/namespaces/inkscape"
     xmlns:sodipodi="http://sodipodi.sourceforge.net/DTD/sodipodi-0.dtd"
     xmlns="http://www.w3.org/2000/svg" x="0px" y="0px" viewBox="0 0 61.5 61.5"
     style="enable-background:new 0 0 61.5 61.5;" xml:space="preserve">
<style type="text/css">
	.st0{display:none;fill:#FFFFFF;}
	.st1{fill:url(#circle2664_1_);}
	.st2{fill:url(#path2666_1_);}
	.st3{fill:url(#path2672_1_);}
</style>
<sodipodi:namedview  bordercolor="#666666" borderopacity="1.0" id="base" inkscape:current-layer="layer1" inkscape:cx="-24.220938" inkscape:cy="54.512344" inkscape:document-units="mm" inkscape:pageopacity="0.0" inkscape:pageshadow="2" inkscape:window-height="1001" inkscape:window-maximized="1" inkscape:window-width="1920" inkscape:window-x="-9" inkscape:window-y="-9" inkscape:zoom="2.8" pagecolor="#ffffff" showgrid="false">
	</sodipodi:namedview>
<g id="layer1" transform="translate(-66.448053,-103.80691)" inkscape:groupmode="layer" inkscape:label="Livello 1">
	<g id="g2743" transform="matrix(0.26458333,0,0,0.26458333,-282.85711,-96.231652)">
		<circle id="circle2650" class="st0" cx="1436.4" cy="872.3" r="116.2"/>
		<g id="g2732">
			<g id="g2676" transform="translate(9.103824,140.78437)">
				<g id="g2670" transform="matrix(0.29909744,0,0,0.29909744,1675.1491,632.03926)">
					<g id="g2668" transform="translate(-1300.9905)">
						
							<linearGradient id="circle2664_1_" gradientUnits="userSpaceOnUse" x1="-2585.7065" y1="14853.9219" x2="-2584.7065" y2="14853.9219" gradientTransform="matrix(17.5798 0 0 -17.5798 709337.4375 261343.75)">
							<stop  offset="0" style="stop-color:#0A3C6B"/>
							<stop  offset="1" style="stop-color:#000000"/>
						</linearGradient>
						<circle id="circle2664" class="st1" cx="483.1" cy="215.5" r="111.1"/>
						
							<linearGradient id="path2666_1_" gradientUnits="userSpaceOnUse" x1="-2653.8577" y1="14842.4199" x2="-2652.8577" y2="14842.4199" gradientTransform="matrix(30.4815 0 0 -16.4077 1231642 243986.2969)">
							<stop  offset="0" style="stop-color:#0A3C6B"/>
							<stop  offset="1" style="stop-color:#000000"/>
						</linearGradient>
						<path id="path2666" inkscape:connector-curvature="0" class="st2" d="M526.1,353.3c-0.5,0-1,0-1.6,0h-82.9
							c-85,1.6-152.7,71.8-151.1,156.9c0,0.5,0,1,0,1.6v23.7c0,11.8,4.4,25.2,17.8,25.2h349.5c13.3,0,17.8-13.3,17.8-25.2v-23.7
							C678,426.7,611.1,355.7,526.1,353.3z"/>
					</g>
				</g>
				<g id="g2674" transform="matrix(0.50576606,0,0,0.50576606,678.86244,289.26771)">
					
						<linearGradient id="path2672_1_" gradientUnits="userSpaceOnUse" x1="-236.5489" y1="9375.4229" x2="-235.5489" y2="9375.4229" gradientTransform="matrix(8.9369 0 0 -9.21 202920.4219 87211.1953)">
						<stop  offset="0" style="stop-color:#0A3C6B"/>
						<stop  offset="1" style="stop-color:#000000"/>
					</linearGradient>
					<path id="path2672" inkscape:connector-curvature="0" class="st3" d="M1334.5,858.3v10.5h27.9v29.3h11v-29.3h27.9v-10.5h-27.9
						v-29h-11v29H1334.5z"/>
				</g>
			</g>
		</g>
	</g>
</g>
</svg>
