<?xml version="1.0" encoding="UTF-8" standalone="no"?>
<!-- Created with Inkscape (http://www.inkscape.org/) -->

<svg
    xmlns:dc="http://purl.org/dc/elements/1.1/"
    xmlns:cc="http://creativecommons.org/ns#"
    xmlns:rdf="http://www.w3.org/1999/02/22-rdf-syntax-ns#"
    xmlns="http://www.w3.org/2000/svg"
    xmlns:sodipodi="http://sodipodi.sourceforge.net/DTD/sodipodi-0.dtd"
    xmlns:inkscape="http://www.inkscape.org/namespaces/inkscape"
    width="500"
    height="2720.626"
    viewBox="0 0 499.99998 2720.6261"
    id="svg6781"
    version="1.1"
    inkscape:version="0.91 r13725"
    sodipodi:docname="modal-top.svg">
  <defs
     id="defs6783" />
  <sodipodi:namedview
     id="base"
     pagecolor="#ffffff"
     bordercolor="#666666"
     borderopacity="1.0"
     inkscape:pageopacity="0.0"
     inkscape:pageshadow="2"
     inkscape:zoom="1.4"
     inkscape:cx="327.96278"
     inkscape:cy="2631.4612"
     inkscape:document-units="px"
     inkscape:current-layer="layer1"
     showgrid="false"
     units="px"
     inkscape:window-width="1920"
     inkscape:window-height="1001"
     inkscape:window-x="1271"
     inkscape:window-y="368"
     inkscape:window-maximized="1" />
  <metadata
     id="metadata6786">
    <rdf:RDF>
      <cc:Work
         rdf:about="">
        <dc:format>image/svg+xml</dc:format>
        <dc:type
           rdf:resource="http://purl.org/dc/dcmitype/StillImage" />
        <dc:title></dc:title>
      </cc:Work>
    </rdf:RDF>
  </metadata>
  <g
     inkscape:label="Livello 1"
     inkscape:groupmode="layer"
     id="layer1"
     transform="translate(0,1668.2639)">
    <path
       style="display:inline;opacity:1;fill:#f9ede7;fill-opacity:1;fill-rule:nonzero;stroke:none;stroke-width:1;stroke-linecap:round;stroke-linejoin:round;stroke-miterlimit:4;stroke-dasharray:1, 2;stroke-dashoffset:0;stroke-opacity:1"
       d="m -3.051758e-5,-1668.2688 0,2720.6312 163.34835051758,0 109.33801,0 107.99302,0 104.77172,0 14.54893,0 0,-2720.6312 -14.54893,0 -3.70561,0 c 0.6129,1.6902 0.9292,3.474 0.934,5.2718 -1e-4,8.6118 -6.98131,15.593 -15.59313,15.593 -8.61172,0 -15.59293,-6.9812 -15.59303,-15.593 0.01,-1.7981 0.3245,-3.5819 0.939,-5.2718 l -13.88993,0 c 0.6129,1.6902 0.9293,3.474 0.934,5.2718 -10e-5,8.6118 -6.98131,15.593 -15.59313,15.593 -8.61182,0 -15.59303,-6.9812 -15.59303,-15.593 0.01,-1.7981 0.3245,-3.5819 0.939,-5.2718 l -13.89083,0 c 0.6129,1.6902 0.9288,3.474 0.934,5.2718 -10e-5,8.6118 -6.98131,15.593 -15.59303,15.593 -8.61182,0 -15.59303,-6.9812 -15.59313,-15.593 0.01,-1.7978 0.3211,-3.5816 0.934,-5.2718 l -13.89073,0 c 0.6145,1.6899 0.9325,3.4737 0.939,5.2718 -10e-5,8.6118 -6.98131,15.593 -15.59313,15.593 -8.61172,0 -15.59293,-6.9812 -15.59303,-15.593 0,-1.7978 0.3211,-3.5816 0.934,-5.2718 l -13.88993,0 c 0.6145,1.6899 0.9325,3.4737 0.939,5.2718 -1e-4,8.6118 -6.98131,15.593 -15.59303,15.593 -8.61182,0 -15.59303,-6.9812 -15.59303,-15.593 0,-1.7978 0.321,-3.5816 0.9339,-5.2718 l -6.92691,0 -8.27192,0 c 0.6129,1.6902 0.9292,3.474 0.934,5.2718 -10e-5,8.6118 -6.98121,15.593 -15.59303,15.593 -8.61187,0 -15.59305,-6.9812 -15.59309,-15.593 0.006,-1.7981 0.32444,-3.5819 0.93898,-5.2718 l -13.88993,0 c 0.6129,1.6902 0.92921,3.474 0.93394,5.2718 -4e-5,8.6118 -6.98126,15.593 -15.59304,15.593 -8.61183,0 -15.59301,-6.9812 -15.59305,-15.593 0.006,-1.7981 0.32453,-3.5819 0.93902,-5.2718 l -13.89078,0 c 0.6129,1.6902 0.92877,3.474 0.93394,5.2718 -5e-5,8.6118 -6.98126,15.593 -15.59305,15.593 -8.61178,0 -15.59296,-6.9812 -15.59305,-15.593 0.005,-1.7978 0.32105,-3.5816 0.93395,-5.2718 l -13.89075,0 c 0.6145,1.6899 0.93235,3.4737 0.93898,5.2718 -4e-5,8.6118 -6.98122,15.593 -15.59305,15.593 -8.61178,0 -15.593,-6.9812 -15.59304,-15.593 0.005,-1.7978 0.32104,-3.5816 0.93394,-5.2718 l -13.88991,0 c 0.614492,1.6899 0.932342,3.4737 0.939022,5.2718 -5e-5,8.6118 -6.981274,15.593 -15.593052,15.593 -8.611828,0 -15.593002,-6.9812 -15.593052,-15.593 0.005,-1.7978 0.32104,-3.5816 0.933941,-5.2718 l -13.890778,0 c 0.614491,1.6899 0.932352,3.4737 0.939022,5.2718 -4e-5,8.6118 -6.981315,15.593 -15.593053,15.593 -8.611828,0 -15.593042,-6.9812 -15.593092,-15.593 0.005,-1.7978 0.32113,-3.5816 0.933992,-5.2718 z"
       id="rect7335"
       inkscape:connector-curvature="0"
       sodipodi:nodetypes="cccccccccccsccccsccccsccccsccccscccccsccccsccccsccccsccccsccccsccc" />
  </g>
</svg>
