<?xml version="1.0" encoding="UTF-8" standalone="no"?>
<!-- Created with Inkscape (http://www.inkscape.org/) -->

<svg
    xmlns:dc="http://purl.org/dc/elements/1.1/"
    xmlns:cc="http://creativecommons.org/ns#"
    xmlns:rdf="http://www.w3.org/1999/02/22-rdf-syntax-ns#"
    xmlns="http://www.w3.org/2000/svg"
    xmlns:sodipodi="http://sodipodi.sourceforge.net/DTD/sodipodi-0.dtd"
    xmlns:inkscape="http://www.inkscape.org/namespaces/inkscape"
    width="330"
    height="335"
    viewBox="0 0 330 335.00001"
    id="svg7987"
    version="1.1"
    inkscape:version="0.91 r13725"
    sodipodi:docname="path.svg">
  <defs
     id="defs7989" />
  <sodipodi:namedview
     id="base"
     pagecolor="#ffffff"
     bordercolor="#666666"
     borderopacity="1.0"
     inkscape:pageopacity="0.0"
     inkscape:pageshadow="2"
     inkscape:zoom="0.35"
     inkscape:cx="-192.14286"
     inkscape:cy="520"
     inkscape:document-units="px"
     inkscape:current-layer="layer1"
     showgrid="false"
     units="px"
     inkscape:window-width="1920"
     inkscape:window-height="1001"
     inkscape:window-x="-9"
     inkscape:window-y="-9"
     inkscape:window-maximized="1" />
  <metadata
     id="metadata7992">
    <rdf:RDF>
      <cc:Work
         rdf:about="">
        <dc:format>image/svg+xml</dc:format>
        <dc:type
           rdf:resource="http://purl.org/dc/dcmitype/StillImage" />
        <dc:title></dc:title>
      </cc:Work>
    </rdf:RDF>
  </metadata>
  <g
     inkscape:label="Livello 1"
     inkscape:groupmode="layer"
     id="layer1"
     transform="translate(0,-717.36216)">
    <g
       id="g7206"
       transform="matrix(5.5950883,0,0,5.5950883,-2.8367098,716.65686)"
       style="display:inline;opacity:0.97000002;fill:#15202b;fill-opacity:1">
      <g
         id="g7112"
         style="fill:#15202b;fill-opacity:1">
        <path
           id="path7114"
           d="m 35.493,24 2,0 c 0.553,0 1,-0.447 1,-1 0,-0.553 -0.447,-1 -1,-1 l -2,0 c -0.553,0 -1,0.447 -1,1 0,0.553 0.447,1 1,1 z"
           inkscape:connector-curvature="0"
           style="fill:#15202b;fill-opacity:1" />
        <path
           id="path7116"
           d="m 31.995,31 c -0.433,-0.001 -0.854,-0.078 -1.252,-0.23 -0.512,-0.195 -1.093,0.062 -1.291,0.578 -0.196,0.516 0.063,1.094 0.578,1.291 0.626,0.238 1.285,0.36 1.963,0.361 l 0.357,0 c 0.553,0 1,-0.447 1,-1 0,-0.553 -0.447,-1 -1,-1 l -0.355,0 z"
           inkscape:connector-curvature="0"
           style="fill:#15202b;fill-opacity:1" />
        <path
           id="path7118"
           d="m 29.621,24.676 c 0.181,0 0.363,-0.049 0.528,-0.151 0.443,-0.276 0.933,-0.445 1.454,-0.503 0.549,-0.061 0.945,-0.555 0.885,-1.104 -0.06,-0.549 -0.551,-0.941 -1.104,-0.885 -0.822,0.091 -1.594,0.357 -2.294,0.794 -0.469,0.292 -0.611,0.909 -0.319,1.378 0.19,0.304 0.516,0.471 0.85,0.471 z"
           inkscape:connector-curvature="0"
           style="fill:#15202b;fill-opacity:1" />
        <path
           id="path7120"
           d="m 35.993,40 c -0.086,0 -0.171,0.002 -0.256,0.006 -0.552,0.022 -0.98,0.488 -0.958,1.04 0.021,0.538 0.465,0.959 0.998,0.959 0.014,0 0.028,0 0.042,-0.001 L 37.778,42 c 0.553,0 1,-0.447 1,-1 0,-0.553 -0.447,-1 -1,-1 l -1.785,0 z"
           inkscape:connector-curvature="0"
           style="fill:#15202b;fill-opacity:1" />
        <path
           id="path7122"
           d="m 43.493,24 c 0.553,0 1,-0.447 1,-1 0,-0.553 -0.447,-1 -1,-1 l -2,0 c -0.553,0 -1,0.447 -1,1 0,0.553 0.447,1 1,1 l 2,0 z"
           inkscape:connector-curvature="0"
           style="fill:#15202b;fill-opacity:1" />
        <path
           id="path7124"
           d="m 47.778,40 c -0.553,0 -1,0.447 -1,1 0,0.553 0.447,1 1,1 l 2,0 c 0.553,0 1,-0.447 1,-1 0,-0.553 -0.447,-1 -1,-1 l -2,0 z"
           inkscape:connector-curvature="0"
           style="fill:#15202b;fill-opacity:1" />
        <path
           id="path7126"
           d="m 51.351,32 c 0,-0.553 -0.447,-1 -1,-1 l -2,0 c -0.553,0 -1,0.447 -1,1 0,0.553 0.447,1 1,1 l 2,0 c 0.552,0 1,-0.447 1,-1 z"
           inkscape:connector-curvature="0"
           style="fill:#15202b;fill-opacity:1" />
        <path
           id="path7128"
           d="m 41.778,42 2,0 c 0.553,0 1,-0.447 1,-1 0,-0.553 -0.447,-1 -1,-1 l -2,0 c -0.553,0 -1,0.447 -1,1 0,0.553 0.448,1 1,1 z"
           inkscape:connector-curvature="0"
           style="fill:#15202b;fill-opacity:1" />
        <path
           id="path7130"
           d="m 45.351,32 c 0,-0.553 -0.447,-1 -1,-1 l -2,0 c -0.553,0 -1,0.447 -1,1 0,0.553 0.447,1 1,1 l 2,0 c 0.552,0 1,-0.447 1,-1 z"
           inkscape:connector-curvature="0"
           style="fill:#15202b;fill-opacity:1" />
        <path
           id="path7132"
           d="m 36.351,31 c -0.553,0 -1,0.447 -1,1 0,0.553 0.447,1 1,1 l 2,0 c 0.553,0 1,-0.447 1,-1 0,-0.553 -0.447,-1 -1,-1 l -2,0 z"
           inkscape:connector-curvature="0"
           style="fill:#15202b;fill-opacity:1" />
        <path
           id="path7134"
           d="m 24.064,58 -2,0 c -0.553,0 -1,0.447 -1,1 0,0.553 0.447,1 1,1 l 2,0 c 0.553,0 1,-0.447 1,-1 0,-0.553 -0.448,-1 -1,-1 z"
           inkscape:connector-curvature="0"
           style="fill:#15202b;fill-opacity:1" />
        <path
           id="path7136"
           d="m 18.064,58 -2,0 c -0.553,0 -1,0.447 -1,1 0,0.553 0.447,1 1,1 l 2,0 c 0.553,0 1,-0.447 1,-1 0,-0.553 -0.448,-1 -1,-1 z"
           inkscape:connector-curvature="0"
           style="fill:#15202b;fill-opacity:1" />
        <path
           id="path7138"
           d="m 52.604,54.517 c -0.539,-0.121 -1.074,0.217 -1.195,0.756 -0.115,0.51 -0.338,0.979 -0.663,1.392 -0.341,0.434 -0.267,1.063 0.168,1.404 0.184,0.144 0.401,0.214 0.617,0.214 0.297,0 0.59,-0.131 0.787,-0.382 0.504,-0.64 0.864,-1.396 1.042,-2.188 0.121,-0.54 -0.217,-1.075 -0.756,-1.196 z"
           inkscape:connector-curvature="0"
           style="fill:#15202b;fill-opacity:1" />
        <path
           id="path7140"
           d="m 51.531,52.719 c 0.216,0 0.435,-0.07 0.617,-0.214 0.435,-0.342 0.509,-0.971 0.168,-1.404 -0.503,-0.639 -1.152,-1.167 -1.879,-1.528 -0.497,-0.247 -1.095,-0.044 -1.341,0.45 -0.246,0.495 -0.044,1.095 0.45,1.341 0.463,0.229 0.877,0.566 1.197,0.974 0.198,0.25 0.491,0.381 0.788,0.381 z"
           inkscape:connector-curvature="0"
           style="fill:#15202b;fill-opacity:1" />
        <path
           id="path7142"
           d="m 47.065,50 c 0,-0.553 -0.447,-1 -1,-1 l -2,0 c -0.553,0 -1,0.447 -1,1 0,0.553 0.447,1 1,1 l 2,0 c 0.552,0 1,-0.447 1,-1 z"
           inkscape:connector-curvature="0"
           style="fill:#15202b;fill-opacity:1" />
        <path
           id="path7144"
           d="m 47.993,58 -1.93,0 c -0.553,0 -1,0.447 -1,1 0,0.553 0.447,1 1,1 l 1.971,-10e-4 0.029,-1 0,1 c 0.553,0 0.965,-0.447 0.965,-1 C 49.028,58.447 48.546,58 47.993,58 Z"
           inkscape:connector-curvature="0"
           style="fill:#15202b;fill-opacity:1" />
        <path
           id="path7146"
           d="m 59.426,35.632 c -0.088,-0.546 -0.603,-0.919 -1.146,-0.829 -0.546,0.087 -0.917,0.601 -0.829,1.146 0.028,0.178 0.044,0.359 0.042,0.552 0,0.336 -0.048,0.668 -0.142,0.988 -0.155,0.53 0.148,1.086 0.679,1.241 0.094,0.027 0.188,0.04 0.281,0.04 0.433,0 0.832,-0.282 0.96,-0.719 0.147,-0.503 0.222,-1.024 0.222,-1.543 0.002,-0.288 -0.02,-0.583 -0.067,-0.876 z"
           inkscape:connector-curvature="0"
           style="fill:#15202b;fill-opacity:1" />
        <path
           id="path7148"
           d="m 28.029,29.855 c 0.524,-0.173 0.81,-0.738 0.638,-1.263 -0.115,-0.351 -0.174,-0.718 -0.174,-1.088 0.001,-0.151 0.01,-0.302 0.028,-0.449 0.069,-0.548 -0.319,-1.049 -0.867,-1.117 -0.565,-0.063 -1.049,0.321 -1.117,0.867 -0.028,0.226 -0.043,0.456 -0.044,0.694 0,0.588 0.092,1.166 0.273,1.718 0.139,0.421 0.53,0.688 0.95,0.688 0.104,0 0.21,-0.015 0.313,-0.05 z"
           inkscape:connector-curvature="0"
           style="fill:#15202b;fill-opacity:1" />
        <path
           id="path7150"
           d="m 56.746,31.738 c -0.714,-0.414 -1.494,-0.657 -2.317,-0.722 -0.549,-0.04 -1.032,0.367 -1.075,0.919 -0.043,0.551 0.368,1.032 0.919,1.075 0.522,0.041 1.017,0.195 1.47,0.458 0.158,0.092 0.331,0.135 0.501,0.135 0.345,0 0.681,-0.179 0.866,-0.498 0.277,-0.477 0.114,-1.089 -0.364,-1.367 z"
           inkscape:connector-curvature="0"
           style="fill:#15202b;fill-opacity:1" />
        <path
           id="path7152"
           d="M 55.345,39.729 C 54.916,39.909 54.462,40 53.993,40 l -0.215,0 c -0.553,0 -1,0.447 -1,1 0,0.553 0.447,1 1,1 l 0.215,0 c 0.736,0 1.451,-0.144 2.125,-0.427 0.51,-0.214 0.749,-0.8 0.535,-1.309 -0.213,-0.509 -0.803,-0.749 -1.308,-0.535 z"
           inkscape:connector-curvature="0"
           style="fill:#15202b;fill-opacity:1" />
        <path
           id="path7154"
           d="m 32.555,44.839 c 0.099,-0.514 0.307,-0.989 0.619,-1.413 0.327,-0.444 0.232,-1.07 -0.213,-1.398 -0.445,-0.326 -1.07,-0.232 -1.398,0.213 -0.489,0.666 -0.817,1.413 -0.973,2.222 -0.104,0.542 0.251,1.066 0.794,1.171 0.063,0.012 0.127,0.018 0.189,0.018 0.47,-0.002 0.889,-0.335 0.982,-0.813 z"
           inkscape:connector-curvature="0"
           style="fill:#15202b;fill-opacity:1" />
        <path
           id="path7156"
           d="m 34.122,50.594 c 0.38,0 0.742,-0.217 0.91,-0.584 0.229,-0.503 0.009,-1.096 -0.493,-1.325 -0.469,-0.215 -0.894,-0.538 -1.228,-0.936 -0.356,-0.423 -0.986,-0.478 -1.409,-0.122 -0.423,0.355 -0.478,0.986 -0.122,1.409 0.524,0.623 1.19,1.131 1.927,1.467 0.135,0.061 0.276,0.091 0.415,0.091 z"
           inkscape:connector-curvature="0"
           style="fill:#15202b;fill-opacity:1" />
        <path
           id="path7158"
           d="m 30.064,58 -2,0 c -0.553,0 -1,0.447 -1,1 0,0.553 0.447,1 1,1 l 2,0 c 0.553,0 1,-0.447 1,-1 0,-0.553 -0.448,-1 -1,-1 z"
           inkscape:connector-curvature="0"
           style="fill:#15202b;fill-opacity:1" />
        <path
           id="path7160"
           d="m 36.064,58 -2,0 c -0.553,0 -1,0.447 -1,1 0,0.553 0.447,1 1,1 l 2,0 c 0.553,0 1,-0.447 1,-1 0,-0.553 -0.448,-1 -1,-1 z"
           inkscape:connector-curvature="0"
           style="fill:#15202b;fill-opacity:1" />
        <path
           id="path7162"
           d="m 41.065,50 c 0,-0.553 -0.447,-1 -1,-1 l -2,0 c -0.553,0 -1,0.447 -1,1 0,0.553 0.447,1 1,1 l 2,0 c 0.552,0 1,-0.447 1,-1 z"
           inkscape:connector-curvature="0"
           style="fill:#15202b;fill-opacity:1" />
        <path
           id="path7164"
           d="m 42.064,58 -2,0 c -0.553,0 -1,0.447 -1,1 0,0.553 0.447,1 1,1 l 2,0 c 0.553,0 1,-0.447 1,-1 0,-0.553 -0.448,-1 -1,-1 z"
           inkscape:connector-curvature="0"
           style="fill:#15202b;fill-opacity:1" />
        <path
           id="path7166"
           d="M 21.021,28.977 C 18.75,26.412 15.722,25 12.493,25 c -3.229,0 -6.257,1.412 -8.527,3.977 -4.612,5.211 -4.612,13.688 0,18.899 l 8.527,9.633 8.527,-9.633 c 4.613,-5.211 4.613,-13.688 0.001,-18.899 z M 12.493,43 c -3.309,0 -6,-2.691 -6,-6 0,-3.309 2.691,-6 6,-6 3.309,0 6,2.691 6,6 0,3.309 -2.691,6 -6,6 z"
           inkscape:connector-curvature="0"
           style="fill:#15202b;fill-opacity:1" />
        <path
           id="path7168"
           d="m 48.747,24.507 6.464,-7.286 c 3.478,-3.92 3.478,-10.296 0,-14.216 C 53.491,1.067 51.195,0 48.746,0 c -2.448,0 -4.744,1.067 -6.464,3.005 -3.477,3.92 -3.477,10.296 0,14.216 l 6.465,7.286 z M 48.993,4 c 3.032,0 5.5,2.468 5.5,5.5 0,3.032 -2.468,5.5 -5.5,5.5 -3.032,0 -5.5,-2.468 -5.5,-5.5 0,-3.032 2.468,-5.5 5.5,-5.5 z"
           inkscape:connector-curvature="0"
           style="fill:#15202b;fill-opacity:1" />
      </g>
      <g
         id="g7170"
         style="fill:#15202b;fill-opacity:1" />
      <g
         id="g7172"
         style="fill:#15202b;fill-opacity:1" />
      <g
         id="g7174"
         style="fill:#15202b;fill-opacity:1" />
      <g
         id="g7176"
         style="fill:#15202b;fill-opacity:1" />
      <g
         id="g7178"
         style="fill:#15202b;fill-opacity:1" />
      <g
         id="g7180"
         style="fill:#15202b;fill-opacity:1" />
      <g
         id="g7182"
         style="fill:#15202b;fill-opacity:1" />
      <g
         id="g7184"
         style="fill:#15202b;fill-opacity:1" />
      <g
         id="g7186"
         style="fill:#15202b;fill-opacity:1" />
      <g
         id="g7188"
         style="fill:#15202b;fill-opacity:1" />
      <g
         id="g7190"
         style="fill:#15202b;fill-opacity:1" />
      <g
         id="g7192"
         style="fill:#15202b;fill-opacity:1" />
      <g
         id="g7194"
         style="fill:#15202b;fill-opacity:1" />
      <g
         id="g7196"
         style="fill:#15202b;fill-opacity:1" />
      <g
         id="g7198"
         style="fill:#15202b;fill-opacity:1" />
    </g>
  </g>
</svg>
