<?xml version="1.0" encoding="UTF-8" standalone="no"?>
<!-- Created with Inkscape (http://www.inkscape.org/) -->

<svg
    xmlns:dc="http://purl.org/dc/elements/1.1/"
    xmlns:cc="http://creativecommons.org/ns#"
    xmlns:rdf="http://www.w3.org/1999/02/22-rdf-syntax-ns#"
    xmlns="http://www.w3.org/2000/svg"
    xmlns:sodipodi="http://sodipodi.sourceforge.net/DTD/sodipodi-0.dtd"
    xmlns:inkscape="http://www.inkscape.org/namespaces/inkscape"
    width="353"
    height="323"
    viewBox="0 0 353 323.00001"
    id="svg7294"
    version="1.1"
    inkscape:version="0.91 r13725"
    sodipodi:docname="people.svg">
  <defs
     id="defs7296" />
  <sodipodi:namedview
     id="base"
     pagecolor="#ffffff"
     bordercolor="#666666"
     borderopacity="1.0"
     inkscape:pageopacity="0.0"
     inkscape:pageshadow="2"
     inkscape:zoom="0.35"
     inkscape:cx="-52.142857"
     inkscape:cy="502.85714"
     inkscape:document-units="px"
     inkscape:current-layer="layer1"
     showgrid="false"
     units="px"
     inkscape:window-width="1920"
     inkscape:window-height="1001"
     inkscape:window-x="-9"
     inkscape:window-y="-9"
     inkscape:window-maximized="1" />
  <metadata
     id="metadata7299">
    <rdf:RDF>
      <cc:Work
         rdf:about="">
        <dc:format>image/svg+xml</dc:format>
        <dc:type
           rdf:resource="http://purl.org/dc/dcmitype/StillImage" />
        <dc:title></dc:title>
      </cc:Work>
    </rdf:RDF>
  </metadata>
  <g
     inkscape:label="Livello 1"
     inkscape:groupmode="layer"
     id="layer1"
     transform="translate(0,-729.36216)">
    <g
       id="g6510"
       transform="matrix(0.65849486,0,0,0.65737388,0,714.66333)"
       style="display:inline;opacity:0.97000002;fill:#15202b;fill-opacity:1">
      <g
         id="g6470"
         style="fill:#15202b;fill-opacity:1">
        <path
           id="path6472"
           d="m 147.128,91.076 c 0,-37.95 30.766,-68.716 68.721,-68.716 37.95,0 68.719,30.766 68.719,68.716 0,37.95 -30.769,68.715 -68.719,68.715 -37.955,0.001 -68.721,-30.765 -68.721,-68.715 z m 101.745,115.531 c 0.689,-14.963 5.84,-28.812 14.127,-40.261 -5.816,-1.218 -11.827,-1.865 -17.995,-1.865 l -58.304,0 c -6.15,0 -12.153,0.642 -17.939,1.845 8.819,12.232 14.094,27.171 14.18,43.343 10.72,-5.896 23.02,-9.253 36.085,-9.253 10.598,0 20.687,2.208 29.846,6.191 z m 11.632,6.168 c 19.96,12.517 33.957,33.688 36.517,58.274 8.133,3.801 17.171,5.994 26.746,5.994 34.968,0 63.311,-28.346 63.311,-63.313 0,-34.971 -28.343,-63.311 -63.311,-63.311 -34.648,10e-4 -62.737,27.838 -63.263,62.356 z m -41.479,129.636 c 34.962,0 63.307,-28.354 63.307,-63.311 0,-34.962 -28.345,-63.311 -63.307,-63.311 -34.965,0 -63.322,28.348 -63.322,63.311 0.001,34.957 28.357,63.311 63.322,63.311 z m 26.856,4.309 -53.717,0 c -44.697,0 -81.069,36.369 -81.069,81.072 l 0,65.703 0.171,1.029 4.522,1.406 c 42.658,13.323 79.718,17.779 110.224,17.779 59.571,0 94.114,-16.987 96.242,-18.074 l 4.231,-2.141 0.449,0 0,-65.703 c 10e-4,-44.702 -36.35,-81.071 -81.053,-81.071 z m 104.756,-65.356 -53.314,0 c -0.579,21.332 -9.683,40.542 -24.081,54.35 39.732,11.815 68.802,48.657 68.802,92.178 l 0,20.245 c 52.629,-1.938 82.963,-16.846 84.961,-17.851 l 4.232,-2.152 0.449,0 0,-65.715 c 0.006,-44.691 -36.363,-81.055 -81.049,-81.055 z m 14.251,-132.295 c 19.961,12.519 33.957,33.691 36.511,58.277 8.134,3.801 17.171,5.99 26.746,5.99 34.975,0 63.316,-28.342 63.316,-63.304 0,-34.972 -28.342,-63.311 -63.316,-63.311 -34.643,-0.004 -62.73,27.839 -63.257,62.348 z m 90.121,68.589 -53.303,0 c -0.579,21.332 -9.682,40.542 -24.08,54.349 39.731,11.811 68.801,48.658 68.801,92.179 l 0,20.245 c 52.624,-1.934 82.964,-16.84 84.962,-17.852 l 4.226,-2.145 0.455,0 0,-65.723 c 0.006,-44.687 -36.363,-81.053 -81.061,-81.053 z m -347.073,59.386 c 12.386,0 23.903,-3.618 33.67,-9.777 3.106,-20.241 13.958,-37.932 29.454,-49.975 0.065,-1.188 0.174,-2.361 0.174,-3.561 0,-34.971 -28.351,-63.311 -63.298,-63.311 -34.977,0 -63.316,28.339 -63.316,63.311 0,34.973 28.338,63.313 63.316,63.313 z m 56.858,58.67 c -14.331,-13.742 -23.404,-32.847 -24.072,-54.055 -1.971,-0.147 -3.928,-0.295 -5.943,-0.295 l -53.711,0 C 36.366,281.364 0,317.728 0,362.425 l 0,65.709 0.166,1.023 4.528,1.412 c 34.214,10.699 64.761,15.616 91.292,17.153 l 0,-19.837 c 0.005,-43.514 29.068,-80.362 68.809,-92.171 z"
           inkscape:connector-curvature="0"
           style="fill:#15202b;fill-opacity:1" />
      </g>
      <g
         id="g6474"
         style="fill:#15202b;fill-opacity:1" />
      <g
         id="g6476"
         style="fill:#15202b;fill-opacity:1" />
      <g
         id="g6478"
         style="fill:#15202b;fill-opacity:1" />
      <g
         id="g6480"
         style="fill:#15202b;fill-opacity:1" />
      <g
         id="g6482"
         style="fill:#15202b;fill-opacity:1" />
      <g
         id="g6484"
         style="fill:#15202b;fill-opacity:1" />
      <g
         id="g6486"
         style="fill:#15202b;fill-opacity:1" />
      <g
         id="g6488"
         style="fill:#15202b;fill-opacity:1" />
      <g
         id="g6490"
         style="fill:#15202b;fill-opacity:1" />
      <g
         id="g6492"
         style="fill:#15202b;fill-opacity:1" />
      <g
         id="g6494"
         style="fill:#15202b;fill-opacity:1" />
      <g
         id="g6496"
         style="fill:#15202b;fill-opacity:1" />
      <g
         id="g6498"
         style="fill:#15202b;fill-opacity:1" />
      <g
         id="g6500"
         style="fill:#15202b;fill-opacity:1" />
      <g
         id="g6502"
         style="fill:#15202b;fill-opacity:1" />
    </g>
  </g>
</svg>
