<?xml version="1.0" encoding="utf-8"?>
<!-- Generator: Adobe Illustrator 21.0.1, SVG Export Plug-In . SVG Version: 6.00 Build 0)  -->
<svg version="1.1" id="Layer_1" xmlns:sketch="http://www.bohemiancoding.com/sketch/ns"
	 xmlns="http://www.w3.org/2000/svg" xmlns:xlink="http://www.w3.org/1999/xlink" x="0px" y="0px" viewBox="0 0 640 1266"
	 style="enable-background:new 0 0 640 1266;" xml:space="preserve">
<title>google-nexus-5</title>
<description>Created with Sketch (http://www.bohemiancoding.com/sketch)</description>
<g id="google-nexus-5" sketch:type="MSLayerGroup">
	<g id="Page-1" sketch:type="MSShapeGroup">
		<g id="google-nexus-5-_x28_front_x29_">
			<path id="Shape" d="M635,1203V238h5c0.6,0,1-0.5,1-1v-79c0-0.5-0.4-1-1-1h-5V63h0c0-0.3,0-0.6,0-1c0,0,0.5-15-8.4-25.3
				s-16.9-12.1-16.9-12.1c-4-1.8-10.9-3.8-15.2-4.8c0,0-12.6-3.4-48.6-8.2c-21.4-2.9-55.1-5.9-74.8-7c-22-1.2-51.2-3.4-79.3-4.2
				c-31.8-0.9-61.4-0.4-70.7-0.2c-9.3-0.2-38.9-0.7-70.7,0.2c-28.1,0.8-57.3,3-79.3,4.2c-19.7,1-53.3,4.1-74.8,7
				c-36,4.8-48.6,8.2-48.6,8.2c-4.3,1-11.2,3-15.2,4.8c0,0-8,1.8-16.9,12.1S7,62,7,62c0,0.3,0,0.7,0,1v178H1c-0.6,0-1,0.4-1,1v197
				c0,0.6,0.4,1,1,1h6v763c0,0.3,0,0.6,0,1c0,0-0.5,15,8.4,25.3c8.9,10.3,16.9,12.1,16.9,12.1c4,1.8,10.9,3.8,15.2,4.8
				c0,0,12.6,3.4,48.6,8.2c21.4,2.9,55.1,5.9,74.8,7c22,1.2,51.2,3.4,79.3,4.2c31.8,0.9,61.4,0.4,70.7,0.2
				c9.3,0.2,38.9,0.7,70.7-0.2c28.1-0.8,57.3-3,79.3-4.2c19.7-1,53.3-4.1,74.8-7c36-4.8,48.6-8.2,48.6-8.2c4.3-1,11.2-3,15.2-4.8
				c0,0,8-1.8,16.9-12.1c8.9-10.3,8.4-25.3,8.4-25.3C635,1203.6,635,1203.3,635,1203L635,1203L635,1203z M321,73c7.7,0,14-6.3,14-14
				s-6.3-14-14-14s-14,6.3-14,14S313.3,73,321,73L321,73z M34,110v1016h574V110H34L34,110z M106.5,73c3,0,5.5-2.5,5.5-5.5
				s-2.5-5.5-5.5-5.5s-5.5,2.5-5.5,5.5S103.5,73,106.5,73L106.5,73z"/>
		</g>
	</g>
</g>
</svg>
