<svg xmlns="http://www.w3.org/2000/svg" xmlns:xlink="http://www.w3.org/1999/xlink"
     xmlns:fi="http://pattern.flaticon.com/" x="0" y="0" width="700" height="350" viewBox="0 0 700 350">
    <rect x="0px" y="0px" width="100%" height="100%" opacity="1" fill="#032342"/>
    <defs>
        <path
            d="M146.069,320.369h268.1c30.4,0,55.2-24.8,55.2-55.2v-112.8c0-0.1,0-0.3,0-0.4c0-0.3,0-0.5,0-0.8c0-0.2,0-0.4-0.1-0.6   c0-0.2-0.1-0.5-0.1-0.7s-0.1-0.4-0.1-0.6c-0.1-0.2-0.1-0.4-0.2-0.7c-0.1-0.2-0.1-0.4-0.2-0.6c-0.1-0.2-0.1-0.4-0.2-0.6   c-0.1-0.2-0.2-0.4-0.3-0.7c-0.1-0.2-0.2-0.4-0.3-0.5c-0.1-0.2-0.2-0.4-0.3-0.6c-0.1-0.2-0.2-0.3-0.3-0.5c-0.1-0.2-0.3-0.4-0.4-0.6   c-0.1-0.2-0.2-0.3-0.4-0.5c-0.1-0.2-0.3-0.3-0.4-0.5s-0.3-0.3-0.4-0.5s-0.3-0.3-0.4-0.4c-0.2-0.2-0.3-0.3-0.5-0.5   c-0.2-0.1-0.3-0.3-0.5-0.4c-0.2-0.1-0.4-0.3-0.6-0.4c-0.2-0.1-0.3-0.2-0.5-0.3s-0.4-0.2-0.6-0.4c-0.2-0.1-0.4-0.2-0.6-0.3   s-0.4-0.2-0.6-0.3s-0.4-0.2-0.6-0.3s-0.4-0.1-0.6-0.2c-0.2-0.1-0.5-0.2-0.7-0.2s-0.4-0.1-0.5-0.1c-0.3-0.1-0.5-0.1-0.8-0.1   c-0.1,0-0.2-0.1-0.4-0.1l-339.8-46.9v-47.4c0-0.5,0-1-0.1-1.4c0-0.1,0-0.2-0.1-0.4c0-0.3-0.1-0.6-0.1-0.9c-0.1-0.3-0.1-0.5-0.2-0.8   c0-0.2-0.1-0.3-0.1-0.5c-0.1-0.3-0.2-0.6-0.3-0.9c0-0.1-0.1-0.3-0.1-0.4c-0.1-0.3-0.2-0.5-0.4-0.8c-0.1-0.1-0.1-0.3-0.2-0.4   c-0.1-0.2-0.2-0.4-0.4-0.6c-0.1-0.2-0.2-0.3-0.3-0.5s-0.2-0.3-0.3-0.5s-0.3-0.4-0.4-0.6c-0.1-0.1-0.2-0.2-0.3-0.3   c-0.2-0.2-0.4-0.4-0.6-0.6c-0.1-0.1-0.2-0.2-0.3-0.3c-0.2-0.2-0.4-0.4-0.7-0.6c-0.1-0.1-0.3-0.2-0.4-0.3c-0.2-0.2-0.4-0.3-0.6-0.5   c-0.3-0.2-0.6-0.4-0.8-0.5c-0.1-0.1-0.2-0.1-0.3-0.2c-0.4-0.2-0.9-0.4-1.3-0.6l-73.7-31c-6.9-2.9-14.8,0.3-17.7,7.2   s0.3,14.8,7.2,17.7l65.4,27.6v61.2v9.7v74.4v66.5v84c0,28,21,51.2,48.1,54.7c-4.9,8.2-7.8,17.8-7.8,28c0,30.1,24.5,54.5,54.5,54.5   s54.5-24.5,54.5-54.5c0-10-2.7-19.5-7.5-27.5h121.4c-4.8,8.1-7.5,17.5-7.5,27.5c0,30.1,24.5,54.5,54.5,54.5s54.5-24.5,54.5-54.5   s-24.5-54.5-54.5-54.5h-255c-15.6,0-28.2-12.7-28.2-28.2v-36.6C126.069,317.569,135.769,320.369,146.069,320.369z M213.269,431.969   c0,15.2-12.4,27.5-27.5,27.5s-27.5-12.4-27.5-27.5s12.4-27.5,27.5-27.5S213.269,416.769,213.269,431.969z M428.669,431.969   c0,15.2-12.4,27.5-27.5,27.5s-27.5-12.4-27.5-27.5s12.4-27.5,27.5-27.5S428.669,416.769,428.669,431.969z M414.169,293.369h-268.1   c-15.6,0-28.2-12.7-28.2-28.2v-66.5v-74.4v-5l324.5,44.7v101.1C442.369,280.769,429.669,293.369,414.169,293.369z"
            transform="matrix(0.12331242114305496 0 0 0.12331242114305496 197.99999918714957 55)" id="L1_5"
            fill="#ab9988"/>
        <g transform="matrix(0.1171877309679985 0 0 0.1171877309679985 115 302.9999990558606)" id="L1_6" fill="#ab9988">
            <path
                d="M214.685,402.828c-24.829,0-45.029,20.2-45.029,45.029c0,24.829,20.2,45.029,45.029,45.029s45.029-20.2,45.029-45.029    C259.713,423.028,239.513,402.828,214.685,402.828z M214.685,467.742c-10.966,0-19.887-8.922-19.887-19.887    c0-10.966,8.922-19.887,19.887-19.887s19.887,8.922,19.887,19.887C234.572,458.822,225.65,467.742,214.685,467.742z"/>
            <path
                d="M372.63,402.828c-24.829,0-45.029,20.2-45.029,45.029c0,24.829,20.2,45.029,45.029,45.029s45.029-20.2,45.029-45.029    C417.658,423.028,397.458,402.828,372.63,402.828z M372.63,467.742c-10.966,0-19.887-8.922-19.887-19.887    c0-10.966,8.922-19.887,19.887-19.887c10.966,0,19.887,8.922,19.887,19.887C392.517,458.822,383.595,467.742,372.63,467.742z"/>
            <path
                d="M383.716,165.755H203.567c-6.943,0-12.571,5.628-12.571,12.571c0,6.943,5.629,12.571,12.571,12.571h180.149    c6.943,0,12.571-5.628,12.571-12.571C396.287,171.382,390.659,165.755,383.716,165.755z"/>
            <path
                d="M373.911,231.035H213.373c-6.943,0-12.571,5.628-12.571,12.571s5.628,12.571,12.571,12.571h160.537    c6.943,0,12.571-5.628,12.571-12.571C386.481,236.664,380.853,231.035,373.911,231.035z"/>
            <path
                d="M506.341,109.744c-4.794-5.884-11.898-9.258-19.489-9.258H95.278L87.37,62.097c-1.651-8.008-7.113-14.732-14.614-17.989    l-55.177-23.95c-6.37-2.767-13.773,0.156-16.536,6.524c-2.766,6.37,0.157,13.774,6.524,16.537L62.745,67.17l60.826,295.261    c2.396,11.628,12.752,20.068,24.625,20.068h301.166c6.943,0,12.571-5.628,12.571-12.571c0-6.943-5.628-12.571-12.571-12.571    H148.197l-7.399-35.916H451.69c11.872,0,22.229-8.44,24.624-20.068l35.163-170.675    C513.008,123.266,511.136,115.627,506.341,109.744z M451.69,296.301H135.619l-35.161-170.674l386.393,0.001L451.69,296.301z"/>
        </g>
        <g transform="matrix(0.12259910255670547 0 0 0.12259910255670547 285 -23.999999251714485)" id="L1_7" fill="#ab9988">
            <path
                d="M347.7,263.75h-66.5c-18.2,0-33,14.8-33,33v51c0,18.2,14.8,33,33,33h66.5c18.2,0,33-14.8,33-33v-51    C380.7,278.55,365.9,263.75,347.7,263.75z M356.7,347.75c0,5-4.1,9-9,9h-66.5c-5,0-9-4.1-9-9v-51c0-5,4.1-9,9-9h66.5    c5,0,9,4.1,9,9V347.75z"/>
            <path
                d="M489.4,171.05c0-2.1-0.5-4.1-1.6-5.9l-72.8-128c-2.1-3.7-6.1-6.1-10.4-6.1H84.7c-4.3,0-8.3,2.3-10.4,6.1l-72.7,128    c-1,1.8-1.6,3.8-1.6,5.9c0,28.7,17.3,53.3,42,64.2v211.1c0,6.6,5.4,12,12,12h66.3c0.1,0,0.2,0,0.3,0h93c0.1,0,0.2,0,0.3,0h221.4    c6.6,0,12-5.4,12-12v-209.6c0-0.5,0-0.9-0.1-1.3C472,224.55,489.4,199.85,489.4,171.05z M91.7,55.15h305.9l56.9,100.1H34.9    L91.7,55.15z M348.3,179.15c-3.8,21.6-22.7,38-45.4,38c-22.7,0-41.6-16.4-45.4-38H348.3z M232,179.15c-3.8,21.6-22.7,38-45.4,38    s-41.6-16.4-45.5-38H232z M24.8,179.15h90.9c-3.8,21.6-22.8,38-45.5,38C47.5,217.25,28.6,200.75,24.8,179.15z M201.6,434.35h-69    v-129.5c0-9.4,7.6-17.1,17.1-17.1h34.9c9.4,0,17.1,7.6,17.1,17.1v129.5H201.6z M423.3,434.35H225.6v-129.5    c0-22.6-18.4-41.1-41.1-41.1h-34.9c-22.6,0-41.1,18.4-41.1,41.1v129.6H66v-193.3c1.4,0.1,2.8,0.1,4.2,0.1    c24.2,0,45.6-12.3,58.2-31c12.6,18.7,34,31,58.2,31s45.5-12.3,58.2-31c12.6,18.7,34,31,58.1,31c24.2,0,45.5-12.3,58.1-31    c12.6,18.7,34,31,58.2,31c1.4,0,2.7-0.1,4.1-0.1L423.3,434.35L423.3,434.35z M419.2,217.25c-22.7,0-41.6-16.4-45.4-38h90.9    C460.8,200.75,441.9,217.25,419.2,217.25z"/>
        </g>
        <g transform="matrix(0.07347922027111053 0 0 0.07347922027111053 28.168167907744646 244.16010278338354)" fill="#ab9988"
           id="L1_8">
            <path
                d="M394.655,202.654H95.988c-17.643,0-32,14.357-32,32v21.333c0,76.117,42.048,145.152,109.717,180.16    c5.227,2.688,11.669,0.661,14.379-4.587c2.688-5.227,0.661-11.669-4.587-14.379c-60.544-31.317-98.176-93.077-98.176-161.195    v-21.333c0-5.888,4.779-10.667,10.667-10.667h298.667c5.888,0,10.667,4.779,10.667,10.667v21.333    c0,68.117-37.632,129.877-98.197,161.173c-5.248,2.709-7.275,9.152-4.587,14.379c1.899,3.669,5.632,5.781,9.493,5.781    c1.664,0,3.328-0.384,4.885-1.195c67.691-34.987,109.739-104,109.739-180.139v-21.333    C426.655,217.011,412.297,202.654,394.655,202.654z"/>
            <path
                d="M489.865,422.558c-1.664-3.989-5.547-6.592-9.856-6.592H10.676c-4.309,0-8.192,2.603-9.856,6.592    c-1.664,3.989-0.747,8.576,2.304,11.627l23.915,23.936c14.123,14.101,32.853,21.867,52.8,21.867h330.965    c19.947,0,38.699-7.765,52.843-21.867l23.915-23.936C490.612,431.134,491.529,426.547,489.865,422.558z M448.543,443.038    c-10.069,10.069-23.488,15.616-37.717,15.616H79.839c-14.229,0-27.648-5.547-37.717-15.616l-5.717-5.717H454.26L448.543,443.038z"/>
            <path
                d="M491.359,253.022c-28.736-18.475-74.645,1.579-79.787,3.904c-5.355,2.453-7.744,8.768-5.291,14.144    c2.453,5.376,8.747,7.744,14.144,5.291c10.283-4.672,43.264-15.744,59.392-5.355c7.275,4.672,10.837,13.739,10.837,27.648    c0,42.709-86.144,68.523-119.403,74.88l-7.552,1.493c-5.781,1.131-9.536,6.741-8.405,12.523c1.003,5.077,5.461,8.597,10.453,8.597    c0.683,0,1.365-0.064,2.069-0.213l7.488-1.472c5.589-1.067,136.683-26.773,136.683-95.808    C511.988,277.193,505.034,261.854,491.359,253.022z"/>
            <path
                d="M328.372,113.31c17.344-21.675,17.344-55.616,0-77.291c-3.691-4.608-10.368-5.376-14.997-1.664    c-4.608,3.691-5.355,10.389-1.664,14.997c10.987,13.717,10.987,36.907-0.021,50.667c-17.365,21.675-17.365,55.616,0,77.291    c2.112,2.645,5.205,4.011,8.341,4.011c2.325,0,4.693-0.768,6.656-2.347c4.608-3.691,5.355-10.411,1.664-14.997    C317.343,150.259,317.343,127.07,328.372,113.31z"/>
            <path
                d="M264.287,113.31c17.365-21.675,17.365-55.616,0-77.291c-3.669-4.608-10.389-5.355-14.997-1.664    c-4.608,3.691-5.355,10.411-1.664,14.997c11.008,13.717,11.008,36.907-0.021,50.667c-17.344,21.675-17.344,55.616,0,77.291    c2.112,2.645,5.205,4.011,8.341,4.011c2.325,0,4.672-0.768,6.656-2.347c4.608-3.691,5.355-10.389,1.664-14.997    C253.279,150.259,253.279,127.07,264.287,113.31z"/>
            <path
                d="M200.372,113.331c17.344-21.675,17.344-55.616,0-77.291c-3.669-4.608-10.368-5.376-14.997-1.664    c-4.587,3.669-5.333,10.389-1.664,14.976c10.987,13.717,10.987,36.907-0.021,50.667c-17.365,21.675-17.365,55.616,0,77.291    c2.112,2.645,5.205,4.011,8.341,4.011c2.325,0,4.693-0.768,6.656-2.325c4.608-3.691,5.355-10.411,1.664-14.997    C189.343,150.259,189.343,127.091,200.372,113.331z"/>
        </g>
        <g transform="matrix(1.0286827087402344 0 0 1.0286827087402344 216.7727488754631 205.76237726211548)" id="L1_9" fill="#ab9988">
            <path
                d="M36.272,25.308c0.106,0.036,0.215,0.053,0.321,0.053c0.417,0,0.806-0.262,0.947-0.679c0.313-0.918,1.314-1.411,2.232-1.1   c1.962,0.664,4.103-0.389,4.768-2.352c0.178-0.522-0.102-1.091-0.625-1.269c-0.525-0.177-1.091,0.103-1.269,0.626   c-0.312,0.919-1.313,1.412-2.232,1.1c-1.959-0.661-4.102,0.39-4.768,2.352C35.469,24.561,35.749,25.13,36.272,25.308z"
                fill="#ab9988"/>
            <path
                d="M38.638,18.34c0.106,0.036,0.215,0.053,0.321,0.053c0.417,0,0.806-0.262,0.947-0.679c0.151-0.445,0.466-0.805,0.888-1.013   s0.899-0.238,1.344-0.087c1.962,0.664,4.102-0.389,4.768-2.353c0.178-0.522-0.103-1.091-0.625-1.269   c-0.523-0.18-1.091,0.103-1.268,0.626c-0.312,0.92-1.311,1.413-2.232,1.101c-0.952-0.323-1.971-0.257-2.871,0.188   c-0.9,0.444-1.574,1.213-1.897,2.164C37.834,17.594,38.115,18.162,38.638,18.34z"
                fill="#ab9988"/>
            <path
                d="M41.002,11.372c0.107,0.036,0.215,0.053,0.322,0.053c0.417,0,0.806-0.262,0.947-0.679c0.23-0.678,0.971-1.043,1.648-0.813   c0.835,0.283,1.73,0.225,2.521-0.164c0.79-0.39,1.381-1.064,1.665-1.899c0.178-0.522-0.102-1.091-0.625-1.269   c-0.525-0.179-1.091,0.103-1.269,0.626c-0.112,0.329-0.345,0.595-0.656,0.748c-0.311,0.153-0.663,0.176-0.993,0.063   c-1.722-0.581-3.601,0.343-4.185,2.064C40.2,10.626,40.479,11.194,41.002,11.372z"
                fill="#ab9988"/>
            <path
                d="M48.246,25.234c-0.174-0.119-0.37-0.187-0.57-0.213c1.987-6.457,3.077-12.783,3.233-18.808   c0.049-1.895-0.877-4.425-2.744-5.596c-0.896-0.563-2.364-1.027-4.27-0.046c-2.987,1.541-5.123,6.074-6.839,9.718   c-0.099,0.21-0.196,0.415-0.292,0.618c-0.379-1.743-1.531-3.234-3.169-4.012c-0.386-1.856-1.858-3.31-3.708-3.687   c-0.02-0.104-0.045-0.206-0.076-0.309c-0.381-1.302-1.53-2.282-2.859-2.44c-0.749-0.089-1.491,0.066-2.125,0.437   c-0.54-0.301-1.146-0.461-1.768-0.461c-1.739,0-3.2,1.213-3.581,2.836c-1.901,0.518-3.295,2.263-3.31,4.291   c-2.169,0.56-3.749,2.52-3.749,4.851c0,0.618,0.116,1.23,0.339,1.807c-0.563,0.695-0.875,1.565-0.875,2.478   c0,0.548,0.113,1.076,0.326,1.564c-0.999-1.09-2.405-1.981-3.984-1.923c-0.552,0.018-0.986,0.479-0.969,1.031   c0.017,0.541,0.461,0.969,0.999,0.969c0.034,0.001,0.065-0.002,0.097-0.002c0.937,0,1.808,0.62,2.442,1.34   c-1.586,0.457-3.498,1.201-4.39,2.883c-0.537,1.015-0.6,2.26-0.242,3.686c-0.173,0.289-0.268,0.625-0.25,0.983l1.702,24.187   c0.155,3.033,2.655,5.408,5.691,5.408h28.071c3.036,0,5.536-2.375,5.69-5.39l1.745-25.028c0-0.006,0.001-0.012,0.001-0.018   C48.84,25.927,48.627,25.496,48.246,25.234z M37.58,13.767c0.396-0.739,0.828-1.655,1.285-2.626   c1.503-3.192,3.563-7.563,5.946-8.793C45.681,1.9,46.43,1.891,47.102,2.31c1.159,0.728,1.841,2.565,1.808,3.851   c-0.153,5.912-1.233,12.134-3.211,18.494c-0.065,0.209-0.209,0.631-0.414,1.21l-1.704,0.757c-0.037,0.017-0.073,0.035-0.108,0.057   c-0.492,0.295-1.044,0.441-1.596,0.447c-0.552-0.006-1.103-0.152-1.595-0.447l-0.713-0.428c-0.82-0.492-1.739-0.738-2.658-0.738   c-0.011,0-0.022,0.002-0.034,0.002c-0.93-0.006-1.862,0.237-2.692,0.736l-0.712,0.428c-0.397,0.238-0.836,0.354-1.28,0.404   c0.025-0.087,0.054-0.172,0.08-0.258c0.274-0.931,0.568-1.849,0.876-2.76c0.117-0.346,0.239-0.69,0.361-1.033   c0.257-0.723,0.526-1.437,0.804-2.146c0.124-0.317,0.245-0.637,0.373-0.951C35.559,17.808,36.521,15.745,37.58,13.767z    M24.832,16.139c0.117-0.15,0.231-0.296,0.339-0.438c0-0.002,0.001-0.003,0.002-0.004c0.079-0.105,0.148-0.214,0.206-0.323   c0.246-0.463,0.304-0.983,0.19-1.491l4.174-0.913c0.028,0.128,0.058,0.255,0.106,0.373c0.187,0.458,0.521,0.839,0.986,1.105   c0.152,0.084,0.311,0.168,0.475,0.255c0.135,0.071,0.27,0.145,0.406,0.219c0.065,0.035,0.131,0.07,0.196,0.106   c0.119,0.067,0.234,0.141,0.35,0.214c0.099,0.061,0.197,0.124,0.293,0.191c0.111,0.077,0.217,0.162,0.323,0.248   c0.093,0.076,0.182,0.159,0.27,0.244c0.095,0.093,0.189,0.188,0.276,0.292c0.154,0.184,0.302,0.375,0.423,0.604   c-0.424,0.936-0.823,1.891-1.209,2.854c-0.06,0.149-0.124,0.294-0.183,0.443c-1.096,0.278-2.155,0.798-3.463,1.729   c-1.648,1.171-2.875,1.482-4.897,1.189l-0.607-2.779C23.076,18.378,23.969,17.24,24.832,16.139z M29.791,10.066   c0.026-0.005,0.052-0.008,0.078-0.008c0.189,0,0.366,0.135,0.407,0.325c0.032,0.144-0.022,0.257-0.058,0.312   c-0.035,0.054-0.114,0.149-0.257,0.18l-5.524,1.209c-0.22,0.048-0.444-0.098-0.492-0.316c-0.048-0.219,0.097-0.444,0.316-0.492   l2.935-0.642L29.791,10.066z M26.559,25.533c-0.076,0.005-0.153,0.007-0.229,0.015c-0.545,0.055-1.083,0.193-1.594,0.423   l-0.191-0.875c0.288,0.024,0.575,0.048,0.844,0.048c1.744,0,3.148-0.519,4.762-1.667c0.508-0.362,0.958-0.636,1.386-0.863   c-0.092,0.261-0.183,0.521-0.272,0.783c-0.064,0.188-0.133,0.373-0.195,0.562c-0.294,0.89-0.574,1.787-0.835,2.692l-0.665-0.398   c-0.82-0.492-1.739-0.738-2.658-0.738c-0.012,0-0.025,0.002-0.037,0.002C26.769,25.515,26.664,25.527,26.559,25.533z    M14.598,15.192l0.655-0.54l-0.425-0.733c-0.266-0.46-0.407-0.98-0.407-1.506c0-1.62,1.269-2.941,2.889-3.009l1.214-0.051   l-0.283-1.182c-0.048-0.198-0.072-0.393-0.072-0.578c0-1.288,1.006-2.373,2.29-2.471l0.924-0.07l0-0.995   c0.029-0.899,0.77-1.622,1.677-1.622c0.522,0,0.896,0.238,1.117,0.438l0.701,0.633l0.672-0.664   c0.308-0.304,0.731-0.446,1.167-0.396c0.536,0.063,1.02,0.481,1.176,1.018c0.053,0.18,0.068,0.354,0.047,0.531l-0.117,1.117h1.126   c1.437,0,2.639,1.123,2.738,2.557l0.045,0.657l0.621,0.218c1.563,0.549,2.591,2.028,2.556,3.683   c-0.015,0.707-0.243,1.388-0.656,1.985c-0.669-0.568-1.39-0.951-1.996-1.27c-0.157-0.083-0.309-0.163-0.462-0.248   c-0.043-0.024-0.095-0.066-0.113-0.171c-0.024-0.144,0.03-0.317,0.139-0.444c0.436-0.506,0.611-1.196,0.47-1.847l-0.121-0.551   c-0.121-0.556-0.453-1.031-0.933-1.339c-0.479-0.307-1.049-0.41-1.604-0.288l-0.268,0.059c-0.003,0.001-0.006,0-0.009,0.001   l-2.935,0.642l-2.864,0.625c-0.555,0.121-1.03,0.452-1.338,0.933c-0.308,0.479-0.41,1.05-0.289,1.605l0.06,0.272   c0,0.001,0,0.002,0,0.003c0,0.001,0.001,0.002,0.001,0.004l0.059,0.271c0.145,0.666,0.608,1.227,1.237,1.497   c0.156,0.067,0.286,0.194,0.331,0.323c0.026,0.074,0.011,0.112-0.047,0.208c0,0,0,0,0,0.001c-0.099,0.133-0.206,0.268-0.315,0.407   c-0.11,0.14-0.224,0.287-0.34,0.439c-0.039,0.051-0.076,0.104-0.115,0.156c-0.083,0.113-0.166,0.228-0.248,0.348   c-0.045,0.065-0.088,0.132-0.132,0.2c-0.076,0.117-0.149,0.238-0.221,0.362c-0.042,0.072-0.083,0.143-0.123,0.218   c-0.075,0.14-0.143,0.287-0.21,0.437c-0.029,0.064-0.06,0.125-0.086,0.192c-0.088,0.218-0.166,0.446-0.228,0.686   c-0.01,0.038-0.014,0.079-0.023,0.118c-0.048,0.204-0.087,0.415-0.112,0.635c-0.01,0.088-0.012,0.18-0.018,0.271   c-0.008,0.118-0.023,0.23-0.023,0.353c-0.004-0.005-0.008-0.01-0.012-0.015c-0.014-0.018-0.028-0.034-0.041-0.052   c-0.174-0.229-0.348-0.44-0.523-0.64c-0.055-0.063-0.111-0.124-0.167-0.184c-0.147-0.159-0.294-0.308-0.442-0.448   c-0.048-0.045-0.096-0.094-0.145-0.138c-0.187-0.167-0.375-0.32-0.564-0.456c-0.053-0.038-0.107-0.07-0.16-0.106   c-0.142-0.095-0.284-0.183-0.428-0.261c-0.07-0.038-0.139-0.075-0.21-0.109c-0.149-0.073-0.299-0.135-0.45-0.189   c-0.05-0.018-0.1-0.042-0.15-0.058c-0.164-0.052-0.329-0.094-0.495-0.125c-0.019-0.004-0.038-0.002-0.057-0.005   c-0.034-0.006-0.067-0.019-0.101-0.024c-0.116-0.017-0.226-0.01-0.34-0.018c-0.08-0.005-0.159-0.022-0.239-0.022   c-0.024,0-0.049,0.006-0.074,0.006c-0.155,0.002-0.305,0.02-0.456,0.039c-0.075,0.01-0.15,0.016-0.225,0.03   c-0.197,0.036-0.388,0.086-0.577,0.146c-0.029,0.009-0.057,0.016-0.086,0.026c-0.498,0.169-0.97,0.408-1.412,0.697   c-0.091-0.225-0.139-0.467-0.139-0.716C13.885,16.113,14.145,15.564,14.598,15.192z M8.173,23.495   c0.423-0.797,1.45-1.405,3.233-1.915c0.834-0.238,1.608-0.683,2.236-1.283c0.285-0.273,0.552-0.504,0.81-0.714   c0.806-0.655,1.501-1.011,2.13-1.092c0.014-0.002,0.028-0.004,0.042-0.005c0.199-0.022,0.392-0.016,0.579,0.017   c0.049,0.009,0.099,0.026,0.149,0.039c0.093,0.023,0.185,0.046,0.278,0.083c0.06,0.023,0.12,0.058,0.181,0.086   c0.087,0.042,0.173,0.08,0.26,0.133c0.068,0.041,0.136,0.094,0.204,0.141c0.081,0.057,0.162,0.109,0.244,0.175   c0.076,0.061,0.152,0.135,0.228,0.204c0.076,0.069,0.152,0.132,0.228,0.209c0.084,0.085,0.169,0.184,0.254,0.279   c0.069,0.077,0.138,0.148,0.208,0.231c0.095,0.114,0.191,0.244,0.287,0.37c0.061,0.08,0.121,0.152,0.182,0.237   c0.109,0.152,0.219,0.321,0.329,0.489c0.048,0.074,0.097,0.14,0.145,0.216c0.159,0.251,0.319,0.518,0.48,0.802   c0.736,1.299,0.98,3.218,0.66,4.889c-0.053-0.005-0.105-0.013-0.158-0.021c-0.381-0.065-0.748-0.187-1.082-0.387l-0.713-0.428   c-0.82-0.492-1.739-0.738-2.658-0.738c-0.011,0-0.022,0.002-0.034,0.002c-0.93-0.006-1.862,0.237-2.692,0.736l-0.347,0.208   c-0.605,0.363-1.283,0.546-1.961,0.552c-0.679-0.006-1.356-0.188-1.961-0.552l-1.345-0.808c0,0-0.001,0-0.001-0.001   c-0.177-0.105-0.368-0.177-0.564-0.213C7.847,24.645,7.903,24.005,8.173,23.495z M45.074,51.313   c-0.101,1.968-1.724,3.51-3.694,3.51H13.308c-1.971,0-3.593-1.542-3.695-3.529L7.949,27.652l0.87,0.522   c0.943,0.566,2.002,0.844,3.058,0.838c1.057,0.006,2.115-0.272,3.058-0.838l0.347-0.208c0.492-0.296,1.043-0.442,1.595-0.448   c0.552,0.006,1.103,0.152,1.596,0.448l0.713,0.428c0.902,0.541,1.924,0.773,2.934,0.718c0.09-0.004,0.18-0.004,0.271-0.012   c0.011-0.001,0.021-0.007,0.033-0.008c0.683-0.077,1.353-0.292,1.971-0.644c0.058-0.021,0.12-0.022,0.174-0.054l0.713-0.428   c0.492-0.296,1.043-0.442,1.595-0.448c0.552,0.006,1.103,0.152,1.596,0.448l0.713,0.428c0.757,0.453,1.599,0.688,2.446,0.723   c0.017,0.001,0.035,0.003,0.052,0.003c0.292,0.009,0.584,0,0.874-0.041c0.166-0.021,0.327-0.063,0.49-0.1   c0.079-0.019,0.158-0.036,0.236-0.059c0.444-0.123,0.879-0.284,1.284-0.527h0l0.713-0.428c0.492-0.296,1.043-0.442,1.595-0.448   c0.552,0.006,1.103,0.152,1.596,0.448l0.713,0.428c0.826,0.495,1.753,0.738,2.679,0.734c0.015,0,0.031,0.003,0.046,0.003   c0.898,0,1.797-0.234,2.603-0.704l1.962-0.872c0.042-0.019,0.072-0.055,0.111-0.079l0.153-0.068L45.074,51.313z"
                fill="#ab9988"/>
            <path
                d="M11.911,43.004h7c0.552,0,1-0.447,1-1s-0.448-1-1-1h-7c-0.552,0-1,0.447-1,1S11.359,43.004,11.911,43.004z"
                fill="#ab9988"/>
            <path
                d="M11.911,47.004h9c0.552,0,1-0.447,1-1s-0.448-1-1-1h-9c-0.552,0-1,0.447-1,1S11.359,47.004,11.911,47.004z"
                fill="#ab9988"/>
            <path
                d="M22.911,49.004h-11c-0.552,0-1,0.447-1,1s0.448,1,1,1h11c0.552,0,1-0.447,1-1S23.463,49.004,22.911,49.004z"
                fill="#ab9988"/>
            <path
                d="M28.911,49.004h-2c-0.552,0-1,0.447-1,1s0.448,1,1,1h2c0.552,0,1-0.447,1-1S29.463,49.004,28.911,49.004z"
                fill="#ab9988"/>
        </g>
        <g transform="matrix(0.125 0 0 0.125 77 2)" fill="#ab9988" id="L1_10">
            <path
                d="m48 248v96c0 13.253906 10.746094 24 24 24h112c13.253906 0 24-10.746094 24-24v-96c0-13.253906-10.746094-24-24-24h-112c-13.253906 0-24 10.746094-24 24zm144 0v96c0 4.417969-3.582031 8-8 8h-112c-4.417969 0-8-3.582031-8-8v-96c0-4.417969 3.582031-8 8-8h112c4.417969 0 8 3.582031 8 8zm0 0"/>
            <path
                d="m88 288h80c4.417969 0 8-3.582031 8-8s-3.582031-8-8-8h-80c-4.417969 0-8 3.582031-8 8s3.582031 8 8 8zm0 0"/>
            <path
                d="m88 320h80c4.417969 0 8-3.582031 8-8s-3.582031-8-8-8h-80c-4.417969 0-8 3.582031-8 8s3.582031 8 8 8zm0 0"/>
            <path
                d="m72 0c-22.082031.0273438-39.972656 17.917969-40 40v94.457031l-.566406-1.425781c-1.214844-3.039062-4.160156-5.03125-7.433594-5.03125h-16c-4.417969 0-8 3.582031-8 8v320c0 13.253906 10.746094 24 24 24h208c13.253906 0 24-10.746094 24-24v-320c0-4.417969-3.582031-8-8-8h-16c-3.273438 0-6.21875 1.992188-7.433594 5.03125l-.566406 1.425781v-6.457031c0-26.246094-8.632812-42.855469-24-46.992188v-33.007812c0-4.417969-3.582031-8-8-8h-32c-4.417969 0-8 3.582031-8 8v33.007812c-15.367188 4.136719-24 20.746094-24 46.992188-2.429688 0-4.730469 1.101562-6.246094 3l-9.753906 12.199219v-103.199219c-.027344-22.082031-17.917969-39.9726562-40-40zm0 16c13.253906 0 24 10.746094 24 24v4l-28.800781 21.601562c-3.535157 2.648438-4.25 7.664063-1.597657 11.199219 2.648438 3.535157 7.664063 4.25 11.199219 1.597657l19.199219-14.398438v20l-28.800781 21.601562c-3.535157 2.648438-4.25 7.664063-1.597657 11.199219 2.648438 3.535157 7.664063 4.25 11.199219 1.597657l19.199219-14.398438v56.464844l-17.144531-28.578125c-1.445313-2.410157-4.046875-3.882813-6.855469-3.886719h-16c-3.273438 0-6.21875 1.992188-7.433594 5.03125l-.566406 1.425781v-94.457031c0-13.253906 10.746094-24 24-24zm96 40h16v16h-16zm-8 40c4.417969 0 8-3.582031 8-8h16c0 4.417969 3.582031 8 8 8 13.921875 0 16 20.046875 16 32v6.457031l-.566406-1.425781c-1.214844-3.039062-4.160156-5.03125-7.433594-5.03125h-16c-3.273438 0-6.21875 1.992188-7.433594 5.03125l-10.894531 27.25-21.671875-27.097656v-5.183594c0-11.953125 2.078125-32 16-32zm-28.160156 48 29.914062 37c1.785156 2.207031 4.601563 3.3125 7.414063 2.910156 2.820312-.414062 5.207031-2.296875 6.265625-4.941406l13.980468-34.96875h5.171876l13.980468 34.96875c1.214844 3.042969 4.160156 5.039062 7.433594 5.039062s6.21875-1.996093 7.433594-5.039062l13.980468-34.96875h2.585938v312c0 4.417969-3.582031 8-8 8h-208c-4.417969 0-8-3.582031-8-8v-312h2.585938l13.980468 34.96875c1.214844 3.042969 4.160156 5.039062 7.433594 5.039062s6.21875-1.996093 7.433594-5.039062l13.980468-34.96875h6.058594l21.671875 36.121094c1.347657 2.242187 3.707031 3.6875 6.320313 3.863281 2.609375.152344 5.132812-.957031 6.78125-2.984375zm0 0"/>
        </g>
        <g transform="matrix(0.11718704551458359 0 0 0.11718704551458359 311 104.99999917030652)" id="L1_11"
           fill="#ab9988">
            <path
                d="M197.965,198.867c-4.313-4.721-10.454-7.486-16.847-7.585c-12.859-0.165-23.497,10.087-23.715,22.936    c-0.07,4.142,3.231,7.556,7.372,7.626c0.044,0.001,0.086,0.001,0.13,0.001c4.083,0,7.427-3.275,7.496-7.374    c0.077-4.589,3.849-8.271,8.482-8.191c2.313,0.036,4.446,0.996,6.007,2.704c2.794,3.059,7.539,3.273,10.596,0.479    C200.544,206.67,200.759,201.925,197.965,198.867z"/>
            <path
                d="M237.867,223.31c-2.299-5.404-6.774-9.669-12.281-11.702c-11.074-4.085-23.419,1.592-27.522,12.653    c-1.441,3.884,0.54,8.2,4.423,9.641c0.86,0.319,1.741,0.47,2.607,0.47c3.047,0,5.911-1.87,7.033-4.894    c1.232-3.322,4.945-5.022,8.265-3.797c1.669,0.616,2.973,1.859,3.67,3.499c1.621,3.811,6.027,5.589,9.837,3.967    C237.712,231.526,239.487,227.122,237.867,223.31z"/>
            <path
                d="M286.206,156.885c-2.932-2.927-7.681-2.921-10.606,0.011l-7.07,7.084c-2.926,2.932-2.921,7.681,0.011,10.606    c1.463,1.461,3.38,2.191,5.297,2.191c1.922,0,3.844-0.734,5.309-2.202l7.07-7.084C289.143,164.559,289.138,159.81,286.206,156.885    z"/>
            <path
                d="M239.545,253.709h-9.996c-4.143,0-7.5,3.358-7.5,7.5c0,4.142,3.357,7.5,7.5,7.5h9.996c4.143,0,7.5-3.358,7.5-7.5    C247.045,257.067,243.688,253.709,239.545,253.709z"/>
            <path
                d="M316.189,253.709h-9.997c-4.143,0-7.5,3.358-7.5,7.5c0,4.142,3.358,7.5,7.5,7.5h9.997c4.142,0,7.5-3.358,7.5-7.5    C323.689,257.067,320.331,253.709,316.189,253.709z"/>
            <path
                d="M511.761,388.942l-1.953-10.542c-1.245-6.736-7.127-11.625-13.986-11.625c-0.861,0-1.729,0.079-2.583,0.236l-39.76,7.304    l18.006-12.037c4.719-3.154,7.104-8.796,6.075-14.393c-0.286-1.533-0.822-3.004-1.598-4.381l-5.449-9.649    c-1.867-3.315-5.051-5.778-8.726-6.754c-1.8-0.48-3.682-0.587-5.518-0.348c2.005-11.066,3.039-22.368,3.039-33.873    c0-5.105-3.07-9.498-7.455-11.449c5.73-13.628,6.121-29.23,0.457-43.518c-0.459-1.162-1.141-2.199-2.024-3.083    c-0.876-0.876-1.901-1.553-3.064-2.02c-6.787-2.703-13.92-4.073-21.201-4.073c-0.931,0-1.858,0.024-2.782,0.068    c-1.039-20.933-18.364-37.644-39.514-37.644c-2.785,0-5.501,0.296-8.124,0.848c1.822-10.9,0.749-22.303-3.496-33.009    c-0.456-1.177-1.141-2.233-2.072-3.179c-0.896-0.896-1.947-1.587-3.113-2.05c-7.311-2.912-14.995-4.388-22.839-4.388    c-11.816,0-23.119,3.322-32.877,9.498c-3.565-10.327-9.444-20.022-17.658-28.255c-2.406-2.41-5.606-3.738-9.011-3.738    c-3.405,0-6.605,1.328-9.014,3.74l-36.313,36.396c-6.72-5.994-15.563-9.577-25.161-9.577c-2.178,0-4.377,0.191-6.536,0.567    c-7.823,1.362-15.022,5.191-20.541,10.799c-7.077-3.415-15.184-4.58-22.975-3.224c-1.714,0.298-3.377,0.718-4.991,1.23v-28.046    c0-19.314-15.523-35.055-34.725-35.387V87.48c5.878-1.017,10.366-6.14,10.366-12.304V39.137c0-6.892-5.607-12.5-12.5-12.5H61.154    c-6.893,0-12.5,5.608-12.5,12.5v36.039c0,6.164,4.488,11.287,10.366,12.304v15.904c-19.202,0.331-34.724,16.072-34.724,35.387    v218.896C9.322,371.19,0,390.059,0,410.925c0,41.046,36.025,74.44,80.307,74.44l300.187-0.088    c10.246-0.004,19.882-4.507,26.436-12.353c6.384-7.638,9.097-17.559,7.534-27.343l59.957,10.775    c0.83,0.149,1.68,0.225,2.523,0.225c2.99,0,5.855-0.918,8.281-2.652c3.119-2.228,5.23-5.677,5.793-9.46l1.624-10.897    c0.234-1.561,0.208-3.133-0.077-4.674c-1.032-5.572-5.275-9.993-10.81-11.261l-21.133-4.848l39.721-7.297    c3.746-0.688,6.996-2.791,9.152-5.922C511.647,396.447,512.451,392.673,511.761,388.942z M426.021,243.735    c4.515,0,8.954,0.715,13.222,2.124c3.814,11.614,2.386,24.141-3.586,34.489h-20.204l6.447-6.462    c2.926-2.932,2.92-7.681-0.013-10.607c-2.933-2.926-7.682-2.921-10.606,0.012l-3.411,3.419c-1.599-5.265-4.391-9.979-8.061-13.846    C407.253,246.953,416.391,243.735,426.021,243.735z M383.725,206.159c13.545,0,24.564,11.052,24.564,24.637    c0,0.252-0.012,0.501-0.019,0.751c-7.906,2.571-15.193,6.866-21.408,12.699c-0.989-0.375-1.992-0.723-3.022-1.008    c-2.194-11.852-10.181-21.352-20.732-25.789C367.487,210.665,375.085,206.159,383.725,206.159z M344.08,164.381    c5.094,0,10.1,0.824,14.924,2.454c3.877,11.528,3.085,23.911-1.855,34.637c-4.061,3.699-7.356,8.229-9.608,13.321    c-1.339,0.078-2.678,0.226-4.001,0.456c-5.877,1.023-11.357,3.573-15.943,7.271c-1.564-2.86-3.479-5.499-5.673-7.875    l17.199-17.238c2.926-2.932,2.92-7.681-0.013-10.606c-2.932-2.926-7.681-2.921-10.607,0.012l-18.798,18.841    c-3.577-1.691-7.443-2.867-11.506-3.417c1.755-8.95,6.098-17.383,12.816-24.117C319.854,169.26,331.597,164.381,344.08,164.381z     M286.61,280.348h-6.501c-1.095-2.786-3.802-4.761-6.977-4.761s-5.882,1.976-6.977,4.761h-7.648    c1.776-2.892,1.417-6.724-1.09-9.226c-2.932-2.926-7.681-2.921-10.607,0.011l-7.069,7.084c-0.635,0.636-1.123,1.361-1.482,2.131    h-15.265c-5.717-8.773-9.206-19.128-9.619-30.268h118.986c-0.413,11.14-3.902,21.495-9.619,30.268h-15.885    c-0.358-0.77-0.848-1.496-1.482-2.132l-7.068-7.084c-2.927-2.931-7.674-2.939-10.606-0.012    C285.192,273.622,284.833,277.455,286.61,280.348z M269.167,235.08c2.827-10.477,12.384-18.208,23.71-18.208    c11.327,0,20.884,7.732,23.711,18.208H269.167z M284.504,142.859c7.134,7.71,11.851,16.864,14.164,26.486    c-3.829,4.161-7.01,8.759-9.519,13.652c-1.139-0.698-2.474-1.107-3.907-1.107h-9.994c-4.142,0-7.5,3.358-7.5,7.5    c0,4.142,3.358,7.5,7.5,7.5h8.767c-0.493,2.071-0.876,4.167-1.154,6.279c-2.978,0.782-5.822,1.896-8.484,3.314    c-4.999-8.627-13.277-15.056-23.085-17.635c-0.003-0.021-0.007-0.042-0.011-0.063c-0.588-3.394-1.614-6.614-3.013-9.607    L284.504,142.859z M148.926,210.535c-0.44-1.23-0.773-2.492-0.992-3.758c-2.151-12.401,6.209-24.249,18.632-26.412    c1.31-0.228,2.641-0.344,3.955-0.344c4.941,0,9.663,1.576,13.654,4.557c1.651,1.234,3.739,1.733,5.771,1.381    c2.032-0.353,3.829-1.526,4.969-3.245c3.521-5.311,8.908-8.835,15.168-9.925c1.313-0.229,2.647-0.344,3.964-0.344    c11.112,0,20.556,7.95,22.454,18.905c0.218,1.255,0.33,2.563,0.332,3.888c0.007,3.882,2.976,7.118,6.844,7.458    c8.385,0.737,15.523,6.014,18.832,13.448c-4.43,5.317-7.501,11.809-8.667,18.936H211.07c-5.318,0-9.881,3.283-11.784,7.929    c-9.41-6.409-20.5-9.862-32.122-9.862c-7.281,0-14.414,1.371-21.206,4.075c-1.152,0.46-2.182,1.139-3.06,2.017    c-0.89,0.89-1.573,1.933-2.021,3.077c-1.726,4.353-2.877,8.828-3.499,13.331c-2.688-3.06-4.582-6.865-5.322-11.135    c-1.764-10.176,3.563-20.308,12.95-24.64C148.534,218.244,150.235,214.192,148.926,210.535z M171.284,278.297l2.046,2.051h-18.013    c-4.044-9.382-4.658-20.061-1.375-30.077c4.274-1.411,8.711-2.125,13.222-2.125c11.301,0,21.932,4.417,29.933,12.436    c1.064,1.067,2.055,2.185,2.986,3.34c1.271,5.754,3.224,11.251,5.74,16.425H194.52l-12.617-12.646    c-2.927-2.931-7.676-2.939-10.606-0.012C168.364,270.616,168.358,275.365,171.284,278.297z M139.344,280.348h-26.737    c1.192-7.265,5.562-13.458,11.628-17.11c3.591,4.811,8.278,8.701,13.678,11.336C138.295,276.52,138.764,278.449,139.344,280.348z     M63.654,41.637h55.991v31.039H63.654V41.637z M109.279,87.676v15.693H74.021V87.676H109.279z M39.297,169.187H88    c4.143,0,7.5-3.358,7.5-7.5c0-4.142-3.357-7.5-7.5-7.5H39.297v-15.416c0-11.25,9.124-20.402,20.339-20.402h64.028    c11.216,0,20.34,9.152,20.34,20.402v15.416H130c-4.143,0-7.5,3.358-7.5,7.5c0,4.142,3.357,7.5,7.5,7.5h14.004v6.657    c-8.593,8.425-13.056,20.78-10.852,33.489c0.004,0.025,0.009,0.051,0.013,0.077c-12.032,8.255-18.443,22.931-15.89,37.664    c0.149,0.86,0.336,1.706,0.54,2.543c-3.747,2.066-7.112,4.734-9.996,7.856H39.297V169.187z M39.296,272.472L39.296,272.472H99.11    c-0.796,2.528-1.358,5.159-1.632,7.876h-1.264c-6.903,0-12.52,5.621-12.52,12.53c0,11.909,1.107,23.6,3.252,35.038    c-2.155-0.173-4.365-0.266-6.613-0.266c-9.07,0-17.712,1.439-24.331,4.053c-10.125,3.998-12.924,9.675-13.535,13.603    c-1.073,0.534-2.127,1.098-3.171,1.675V272.472z M134.267,364.607c2.701,2.161,4.352,3.998,5.309,5.323    c-0.09,0.001-0.184,0.002-0.279,0.002c-4.245,0-11.872-1.711-20.545-6.512c-3.229-1.789-6.204-3.81-8.604-5.843    c-2.798-2.371-6.901-2.369-9.697,0.001c-2.4,2.035-5.374,4.055-8.6,5.84c-8.675,4.803-16.302,6.514-20.546,6.514    c-0.097,0-0.19-0.001-0.281-0.002c0.956-1.325,2.607-3.163,5.309-5.325c2.361-1.89,3.356-5.014,2.523-7.921    c-0.834-2.908-3.332-5.031-6.337-5.383c-7.319-0.858-11.947-2.721-14.114-4.077c2.715-1.691,9.579-4.574,21.931-4.574    c10.23,0,17.707,2.151,21.293,4.165c2.281,1.28,5.062,1.28,7.343,0.001c3.588-2.014,11.066-4.165,21.296-4.165    c12.353,0,19.216,2.884,21.93,4.574c-2.166,1.357-6.795,3.219-14.116,4.077c-3.005,0.353-5.504,2.475-6.337,5.384    C130.909,359.594,131.904,362.718,134.267,364.607z M119.264,455.893l0.258,1.39c0.892,4.817,2.773,9.238,5.401,13.082H80.307    c-36.01,0-65.307-26.664-65.307-59.44c0-22.399,13.688-41.935,33.844-52.065c2.315,1.728,5.201,3.218,8.625,4.42    c-1.358,2.319-2.304,4.813-2.527,7.414c-0.296,3.458,0.762,6.742,2.982,9.248c2.933,3.312,7.435,4.991,13.381,4.991    c7.924,0,18.321-3.137,27.811-8.391c2.185-1.209,4.251-2.486,6.185-3.82c1.933,1.333,3.999,2.61,6.185,3.821    c9.49,5.253,19.887,8.389,27.811,8.39h0.001c5.944,0,10.446-1.679,13.378-4.99c2.221-2.506,3.28-5.79,2.983-9.249    c-0.223-2.601-1.169-5.095-2.527-7.414c3.424-1.203,6.311-2.693,8.626-4.42c15.985,8.034,27.896,21.985,32.143,38.588    l-53.045,20.151C125.329,423.499,116.248,439.603,119.264,455.893z M395.418,463.307c-3.698,4.428-9.141,6.968-14.931,6.97    l-7.872,0.003l-4.918-26.555c-0.755-4.073-4.666-6.766-8.741-6.009c-4.072,0.754-6.763,4.667-6.009,8.74l4.414,23.829    l-25.806,0.01l-3.325-17.957c-0.755-4.073-4.667-6.763-8.741-6.009c-4.072,0.754-6.763,4.667-6.009,8.74l2.82,15.232    l-60.025,0.023l-4.518-24.388c-0.756-4.073-4.666-6.763-8.741-6.008c-4.073,0.754-6.763,4.668-6.009,8.741l4.013,21.661    l-87.644,0.034c-0.002,0-0.004,0-0.006,0c-9.372,0-17.404-6.65-19.102-15.816l-0.258-1.39c-1.695-9.156,3.423-18.213,12.17-21.537    l29.477-11.198l2.196,11.852c0.669,3.611,3.821,6.135,7.365,6.135c0.454,0,0.914-0.042,1.376-0.127    c4.072-0.755,6.762-4.668,6.007-8.741l-2.693-14.533l43.755-16.622c3.872-1.471,5.819-5.803,4.348-9.675    c-1.471-3.873-5.808-5.819-9.674-4.348l-20.361,7.735c-5.712-20.223-20.386-37.116-39.845-46.794    c-0.611-3.928-3.41-9.605-13.534-13.603c-6.619-2.614-15.261-4.053-24.331-4.053c-6.242,0-12.203,0.689-17.465,1.944v-4.53    c0-4.142-3.357-7.5-7.5-7.5c-1.751,0-3.357,0.604-4.634,1.61c-1.183-7.823-1.845-15.769-1.955-23.827H343    c4.143,0,7.5-3.358,7.5-7.5c0-4.142-3.357-7.5-7.5-7.5h-3.069c4.776-9.836,7.474-20.864,7.474-32.519    c0-6.617-5.063-12.068-11.515-12.687c2.809-2.649,6.315-4.435,10.223-5.116c1.145-0.199,2.307-0.3,3.455-0.3    c9.683,0,17.911,6.927,19.564,16.469c0.191,1.105,0.289,2.245,0.29,3.39c0.005,3.884,2.975,7.122,6.844,7.462    c8.963,0.787,16.296,7.528,17.833,16.392c0.408,2.357,0.357,4.683-0.052,6.909H386c-4.143,0-7.5,3.358-7.5,7.5    c0,4.142,3.357,7.5,7.5,7.5h58.292c-0.186,13.758-1.958,27.197-5.263,40.236l-40.646,23.994    c-2.486-8.652-8.264-15.991-16.225-20.447c-8.929-4.997-19.54-5.778-29.11-2.143l-83.711,31.802    c-3.873,1.471-5.819,5.803-4.348,9.675c1.471,3.873,5.807,5.817,9.674,4.348l11.028-4.189l3.424,18.487    c0.669,3.611,3.821,6.136,7.366,6.136c0.453,0,0.913-0.042,1.375-0.127c4.072-0.754,6.763-4.667,6.009-8.74l-3.921-21.17    l58.429-22.197c5.414-2.056,11.412-1.615,16.459,1.21c5.038,2.819,8.528,7.679,9.576,13.331l15.173,81.915    C400.627,453.116,399.11,458.889,395.418,463.307z M422.178,404.601c-3.499,0.643-6.064,3.655-6.143,7.212    c-0.078,3.557,2.354,6.679,5.821,7.474l55.84,12.808l-1.395,9.359l-64.734-11.633l-10.119-54.634l56.384-33.284l4.697,8.317    l-47.558,31.791c-2.957,1.977-4.119,5.759-2.781,9.055c1.337,3.296,4.807,5.2,8.305,4.557l74.706-13.723l1.664,8.98    L422.178,404.601z"/>
        </g>
        <g transform="matrix(0.09375 0 0 0.09375 132.99999998828127 142.9999999648437)" id="L1_12">
            <path
                d="m413.960938 109.820312c-.03125-1.164062-.257813-2.3125-.679688-3.390624-.109375-.292969-.261719-.53125-.390625-.800782-.164063-.398437-.355469-.789062-.570313-1.171875l-38.359374-57.457031v-37c0-5.523438-4.476563-10-10-10h-320c-5.523438 0-10 4.476562-10 10v37l-38.320313 57.484375c-.214844.375-.40625.765625-.570313 1.164063-.128906.269531-.28125.523437-.390624.800781-.421876 1.082031-.65625 2.226562-.679688 3.390625v460.160156c0 16.566406 13.433594 30 30 30h359.960938c16.566406 0 30-13.433594 30-30v-460c0-.070312 0-.121094 0-.179688zm-20 70.179688h-380v-60h380zm-380 20h380v260h-380zm40-180h300v20h-300zm-4.652344 40h309.300781l26.671875 40h-362.628906zm344.652344 510c0 5.523438-4.476563 10-10 10h-360c-5.523438 0-10-4.476562-10-10v-90h380zm0 0"
                fill="#ab9988"/>
            <path
                d="m95.738281 250.160156c-4.753906-.863281-9.453125 1.800782-11.148437 6.328125l-20.628906 55.03125-20.628907-55c-1.691406-4.53125-6.382812-7.203125-11.136719-6.347656-4.761718.851563-8.230468 4.992187-8.234374 9.828125v120c0 5.523438 4.476562 10 10 10 5.523437 0 10-4.476562 10-10v-64.847656l10.628906 28.367187c1.460937 3.90625 5.195312 6.496094 9.367187 6.496094 4.167969 0 7.898438-2.589844 9.363281-6.496094l10.640626-28.367187v64.847656c0 5.523438 4.476562 10 10 10 5.523437 0 10-4.476562 10-10v-120c0-4.835938-3.460938-8.980469-8.222657-9.839844zm0 0"
                fill="#ab9988"/>
            <path
                d="m283.960938 370h-50v-110c0-5.523438-4.476563-10-10-10-5.523438 0-10 4.476562-10 10v120c0 5.523438 4.476562 10 10 10h60c5.523437 0 10-4.476562 10-10s-4.476563-10-10-10zm0 0"
                fill="#ab9988"/>
            <path
                d="m379.507812 251.679688c-4.59375-3.066407-10.800781-1.828126-13.867187 2.769531l-37.03125 55.550781h-4.648437v-50c0-5.523438-4.476563-10-10-10-5.523438 0-10 4.476562-10 10v120c0 5.523438 4.476562 10 10 10 5.523437 0 10-4.476562 10-10v-50h4.648437l37 55.550781c3.101563 4.484375 9.230469 5.65625 13.773437 2.628907 4.535157-3.023438 5.8125-9.125 2.867188-13.722657l-36.292969-54.457031 36.304688-54.449219c3.066406-4.589843 1.835937-10.800781-2.753907-13.871093zm0 0"
                fill="#ab9988"/>
            <path
                d="m183.960938 270c5.523437 0 10-4.476562 10-10s-4.476563-10-10-10h-60c-5.523438 0-10 4.476562-10 10s4.476562 10 10 10h20v100h-20c-5.523438 0-10 4.476562-10 10s4.476562 10 10 10h60c5.523437 0 10-4.476562 10-10s-4.476563-10-10-10h-20v-100zm0 0"
                fill="#ab9988"/>
        </g>
        <g transform="matrix(0.7310570478439331 0 0 0.7310570478439331 212.068288564682 295.068288564682)"
           fill="#ab9988" id="L1_13">
            <path
                d="M42.595,0H17.405C14.977,0,13,1.977,13,4.405v51.189C13,58.023,14.977,60,17.405,60h25.189C45.023,60,47,58.023,47,55.595   V4.405C47,1.977,45.023,0,42.595,0z M15,8h30v38H15V8z M17.405,2h25.189C43.921,2,45,3.079,45,4.405V6H15V4.405   C15,3.079,16.079,2,17.405,2z M42.595,58H17.405C16.079,58,15,56.921,15,55.595V48h30v7.595C45,56.921,43.921,58,42.595,58z"/>
            <path
                d="M30,49c-2.206,0-4,1.794-4,4s1.794,4,4,4s4-1.794,4-4S32.206,49,30,49z M30,55c-1.103,0-2-0.897-2-2s0.897-2,2-2   s2,0.897,2,2S31.103,55,30,55z"/>
            <path d="M26,5h4c0.553,0,1-0.447,1-1s-0.447-1-1-1h-4c-0.553,0-1,0.447-1,1S25.447,5,26,5z"/>
            <path d="M33,5h1c0.553,0,1-0.447,1-1s-0.447-1-1-1h-1c-0.553,0-1,0.447-1,1S32.447,5,33,5z"/>
            <path
                d="M56.612,4.569c-0.391-0.391-1.023-0.391-1.414,0s-0.391,1.023,0,1.414c3.736,3.736,3.736,9.815,0,13.552   c-0.391,0.391-0.391,1.023,0,1.414c0.195,0.195,0.451,0.293,0.707,0.293s0.512-0.098,0.707-0.293   C61.128,16.434,61.128,9.085,56.612,4.569z"/>
            <path
                d="M52.401,6.845c-0.391-0.391-1.023-0.391-1.414,0s-0.391,1.023,0,1.414c1.237,1.237,1.918,2.885,1.918,4.639   s-0.681,3.401-1.918,4.638c-0.391,0.391-0.391,1.023,0,1.414c0.195,0.195,0.451,0.293,0.707,0.293s0.512-0.098,0.707-0.293   c1.615-1.614,2.504-3.764,2.504-6.052S54.017,8.459,52.401,6.845z"/>
            <path
                d="M4.802,5.983c0.391-0.391,0.391-1.023,0-1.414s-1.023-0.391-1.414,0c-4.516,4.516-4.516,11.864,0,16.38   c0.195,0.195,0.451,0.293,0.707,0.293s0.512-0.098,0.707-0.293c0.391-0.391,0.391-1.023,0-1.414   C1.065,15.799,1.065,9.72,4.802,5.983z"/>
            <path
                d="M9.013,6.569c-0.391-0.391-1.023-0.391-1.414,0c-1.615,1.614-2.504,3.764-2.504,6.052s0.889,4.438,2.504,6.053   c0.195,0.195,0.451,0.293,0.707,0.293s0.512-0.098,0.707-0.293c0.391-0.391,0.391-1.023,0-1.414   c-1.237-1.237-1.918-2.885-1.918-4.639S7.775,9.22,9.013,7.983C9.403,7.593,9.403,6.96,9.013,6.569z"/>
        </g>
        <g fill="#ab9988" transform="matrix(0.1171875 0 0 0.1171875 8 50)" id="L1_14">
            <path
                d="M383.071,148.928c-3.905-3.904-10.237-3.904-14.143,0l-20,20c-3.905,3.905-3.905,10.237,0,14.143    c3.907,3.906,10.238,3.905,14.143,0l20-20C386.976,159.166,386.976,152.834,383.071,148.928z"/>
            <path
                d="M143.071,148.928c-3.905-3.904-10.237-3.904-14.143,0l-20,20c-3.905,3.905-3.905,10.237,0,14.143    c3.907,3.906,10.238,3.905,14.143,0l20-20C146.976,159.166,146.976,152.834,143.071,148.928z"/>
            <path
                d="M333.071,108.928c-3.905-3.904-10.237-3.904-14.143,0l-20,20c-3.905,3.905-3.905,10.237,0,14.143    c3.907,3.906,10.238,3.905,14.143,0l20-20C336.976,119.166,336.976,112.834,333.071,108.928z"/>
            <path
                d="M213.071,108.928c-3.905-3.904-10.237-3.904-14.143,0l-20,20c-3.905,3.905-3.905,10.237,0,14.143    c3.907,3.906,10.238,3.905,14.143,0l20-20C216.976,119.166,216.976,112.834,213.071,108.928z"/>
            <path
                d="M263.071,148.928c-3.905-3.904-10.237-3.904-14.143,0l-20,20c-3.905,3.905-3.905,10.237,0,14.143    c3.907,3.906,10.238,3.905,14.143,0l20-20C266.976,159.166,266.976,152.834,263.071,148.928z"/>
            <path
                d="M512,356c0-16.542-13.458-30-30-30h-10v-32.23c0.412-0.358,0.832-0.701,1.237-1.07c6.491-5.917,20.049-9.7,28.889-9.812    c5.522-0.069,9.943-4.603,9.873-10.125c-0.069-5.479-4.532-9.874-9.997-9.874c-0.042,0-0.086,0-0.128,0.001    c-8.581,0.108-19.982,2.386-29.874,7.063V243.74c12.176-4.983,20.271-17.519,18.533-31.435C478.737,117.496,397.686,46,302,46h-92    c-95.686,0-176.737,71.496-188.533,166.301c-1.733,13.875,6.307,26.437,18.533,31.44v25.771    c-9.929-4.498-21.357-6.748-30.131-6.622c-5.522,0.072-9.94,4.608-9.868,10.131c0.072,5.478,4.535,9.868,9.997,9.868    c0.044,0,0.089,0,0.134-0.001c8.942-0.137,22.822,3.599,29.592,9.774c0.09,0.083,0.186,0.161,0.277,0.243V326H30    c-16.574,0-30,13.424-30,30c0,14.865,10.87,27.233,25.078,29.589c-2.337,6.169-2.505,12.909-0.338,19.313    C37.134,441.446,71.397,466,110,466h292c38.603,0,72.866-24.554,85.263-61.104c2.165-6.398,1.997-13.135-0.339-19.303    C500.864,383.301,512,371.17,512,356z M41.313,214.774C51.867,129.959,124.386,66,210,66h92    c85.614,0,158.133,63.959,168.687,148.779c0.722,5.779-3.787,10.811-9.356,11.184c-0.066,0.004-0.132,0.01-0.198,0.016    c-0.171,0.015-0.342,0.021-0.513,0.021H51.38C45.49,226,40.56,220.814,41.313,214.774z M413.238,277.92    c-21.975-20.039-51.502-20.039-73.477,0c-14.349,13.084-32.175,13.084-46.523,0c-21.975-20.039-51.502-20.039-73.477,0    c-14.349,13.084-32.175,13.084-46.523,0c-21.975-20.038-51.502-20.04-73.479,0.002C87.598,289.02,73.029,290.781,60,282.975V246    h392v37.555C439.241,290.654,425.047,288.689,413.238,277.92z M452,305.243V326H60v-21.057c5.407,1.871,10.956,2.807,16.5,2.806    c12.905,0,25.776-5.048,36.739-15.051c14.348-13.084,32.175-13.084,46.523,0c21.975,20.041,51.503,20.04,73.477,0    c14.349-13.084,32.176-13.084,46.523,0c21.975,20.041,51.503,20.04,73.477,0c14.348-13.085,32.175-13.083,46.523,0    C415.059,306.65,434.265,310.938,452,305.243z M468.32,398.479C458.68,426.902,432.028,446,402,446H110    c-30.028,0-56.68-19.098-66.317-47.515C41.608,392.355,46.901,386,53.46,386h405.08C465.123,386,470.382,392.385,468.32,398.479z     M482,366H30c-5.514,0-10-4.486-10-10c0-5.521,4.479-10,10-10h452c5.514,0,10,4.486,10,10C492,361.521,487.521,366,482,366z"/>
        </g>
        <g fill="#ab9988" transform="matrix(1.119256854057312 0 0 1.119256854057312 300.9999995218018 184)" id="L1_15">
            <path
                d="M27.709,30.9c-0.097-0.253-0.212-0.5-0.339-0.74c-0.082-0.155-0.177-0.302-0.271-0.452   c-0.067-0.107-0.134-0.213-0.206-0.317c-0.108-0.155-0.221-0.304-0.341-0.451c-0.069-0.084-0.143-0.164-0.215-0.245   c-0.226-0.252-0.467-0.486-0.726-0.705c-0.093-0.079-0.182-0.163-0.279-0.237c-0.122-0.093-0.248-0.174-0.375-0.259   c-0.149-0.1-0.301-0.194-0.456-0.281c-0.106-0.059-0.211-0.117-0.32-0.17c-0.277-0.135-0.558-0.256-0.847-0.345   c-0.236-0.073-0.47-0.123-0.703-0.162c-0.048-0.008-0.096-0.015-0.144-0.021c-0.476-0.065-0.941-0.06-1.382,0.015   c-0.01,0.002-0.021,0.004-0.031,0.006c-0.581,0.104-1.12,0.321-1.581,0.661c-0.046,0.034-0.078,0.081-0.123,0.116   c-0.124,0.1-0.237,0.213-0.347,0.33c-0.077,0.082-0.161,0.156-0.229,0.245c-0.145,0.186-0.274,0.387-0.385,0.606   c-0.002,0.004-0.001,0.008-0.003,0.012c-0.289,0.575-0.449,1.236-0.449,1.964c0,2.701,2.102,5.469,4.785,6.3   c0.507,0.157,1.012,0.234,1.498,0.234c0.872,0,1.685-0.249,2.343-0.734c0.99-0.73,1.536-1.893,1.536-3.273   c0-0.707-0.15-1.416-0.411-2.096C27.709,30.901,27.709,30.901,27.709,30.9z M20.481,29.004c0.095-0.1,0.204-0.183,0.321-0.255   c0.067-0.042,0.14-0.074,0.214-0.106c0.102-0.045,0.207-0.086,0.32-0.113c0.083-0.019,0.17-0.027,0.258-0.036   c0.13-0.014,0.26-0.027,0.399-0.019c0.037,0.002,0.075,0.005,0.113,0.01c0.205,0.02,0.417,0.057,0.637,0.125   c0.207,0.064,0.408,0.152,0.606,0.25c0.041,0.02,0.081,0.041,0.121,0.062c0.402,0.216,0.78,0.495,1.116,0.822   c0.017,0.017,0.035,0.033,0.052,0.051c0.325,0.324,0.607,0.692,0.838,1.082c0.034,0.059,0.068,0.117,0.1,0.177   c0.021,0.039,0.036,0.08,0.057,0.119c-0.498,0.556-1.337,0.72-2.299,0.425c-1.191-0.37-2.285-1.345-2.896-2.552   C20.452,29.03,20.467,29.018,20.481,29.004z M25.396,34.662c-0.515,0.38-1.247,0.449-2.062,0.199   c-1.276-0.396-2.4-1.495-2.973-2.737c0.711,0.628,1.524,1.117,2.381,1.383c0.506,0.156,1.006,0.232,1.485,0.232   c0.677,0,1.31-0.158,1.865-0.445C26.031,33.884,25.796,34.368,25.396,34.662z"/>
            <path
                d="M41.456,33.835c-1.086-0.336-2.161-0.191-2.955,0.395c-0.761,0.561-1.197,1.484-1.197,2.533   c0,2.015,1.564,4.077,3.561,4.695c0.385,0.119,0.768,0.178,1.139,0.178c0.674,0,1.304-0.194,1.816-0.572   c0.761-0.561,1.197-1.483,1.197-2.532C45.016,36.516,43.452,34.452,41.456,33.835z M42.632,39.454   c-0.282,0.208-0.701,0.242-1.177,0.094c-1.167-0.361-2.152-1.637-2.152-2.785c0-0.292,0.066-0.689,0.384-0.924   c0.167-0.122,0.38-0.185,0.625-0.185c0.171,0,0.356,0.03,0.552,0.091c1.167,0.361,2.152,1.637,2.152,2.786   C43.016,38.823,42.95,39.22,42.632,39.454z"/>
            <path
                d="M13.456,31.835c-1.085-0.336-2.161-0.191-2.955,0.395c-0.761,0.561-1.197,1.484-1.197,2.533   c0,2.015,1.564,4.077,3.561,4.695c0.385,0.119,0.768,0.178,1.139,0.178c0.674,0,1.304-0.194,1.816-0.572   c0.761-0.561,1.197-1.483,1.197-2.532C17.016,34.516,15.452,32.452,13.456,31.835z M14.632,37.454   c-0.282,0.208-0.701,0.241-1.177,0.094c-1.167-0.361-2.152-1.637-2.152-2.785c0-0.292,0.066-0.689,0.384-0.924   c0.167-0.122,0.38-0.185,0.625-0.185c0.171,0,0.356,0.03,0.552,0.091c1.167,0.361,2.152,1.637,2.152,2.786   C15.016,36.823,14.95,37.22,14.632,37.454z"/>
            <path
                d="M34.456,40.771c-0.81-0.249-1.624-0.14-2.232,0.309c-0.585,0.432-0.92,1.134-0.92,1.928c0,1.455,1.125,2.942,2.561,3.387   c0.284,0.088,0.568,0.132,0.844,0.132c0.512,0,0.993-0.149,1.388-0.44c0.585-0.432,0.921-1.135,0.921-1.929   C37.016,42.702,35.891,41.215,34.456,40.771z M34.909,44.475c-0.088,0.065-0.261,0.068-0.453,0.009   c-0.604-0.187-1.152-0.891-1.152-1.477c0-0.072,0.011-0.247,0.107-0.317c0.045-0.034,0.114-0.051,0.198-0.051   c0.076,0,0.163,0.014,0.255,0.042c0.604,0.187,1.152,0.89,1.152,1.476C35.016,44.229,35.005,44.403,34.909,44.475z"/>
            <path
                d="M33.151,34.505c0.284,0.088,0.568,0.132,0.845,0.132c0.511,0,0.993-0.149,1.388-0.44c0.585-0.432,0.92-1.134,0.92-1.928   c0-1.455-1.125-2.942-2.561-3.387c-0.813-0.251-1.625-0.139-2.231,0.309c-0.585,0.432-0.921,1.135-0.921,1.929   C30.59,32.573,31.715,34.061,33.151,34.505z M32.698,30.801c0.046-0.034,0.115-0.051,0.198-0.051c0.076,0,0.163,0.014,0.255,0.042   c0.604,0.187,1.152,0.891,1.152,1.477c0,0.072-0.011,0.247-0.107,0.317c-0.086,0.065-0.261,0.067-0.453,0.009   c-0.604-0.187-1.152-0.89-1.152-1.476C32.59,31.047,32.601,30.872,32.698,30.801z"/>
            <path
                d="M11.303,21.767c0-1.557-1.205-3.15-2.744-3.628c-0.863-0.269-1.725-0.148-2.365,0.325   c-0.617,0.455-0.972,1.198-0.972,2.039c0,1.558,1.206,3.151,2.745,3.627c0.303,0.094,0.605,0.14,0.898,0.14   c0.541,0,1.051-0.157,1.467-0.464C10.95,23.351,11.303,22.608,11.303,21.767z M9.145,22.195C9.022,22.286,8.8,22.296,8.559,22.22   c-0.712-0.221-1.337-1.022-1.337-1.717c0-0.117,0.021-0.328,0.158-0.43c0.068-0.05,0.165-0.075,0.279-0.075   c0.093,0,0.197,0.017,0.308,0.051c0.712,0.221,1.336,1.023,1.336,1.718C9.303,21.884,9.283,22.095,9.145,22.195z"/>
            <path
                d="M49.332,35.37c0.016-0.069,0.046-0.128,0.07-0.192c0.023-0.062,0.039-0.128,0.068-0.184   c0.002-0.004,0.006-0.007,0.008-0.011c0.055-0.103,0.123-0.195,0.2-0.278c0.101-0.109,0.222-0.195,0.358-0.262   c0.027-0.014,0.057-0.024,0.085-0.036c0.13-0.054,0.271-0.091,0.424-0.108c0.021-0.002,0.04-0.008,0.062-0.01   c0.128-0.011,0.263-0.004,0.401,0.012c0.016,0.002,0.031,0,0.047,0.002h0.001c0.011,0.001,0.025,0.007,0.037,0.009   c0.124,0.02,0.247,0.05,0.383,0.094c0.08,0.026,0.168,0.064,0.255,0.1c0.053,0.022,0.107,0.04,0.16,0.063   c0.057,0.026,0.116,0.04,0.176,0.054c0.021,0.005,0.041,0.015,0.062,0.019c0.073,0.013,0.146,0.015,0.219,0.012   c0.009,0,0.018,0.002,0.027,0.001c0.078-0.005,0.155-0.021,0.23-0.045c0.004-0.001,0.008-0.001,0.013-0.002   c0.049-0.016,0.094-0.043,0.14-0.067c0.029-0.015,0.06-0.024,0.087-0.042c0.204-0.131,0.346-0.331,0.414-0.556   c0.027-0.092,0.045-0.186,0.045-0.284v-2.234c0-2.152-1.011-4.222-2.706-5.547L33.223,9.442c-0.367-0.347-0.934-0.367-1.322-0.046   c-0.313,0.258-0.776,0.311-1.307,0.146c-1.242-0.385-2.291-1.744-2.291-2.968c0-0.253,0.049-0.478,0.145-0.668   c0.199-0.395,0.115-0.873-0.205-1.177l-2.98-2.818c-0.026-0.024-0.053-0.047-0.081-0.068C22.855,0.069,20-0.486,17.869,0.448   L3.079,7.583c-1.682,0.727-2.77,2.431-2.774,4.354l-0.001,0.004v0.009v15.746c0,0.297,0.132,0.578,0.36,0.769   c0.228,0.189,0.526,0.267,0.82,0.215c0.333-0.063,0.688-0.036,1.051,0.077c1.501,0.465,2.769,2.109,2.769,3.592   c0,0.572-0.197,1.033-0.555,1.297c-0.4,0.295-0.975,0.347-1.623,0.146c-0.397-0.123-0.8-0.347-1.195-0.665   c-0.301-0.24-0.712-0.29-1.06-0.122c-0.347,0.166-0.567,0.517-0.567,0.901v2.163c0,2.151,1.457,4.018,3.504,4.527l43.684,12.868   c0.38,0.096,0.764,0.142,1.145,0.142c1.029,0,2.034-0.341,2.869-0.993c1.144-0.893,1.799-2.236,1.799-3.687v-8.34   c0-0.246-0.089-0.473-0.239-0.648c-0.15-0.176-0.36-0.301-0.603-0.34c-0.021-0.003-0.042-0.012-0.063-0.016   c-0.886-0.166-1.762-0.791-2.36-1.606l0,0c-0.286-0.391-0.497-0.825-0.626-1.271c-0.036-0.126-0.076-0.251-0.097-0.378   c-0.029-0.179-0.041-0.353-0.038-0.516c0.002-0.086,0.018-0.163,0.028-0.243C49.315,35.502,49.317,35.432,49.332,35.37z    M3.91,9.401l14.794-7.137c1.431-0.625,3.477-0.178,5.224,1.137l2.47,2.336c-0.063,0.268-0.094,0.547-0.094,0.837   c0,2.093,1.625,4.235,3.7,4.878c0.841,0.261,1.674,0.239,2.384-0.048l15.916,15.057L31.1,21.337   c-0.439-1.703-1.829-3.257-3.541-3.786c-1.121-0.347-2.233-0.198-3.057,0.407c-0.405,0.298-0.715,0.687-0.924,1.14L3.429,13.101   c-0.619-0.119-0.979-0.545-1.068-1.268c-0.006-0.045-0.028-0.086-0.041-0.13C2.401,10.682,2.99,9.799,3.91,9.401z M29.258,22.429   c0,0.317-0.073,0.75-0.423,1.007c-0.308,0.228-0.76,0.265-1.276,0.106c-0.155-0.048-0.308-0.111-0.455-0.188   c-0.885-0.458-1.601-1.385-1.788-2.314c-0.031-0.153-0.047-0.306-0.047-0.457c0.004-0.022,0.017-0.131,0.019-0.152   c0.002-0.024-0.007-0.046-0.006-0.069c0.031-0.279,0.132-0.591,0.409-0.795c0.183-0.135,0.417-0.203,0.685-0.203   c0.184,0,0.384,0.032,0.593,0.097c1.162,0.36,2.142,1.57,2.266,2.727c0.001,0.009-0.001,0.017-0.001,0.026L29.258,22.429z    M51.303,48.927c0,0.83-0.375,1.6-1.03,2.11c-0.655,0.513-1.49,0.688-2.258,0.499L4.332,38.668   c-1.194-0.299-2.028-1.367-2.028-2.599v-0.445c0.077,0.028,0.154,0.055,0.231,0.078c1.25,0.388,2.488,0.224,3.4-0.447   c0.882-0.65,1.368-1.683,1.368-2.906c0-2.36-1.835-4.777-4.177-5.502c-0.274-0.085-0.55-0.144-0.823-0.174V14.844   c0.205,0.088,0.423,0.154,0.651,0.197L23.3,21.102c0.006,0.048,0.022,0.095,0.03,0.143c0.017,0.105,0.042,0.209,0.066,0.314   c0.033,0.144,0.071,0.285,0.118,0.427c0.035,0.107,0.075,0.211,0.118,0.315c0.055,0.135,0.115,0.268,0.182,0.399   c0.052,0.104,0.107,0.205,0.166,0.305c0.075,0.127,0.155,0.248,0.24,0.369c0.067,0.096,0.134,0.191,0.207,0.284   c0.093,0.117,0.193,0.226,0.295,0.335c0.079,0.085,0.156,0.171,0.24,0.25c0.112,0.107,0.232,0.203,0.353,0.3   c0.085,0.069,0.167,0.141,0.256,0.205c0.139,0.099,0.286,0.183,0.434,0.267c0.08,0.046,0.156,0.099,0.239,0.141   c0.234,0.118,0.475,0.219,0.724,0.296c0.251,0.078,0.501,0.122,0.748,0.15c0.067,0.008,0.132,0.011,0.198,0.016   c0.077,0.005,0.156,0.018,0.233,0.018c0.137,0,0.27-0.014,0.403-0.029c0.025-0.003,0.051-0.002,0.076-0.006   c0.229-0.032,0.448-0.092,0.659-0.169c0.049-0.018,0.097-0.038,0.145-0.059c0.209-0.089,0.411-0.192,0.594-0.327   c0.177-0.131,0.33-0.284,0.47-0.447c0.037-0.042,0.071-0.086,0.106-0.13c0.121-0.157,0.23-0.324,0.318-0.505   c0.008-0.016,0.018-0.029,0.026-0.045c0.073-0.156,0.135-0.318,0.183-0.489l18.061,5.376c1.227,0.263,2.117,1.363,2.117,2.618   v0.895c-0.309-0.041-0.608-0.046-0.897-0.021c-0.248,0.022-0.485,0.071-0.712,0.138c-0.079,0.023-0.154,0.056-0.23,0.085   c-0.158,0.059-0.311,0.127-0.457,0.209c-0.071,0.04-0.14,0.081-0.208,0.126c-0.153,0.102-0.294,0.217-0.429,0.344   c-0.034,0.032-0.075,0.053-0.108,0.087c-0.011,0.011-0.017,0.026-0.028,0.038c-0.018,0.019-0.039,0.032-0.057,0.052   c-0.001,0.001-0.001,0.001-0.002,0.002c-0.095,0.105-0.163,0.235-0.245,0.353c-0.066,0.096-0.143,0.184-0.199,0.287   c-0.01,0.018-0.024,0.031-0.033,0.048c-0.081,0.155-0.129,0.326-0.187,0.493c-0.029,0.085-0.072,0.163-0.095,0.251   c-0.059,0.22-0.086,0.455-0.106,0.692c-0.006,0.067-0.024,0.129-0.027,0.197c0,0.011-0.004,0.021-0.004,0.032   c-0.007,0.257,0.018,0.526,0.056,0.797c0.006,0.041,0.001,0.079,0.007,0.12c0.047,0.285,0.122,0.565,0.215,0.841   c0.007,0.02,0.008,0.04,0.015,0.059c0.033,0.096,0.077,0.195,0.152,0.357c0.051,0.12,0.1,0.24,0.159,0.357   c0.021,0.045,0.038,0.091,0.062,0.136c0.057,0.107,0.125,0.207,0.19,0.308c0.057,0.093,0.114,0.185,0.175,0.275l-0.001,0.001   c0.04,0.067,0.082,0.134,0.123,0.188c0.163,0.223,0.344,0.432,0.497,0.592c0.021,0.025,0.065,0.078,0.089,0.102   c0.069,0.071,0.144,0.131,0.215,0.198c0.033,0.031,0.067,0.062,0.101,0.093c0.167,0.151,0.339,0.29,0.517,0.42   c0.032,0.023,0.063,0.047,0.095,0.07c0.187,0.131,0.379,0.249,0.575,0.355c0.03,0.016,0.058,0.035,0.088,0.05   c0.228,0.118,0.46,0.224,0.696,0.307V48.927z"/>
        </g>
        <g transform="matrix(0.11718803644180298 0 0 0.11718803644180298 76.99999992675748 206)" id="L1_16"
           fill="#ab9988">
            <path
                d="m410.371094 8.363281c-5.972656-5.726562-13.8125-8.683593-22.078125-8.3359372-74.152344 3.1484372-148.035157 23.1093752-213.65625 57.7343752-65.609375 34.617187-123.753907 84.304687-168.144531 143.691406-4.957032 6.628906-6.9375 14.78125-5.574219 22.949219 1.367187 8.171875 5.886719 15.242187 12.730469 19.90625l40.265624 27.4375s.003907.003906.003907.003906l23.90625 16.289062v20.863282c0 5.523437 4.476562 10 10 10 5.523437 0 10-4.476563 10-10v-26.148438c0-3.308594-1.636719-6.402344-4.367188-8.265625l-19.898437-13.558593c8.820312-12.277344 18.3125-24.042969 28.402344-35.300782 10.371093-11.574218 21.417968-22.597656 33.078124-32.882812 11.222657-9.898438 22.910157-19.25 35.113282-27.917969 12.679687-9.003906 25.867187-17.238281 39.453125-24.804687 13.609375-7.585938 27.726562-14.328126 42.132812-20.265626 1.804688-.742187 3.617188-1.476562 5.433594-2.199218-.097656 7.53125 1.371094 15.058594 4.433594 22.179687 5.738281 13.339844 16.328125 23.648438 29.820312 29.019531 6.511719 2.597657 13.324219 3.890626 20.128907 3.890626 7.292968 0 14.578124-1.488282 21.476562-4.453126 13.339844-5.742187 23.644531-16.332031 29.019531-29.820312 5.375-13.492188 5.171875-28.265625-.566406-41.605469-.765625-1.785156-1.636719-3.519531-2.585937-5.210937 13.519531-1.671875 27.121093-2.667969 40.738281-2.996094v251.40625c-16.238281 5.570312-29.007813 18.683594-34.195313 35.050781-5.742187 18.121094-1.347656 38.421875 11.316406 52.582031 6.175782 6.90625 14.117188 12.152344 22.878907 15.152344v40.371094l-47-32.027344c-3.066407-2.085937-7.03125-2.3125-10.308594-.578125-3.273437 1.734375-5.324219 5.136719-5.324219 8.84375v23.183594c0 5.066406-4.121094 9.183594-9.183594 9.183594s-9.183593-4.121094-9.183593-9.183594v-49.328125c0-1.226562-.226563-2.421875-.644531-3.535156 14.082031-15.480469 18.320312-38.261719 9.773437-58.125-11.84375-27.535156-43.886719-40.300782-71.425781-28.453125-11.386719 4.898437-20.671875 13.601562-26.4375 24.359375l-13.535156-9.222656c-3.0625-2.085938-7.027344-2.308594-10.304688-.578126-3.277344 1.734376-5.328125 5.136719-5.328125 8.839844v38.460938c0 5.0625-4.117187 9.179687-9.179687 9.179687s-9.183594-4.121093-9.183594-9.179687v-64.601563c0-3.308593-1.636719-6.402343-4.367188-8.265625l-46.183594-31.464844c-3.058593-2.085937-7.027343-2.3125-10.304687-.578124-3.277344 1.730468-5.324219 5.136718-5.324219 8.839843v133.660157c0 5.066406-4.121094 9.183593-9.183594 9.183593s-9.179687-4.121093-9.179687-9.183593v-53.648438c0-5.523438-4.480469-10-10.003906-10-5.523438 0-10 4.476562-10 10v53.648438c0 16.09375 13.09375 29.183593 29.183593 29.183593 16.089844 0 29.183594-13.089843 29.183594-29.183593v-114.742188l26.179688 17.835938v59.316406c0 16.089844 13.089844 29.179687 29.183594 29.179687 16.089843 0 29.183593-13.089843 29.183593-29.179687v-19.542969l8.28125 5.644531c.003907 0 .003907.003906.007813.003906l68.492187 46.671876 1.117188.761718v44.042969c0 16.089844 13.089843 29.183594 29.183593 29.183594 16.089844 0 29.183594-13.09375 29.183594-29.183594v-4.273437l47.003906 32.03125c6.523438 4.445312 15.632813-.40625 15.632813-8.265626v-471.960937c-.003906-8.277344-3.292969-15.988281-9.269531-21.714844zm-163.832032 370.4375c3.492188-7.738281 9.703126-13.882812 17.703126-17.324219 17.410156-7.488281 37.660156.578126 45.152343 17.984376 5.539063 12.882812 2.585938 27.707031-6.871093 37.488281l-37-25.210938zm-225.890624-157.6875c-.457032-2.738281.207031-5.464843 1.863281-7.6875 42.625-57.023437 98.457031-104.734375 161.457031-137.976562 63.019531-33.25 133.960938-52.417969 205.167969-55.4375.148437-.007813.296875-.011719.441406-.011719 2.601563 0 5.058594.984375 6.953125 2.800781 2 1.921875 3.101562 4.503907 3.101562 7.273438v38.46875c-15.988281.363281-31.960937 1.628906-47.808593 3.753906-4.519531.609375-9.046875 1.246094-13.542969 1.988281-24.179688 4.003906-48.15625 10.113282-71.261719 18.160156-16.347656 5.691407-32.339843 12.539063-47.914062 20.082032-15.804688 7.648437-31.144531 16.394531-45.84375 25.996094-14.457031 9.445312-28.34375 19.703124-41.617188 30.746093-13.390625 11.144531-26.023437 23.171875-37.992187 35.824219-11.75 12.425781-22.6875 25.640625-32.859375 39.378906-1.273438 1.71875-2.535157 3.445313-3.78125 5.179688l-32.101563-21.875c-2.289062-1.558594-3.804687-3.925782-4.261718-6.664063zm322.820312-90.144531c-3.398438 8.527344-9.910156 15.222656-18.34375 18.851562-8.433594 3.625-17.769531 3.753907-26.296875.355469-8.527344-3.394531-15.222656-9.910156-18.851563-18.34375-3.019531-7.023437-3.609374-14.679687-1.757812-21.96875 15.003906-5.03125 30.316406-9.261719 45.8125-12.480469 4.234375-.878906 8.472656-1.71875 12.726562-2.480468 2.65625 2.851562 4.785157 6.121094 6.351563 9.769531 3.628906 8.433594 3.753906 17.769531.359375 26.296875zm42.257812 273.976562c-3.628906-8.429687-3.753906-17.769531-.359374-26.296874 2.828124-7.097657 7.816406-12.921876 14.269531-16.769532v58.972656c-6.109375-3.652343-11.007813-9.160156-13.910157-15.90625zm0 0"/>
            <path
                d="m165.671875 295.625c6.511719 2.59375 13.324219 3.886719 20.128906 3.886719 7.292969 0 14.578125-1.484375 21.476563-4.453125 27.535156-11.847656 40.300781-43.890625 28.453125-71.425782-5.738281-13.339843-16.328125-23.648437-29.820313-29.019531-13.488281-5.375-28.265625-5.175781-41.605468.566407-13.339844 5.738281-23.644532 16.328124-29.019532 29.820312-5.375 13.488281-5.171875 28.265625.566406 41.605469 5.738282 13.339843 16.328126 23.644531 29.820313 29.019531zm-11.804687-63.222656c3.394531-8.527344 9.910156-15.222656 18.34375-18.851563 4.359374-1.875 8.964843-2.816406 13.574218-2.816406 4.300782 0 8.605469.820313 12.722656 2.460937 8.527344 3.394532 15.222657 9.910157 18.851563 18.339844 7.488281 17.40625-.582031 37.660156-17.988281 45.148438-8.429688 3.628906-17.769532 3.753906-26.296875.359375-8.527344-3.398438-15.222657-9.914063-18.847657-18.34375-3.628906-8.433594-3.757812-17.773438-.359374-26.296875zm0 0"/>
            <path
                d="m313.804688 316.117188c6.511718 2.597656 13.324218 3.890624 20.128906 3.890624 7.292968 0 14.578125-1.488281 21.476562-4.457031 13.339844-5.738281 23.644532-16.328125 29.019532-29.816406 5.375-13.492187 5.175781-28.265625-.566407-41.609375-5.738281-13.335938-16.328125-23.644531-29.816406-29.019531-13.492187-5.375-28.269531-5.171875-41.605469.566406-13.339844 5.738281-23.648437 16.328125-29.023437 29.820313-5.371094 13.492187-5.171875 28.265624.566406 41.605468s16.328125 23.648438 29.820313 29.019532zm-11.804688-63.222657c3.394531-8.527343 9.910156-15.21875 18.34375-18.847656 4.359375-1.875 8.964844-2.816406 13.574219-2.816406 4.300781 0 8.605469.816406 12.722656 2.457031 8.527344 3.398438 15.222656 9.914062 18.851563 18.34375 3.625 8.433594 3.753906 17.773438.355468 26.300781-3.398437 8.523438-9.910156 15.21875-18.34375 18.847657-8.429687 3.625-17.769531 3.753906-26.296875.355468-8.527343-3.394531-15.222656-9.910156-18.851562-18.339844-3.625-8.433593-3.75-17.773437-.355469-26.300781zm0 0"/>
            <path
                d="m87.832031 358.910156c4.230469 0 8.082031-2.777344 9.453125-6.765625 1.375-3.996093.007813-8.613281-3.367187-11.179687-3.238281-2.460938-7.730469-2.707032-11.226563-.632813-3.617187 2.144531-5.503906 6.492188-4.648437 10.605469.957031 4.582031 5.101562 7.972656 9.789062 7.972656zm0 0"/>
        </g>
        <g fill="#ab9988" transform="matrix(0.09375 0 0 0.09375 76 113)" id="L1_17">
            <path
                d="m160 0h-40c-71.761719.0820312-129.917969 58.238281-130 130v260c0 16.566406 13.433594 30 30 30h60v130c.035156 27.601562 22.398438 49.964844 50 50h20c27.601562-.035156 49.964844-22.398438 50-50v-130h60c16.566406 0 30-13.433594 30-30v-260c-.082031-71.761719-58.238281-129.9179688-130-130zm20 550c0 16.566406-13.433594 30-30 30h-20c-16.566406 0-30-13.433594-30-30v-130h80zm90-160c0 5.523438-4.476562 10-10 10h-240c-5.523438 0-10-4.476562-10-10v-260c.070312-60.722656 49.277344-109.929688 110-110h40c60.722656.070312 109.929688 49.277344 110 110zm0 0"/>
            <path
                d="m40 120c-5.523438 0-10 4.476562-10 10v240c0 5.523438 4.476562 10 10 10s10-4.476562 10-10v-240c0-5.523438-4.476562-10-10-10zm0 0"/>
        </g>
    </defs>
    <g fi:class="KUsePattern">
        <pattern id="pattern_L1_5" width="350" height="350" patternUnits="userSpaceOnUse">
            <use xlink:href="#L1_5" x="-350" y="-350"/>
            <use xlink:href="#L1_5" x="0" y="-350"/>
            <use xlink:href="#L1_5" x="350" y="-350"/>
            <use xlink:href="#L1_5" x="-350" y="0"/>
            <use xlink:href="#L1_5" x="0" y="0"/>
            <use xlink:href="#L1_5" x="350" y="0"/>
            <use xlink:href="#L1_5" x="-350" y="350"/>
            <use xlink:href="#L1_5" x="0" y="350"/>
            <use xlink:href="#L1_5" x="350" y="350"/>
        </pattern>
        <rect x="0" y="0" width="100%" height="100%" fill="url(#pattern_L1_5)"/>
    </g>
    <g fi:class="KUsePattern">
        <pattern id="pattern_L1_6" width="350" height="350" patternUnits="userSpaceOnUse">
            <use xlink:href="#L1_6" x="-350" y="-350"/>
            <use xlink:href="#L1_6" x="0" y="-350"/>
            <use xlink:href="#L1_6" x="350" y="-350"/>
            <use xlink:href="#L1_6" x="-350" y="0"/>
            <use xlink:href="#L1_6" x="0" y="0"/>
            <use xlink:href="#L1_6" x="350" y="0"/>
            <use xlink:href="#L1_6" x="-350" y="350"/>
            <use xlink:href="#L1_6" x="0" y="350"/>
            <use xlink:href="#L1_6" x="350" y="350"/>
        </pattern>
        <rect x="0" y="0" width="100%" height="100%" fill="url(#pattern_L1_6)"/>
    </g>
    <g fi:class="KUsePattern">
        <pattern id="pattern_L1_7" width="350" height="350" patternUnits="userSpaceOnUse">
            <use xlink:href="#L1_7" x="-350" y="-350"/>
            <use xlink:href="#L1_7" x="0" y="-350"/>
            <use xlink:href="#L1_7" x="350" y="-350"/>
            <use xlink:href="#L1_7" x="-350" y="0"/>
            <use xlink:href="#L1_7" x="0" y="0"/>
            <use xlink:href="#L1_7" x="350" y="0"/>
            <use xlink:href="#L1_7" x="-350" y="350"/>
            <use xlink:href="#L1_7" x="0" y="350"/>
            <use xlink:href="#L1_7" x="350" y="350"/>
        </pattern>
        <rect x="0" y="0" width="100%" height="100%" fill="url(#pattern_L1_7)"/>
    </g>
    <g fi:class="KUsePattern">
        <pattern id="pattern_L1_8" width="350" height="350" patternUnits="userSpaceOnUse">
            <use xlink:href="#L1_8" x="-350" y="-350"/>
            <use xlink:href="#L1_8" x="0" y="-350"/>
            <use xlink:href="#L1_8" x="350" y="-350"/>
            <use xlink:href="#L1_8" x="-350" y="0"/>
            <use xlink:href="#L1_8" x="0" y="0"/>
            <use xlink:href="#L1_8" x="350" y="0"/>
            <use xlink:href="#L1_8" x="-350" y="350"/>
            <use xlink:href="#L1_8" x="0" y="350"/>
            <use xlink:href="#L1_8" x="350" y="350"/>
        </pattern>
        <rect x="0" y="0" width="100%" height="100%" fill="url(#pattern_L1_8)"/>
    </g>
    <g fi:class="KUsePattern">
        <pattern id="pattern_L1_9" width="350" height="350" patternUnits="userSpaceOnUse">
            <use xlink:href="#L1_9" x="-350" y="-350"/>
            <use xlink:href="#L1_9" x="0" y="-350"/>
            <use xlink:href="#L1_9" x="350" y="-350"/>
            <use xlink:href="#L1_9" x="-350" y="0"/>
            <use xlink:href="#L1_9" x="0" y="0"/>
            <use xlink:href="#L1_9" x="350" y="0"/>
            <use xlink:href="#L1_9" x="-350" y="350"/>
            <use xlink:href="#L1_9" x="0" y="350"/>
            <use xlink:href="#L1_9" x="350" y="350"/>
        </pattern>
        <rect x="0" y="0" width="100%" height="100%" fill="url(#pattern_L1_9)"/>
    </g>
    <g fi:class="KUsePattern">
        <pattern id="pattern_L1_10" width="350" height="350" patternUnits="userSpaceOnUse">
            <use xlink:href="#L1_10" x="-350" y="-350"/>
            <use xlink:href="#L1_10" x="0" y="-350"/>
            <use xlink:href="#L1_10" x="350" y="-350"/>
            <use xlink:href="#L1_10" x="-350" y="0"/>
            <use xlink:href="#L1_10" x="0" y="0"/>
            <use xlink:href="#L1_10" x="350" y="0"/>
            <use xlink:href="#L1_10" x="-350" y="350"/>
            <use xlink:href="#L1_10" x="0" y="350"/>
            <use xlink:href="#L1_10" x="350" y="350"/>
        </pattern>
        <rect x="0" y="0" width="100%" height="100%" fill="url(#pattern_L1_10)"/>
    </g>
    <g fi:class="KUsePattern">
        <pattern id="pattern_L1_11" width="350" height="350" patternUnits="userSpaceOnUse">
            <use xlink:href="#L1_11" x="-350" y="-350"/>
            <use xlink:href="#L1_11" x="0" y="-350"/>
            <use xlink:href="#L1_11" x="350" y="-350"/>
            <use xlink:href="#L1_11" x="-350" y="0"/>
            <use xlink:href="#L1_11" x="0" y="0"/>
            <use xlink:href="#L1_11" x="350" y="0"/>
            <use xlink:href="#L1_11" x="-350" y="350"/>
            <use xlink:href="#L1_11" x="0" y="350"/>
            <use xlink:href="#L1_11" x="350" y="350"/>
        </pattern>
        <rect x="0" y="0" width="100%" height="100%" fill="url(#pattern_L1_11)"/>
    </g>
    <g fi:class="KUsePattern">
        <pattern id="pattern_L1_12" width="350" height="350" patternUnits="userSpaceOnUse">
            <use xlink:href="#L1_12" x="-350" y="-350"/>
            <use xlink:href="#L1_12" x="0" y="-350"/>
            <use xlink:href="#L1_12" x="350" y="-350"/>
            <use xlink:href="#L1_12" x="-350" y="0"/>
            <use xlink:href="#L1_12" x="0" y="0"/>
            <use xlink:href="#L1_12" x="350" y="0"/>
            <use xlink:href="#L1_12" x="-350" y="350"/>
            <use xlink:href="#L1_12" x="0" y="350"/>
            <use xlink:href="#L1_12" x="350" y="350"/>
        </pattern>
        <rect x="0" y="0" width="100%" height="100%" fill="url(#pattern_L1_12)"/>
    </g>
    <g fi:class="KUsePattern">
        <pattern id="pattern_L1_13" width="350" height="350" patternUnits="userSpaceOnUse">
            <use xlink:href="#L1_13" x="-350" y="-350"/>
            <use xlink:href="#L1_13" x="0" y="-350"/>
            <use xlink:href="#L1_13" x="350" y="-350"/>
            <use xlink:href="#L1_13" x="-350" y="0"/>
            <use xlink:href="#L1_13" x="0" y="0"/>
            <use xlink:href="#L1_13" x="350" y="0"/>
            <use xlink:href="#L1_13" x="-350" y="350"/>
            <use xlink:href="#L1_13" x="0" y="350"/>
            <use xlink:href="#L1_13" x="350" y="350"/>
        </pattern>
        <rect x="0" y="0" width="100%" height="100%" fill="url(#pattern_L1_13)"/>
    </g>
    <g fi:class="KUsePattern">
        <pattern id="pattern_L1_14" width="350" height="350" patternUnits="userSpaceOnUse">
            <use xlink:href="#L1_14" x="-350" y="-350"/>
            <use xlink:href="#L1_14" x="0" y="-350"/>
            <use xlink:href="#L1_14" x="350" y="-350"/>
            <use xlink:href="#L1_14" x="-350" y="0"/>
            <use xlink:href="#L1_14" x="0" y="0"/>
            <use xlink:href="#L1_14" x="350" y="0"/>
            <use xlink:href="#L1_14" x="-350" y="350"/>
            <use xlink:href="#L1_14" x="0" y="350"/>
            <use xlink:href="#L1_14" x="350" y="350"/>
        </pattern>
        <rect x="0" y="0" width="100%" height="100%" fill="url(#pattern_L1_14)"/>
    </g>
    <g fi:class="KUsePattern">
        <pattern id="pattern_L1_15" width="350" height="350" patternUnits="userSpaceOnUse">
            <use xlink:href="#L1_15" x="-350" y="-350"/>
            <use xlink:href="#L1_15" x="0" y="-350"/>
            <use xlink:href="#L1_15" x="350" y="-350"/>
            <use xlink:href="#L1_15" x="-350" y="0"/>
            <use xlink:href="#L1_15" x="0" y="0"/>
            <use xlink:href="#L1_15" x="350" y="0"/>
            <use xlink:href="#L1_15" x="-350" y="350"/>
            <use xlink:href="#L1_15" x="0" y="350"/>
            <use xlink:href="#L1_15" x="350" y="350"/>
        </pattern>
        <rect x="0" y="0" width="100%" height="100%" fill="url(#pattern_L1_15)"/>
    </g>
    <g fi:class="KUsePattern">
        <pattern id="pattern_L1_16" width="350" height="350" patternUnits="userSpaceOnUse">
            <use xlink:href="#L1_16" x="-350" y="-350"/>
            <use xlink:href="#L1_16" x="0" y="-350"/>
            <use xlink:href="#L1_16" x="350" y="-350"/>
            <use xlink:href="#L1_16" x="-350" y="0"/>
            <use xlink:href="#L1_16" x="0" y="0"/>
            <use xlink:href="#L1_16" x="350" y="0"/>
            <use xlink:href="#L1_16" x="-350" y="350"/>
            <use xlink:href="#L1_16" x="0" y="350"/>
            <use xlink:href="#L1_16" x="350" y="350"/>
        </pattern>
        <rect x="0" y="0" width="100%" height="100%" fill="url(#pattern_L1_16)"/>
    </g>
    <g fi:class="KUsePattern">
        <pattern id="pattern_L1_17" width="350" height="350" patternUnits="userSpaceOnUse">
            <use xlink:href="#L1_17" x="-350" y="-350"/>
            <use xlink:href="#L1_17" x="0" y="-350"/>
            <use xlink:href="#L1_17" x="350" y="-350"/>
            <use xlink:href="#L1_17" x="-350" y="0"/>
            <use xlink:href="#L1_17" x="0" y="0"/>
            <use xlink:href="#L1_17" x="350" y="0"/>
            <use xlink:href="#L1_17" x="-350" y="350"/>
            <use xlink:href="#L1_17" x="0" y="350"/>
            <use xlink:href="#L1_17" x="350" y="350"/>
        </pattern>
        <rect x="0" y="0" width="100%" height="100%" fill="url(#pattern_L1_17)"/>
    </g>
</svg>
